<svg xmlns="http://www.w3.org/2000/svg" viewBox="0 0 69.26 94.48"><defs><style>.cls-1{fill:none;stroke:#6d9973;stroke-miterlimit:10;}</style></defs><title>glasses</title><g id="Слой_2" data-name="Слой 2"><g id="Слой_1-2" data-name="Слой 1"><path class="cls-1" d="M47,10.61H66.5s-4.36,44.71-9.74,44.71h0C51.39,55.32,47,10.61,47,10.61"/><path class="cls-1" d="M57.78,55.32v35a1,1,0,0,1-1,1h0a1,1,0,0,1-1-1v-35"/><path class="cls-1" d="M57.78,88.68c6.06.06,10.87,1.23,10.87,2.65S63.5,94,57.16,94s-11.5-1.19-11.5-2.65S50,88.86,55.71,88.69"/><line class="cls-1" x1="49.2" y1="28.48" x2="64.32" y2="28.48"/><path class="cls-1" d="M55.32,33.27a1.39,1.39,0,1,1-1.39-1.39A1.39,1.39,0,0,1,55.32,33.27Z"/><circle class="cls-1" cx="57.16" cy="38.22" r="0.39"/><path class="cls-1" d="M61.42,32.15a.27.27,0,1,1-.54,0,.27.27,0,1,1,.54,0Z"/><path class="cls-1" d="M58.39,43.09a.62.62,0,1,1-.62-.62A.62.62,0,0,1,58.39,43.09Z"/><path class="cls-1" d="M62.48,37.17a.67.67,0,1,1-.67-.67A.67.67,0,0,1,62.48,37.17Z"/><path class="cls-1" d="M29.12.47,47.44,7.06S28.22,47.66,23.16,45.84h0C18.1,44,29.12.47,29.12.47"/><path class="cls-1" d="M24.12,46.18,12.29,79.09a1,1,0,0,1-1.32.62h0a1,1,0,0,1-.62-1.32L22.17,45.48"/><path class="cls-1" d="M12.83,77.57c5.69,2.11,9.83,4.84,9.35,6.17s-5.75.76-11.72-1.39S0,77.34.54,76s5-.85,10.35.91"/><line class="cls-1" x1="24.45" y1="21.41" x2="39.35" y2="23.13"/><path class="cls-1" d="M29.26,24.6a1.39,1.39,0,1,1-.84-1.78A1.39,1.39,0,0,1,29.26,24.6Z"/><path class="cls-1" d="M29.68,30a.38.38,0,0,1-.5.23.39.39,0,1,1,.26-.73A.39.39,0,0,1,29.68,30Z"/><path class="cls-1" d="M35.38,25.61a.27.27,0,0,1-.35.16.27.27,0,0,1-.16-.35.26.26,0,0,1,.34-.16A.27.27,0,0,1,35.38,25.61Z"/><path class="cls-1" d="M28.83,34.88a.62.62,0,1,1-.37-.79A.61.61,0,0,1,28.83,34.88Z"/><path class="cls-1" d="M34.68,30.68a.66.66,0,0,1-.85.4.65.65,0,0,1-.4-.85.67.67,0,0,1,.85-.4A.68.68,0,0,1,34.68,30.68Z"/><line class="cls-1" x1="53.98" y1="17.21" x2="57.44" y2="18.34"/><line class="cls-1" x1="56.28" y1="16.04" x2="55.14" y2="19.5"/><line class="cls-1" x1="65.64" y1="23.56" x2="69.11" y2="24.69"/><line class="cls-1" x1="67.94" y1="22.39" x2="66.81" y2="25.86"/><line class="cls-1" x1="60.62" y1="14.28" x2="65.66" y2="15.92"/><line class="cls-1" x1="63.96" y1="12.58" x2="62.31" y2="17.62"/><line class="cls-1" x1="26.42" y1="5.31" x2="29.89" y2="6.44"/><line class="cls-1" x1="28.72" y1="4.15" x2="27.59" y2="7.61"/><line class="cls-1" x1="33.8" y1="2.28" x2="37.26" y2="3.42"/><line class="cls-1" x1="36.1" y1="1.12" x2="34.97" y2="4.58"/><line class="cls-1" x1="30.65" y1="9.24" x2="35.69" y2="10.89"/><line class="cls-1" x1="34" y1="7.55" x2="32.35" y2="12.58"/></g></g></svg>