<?xml version="1.0" encoding="utf-8"?>
<!-- Generator: Adobe Illustrator 27.0.0, SVG Export Plug-In . SVG Version: 6.00 Build 0)  -->
<svg version="1.1" id="Слой_1" xmlns="http://www.w3.org/2000/svg" xmlns:xlink="http://www.w3.org/1999/xlink" x="0px" y="0px"
	 viewBox="0 0 69.3 94.5" style="enable-background:new 0 0 69.3 94.5;" xml:space="preserve">
<style type="text/css">
	.st0{fill:none;stroke:#000000;stroke-miterlimit:10;}
</style>
<g id="Слой_2_00000054970575572498159530000003622419130462806941_">
	<g id="Слой_1-2">
		<path class="st0" d="M47,10.6h19.5c0,0-4.4,44.7-9.7,44.7l0,0C51.4,55.3,47,10.6,47,10.6"/>
		<path class="st0" d="M57.8,55.3v35c0,0.6-0.4,1-1,1l0,0c-0.6,0-1-0.4-1-1v-35"/>
		<path class="st0" d="M57.8,88.7c6.1,0.1,10.9,1.2,10.9,2.7S63.5,94,57.2,94s-11.5-1.2-11.5-2.7s4.3-2.5,10-2.7"/>
		<line class="st0" x1="49.2" y1="28.5" x2="64.3" y2="28.5"/>
		<path class="st0" d="M55.3,33.3c0,0.8-0.6,1.4-1.4,1.4s-1.4-0.6-1.4-1.4c0-0.8,0.6-1.4,1.4-1.4l0,0C54.7,31.9,55.3,32.5,55.3,33.3
			z"/>
		<circle class="st0" cx="57.2" cy="38.2" r="0.4"/>
		<path class="st0" d="M61.4,32.2c0,0.1-0.1,0.3-0.3,0.3s-0.3-0.1-0.3-0.3s0.1-0.3,0.3-0.3S61.4,32,61.4,32.2z"/>
		<path class="st0" d="M58.4,43.1c0,0.3-0.3,0.6-0.6,0.6s-0.6-0.3-0.6-0.6s0.3-0.6,0.6-0.6l0,0C58.1,42.5,58.4,42.7,58.4,43.1z"/>
		<path class="st0" d="M62.5,37.2c0,0.4-0.3,0.7-0.7,0.7s-0.7-0.3-0.7-0.7s0.3-0.7,0.7-0.7l0,0C62.2,36.5,62.5,36.8,62.5,37.2z"/>
		<path class="st0" d="M29.1,0.5l18.3,6.6c0,0-19.2,40.6-24.3,38.8l0,0C18.1,44,29.1,0.5,29.1,0.5"/>
		<path class="st0" d="M24.1,46.2L12.3,79.1c-0.2,0.5-0.7,0.8-1.3,0.6c0,0,0,0-0.1,0l0,0c-0.5-0.2-0.8-0.7-0.6-1.3c0,0,0,0,0-0.1
			l11.8-32.9"/>
		<path class="st0" d="M12.8,77.6c5.7,2.1,9.8,4.8,9.4,6.2s-5.8,0.8-11.7-1.4S0,77.3,0.5,76s5-0.8,10.4,0.9"/>
		<line class="st0" x1="24.5" y1="21.4" x2="39.3" y2="23.1"/>
		<path class="st0" d="M29.3,24.6c-0.3,0.7-1.1,1.1-1.8,0.8s-1.1-1.1-0.8-1.8c0.3-0.7,1.1-1.1,1.8-0.8
			C29.1,23.1,29.5,23.9,29.3,24.6L29.3,24.6z"/>
		<path class="st0" d="M29.7,30c-0.1,0.2-0.3,0.3-0.5,0.2l0,0c-0.2,0-0.3-0.3-0.3-0.5s0.3-0.3,0.5-0.3h0.1
			C29.6,29.6,29.8,29.8,29.7,30L29.7,30z"/>
		<path class="st0" d="M35.4,25.6c-0.1,0.1-0.2,0.2-0.3,0.2l0,0c-0.1-0.1-0.2-0.2-0.2-0.3l0,0c0-0.1,0.2-0.2,0.3-0.2l0,0
			C35.4,25.3,35.4,25.5,35.4,25.6L35.4,25.6z"/>
		<path class="st0" d="M28.8,34.9c-0.1,0.3-0.5,0.5-0.8,0.4s-0.5-0.5-0.4-0.8s0.5-0.5,0.8-0.4l0,0C28.8,34.2,28.9,34.5,28.8,34.9
			L28.8,34.9z"/>
		<path class="st0" d="M34.7,30.7c-0.1,0.3-0.5,0.5-0.8,0.4l0,0c-0.3-0.1-0.5-0.5-0.4-0.8l0,0c0.1-0.3,0.5-0.5,0.8-0.4
			C34.6,30,34.8,30.3,34.7,30.7z"/>
		<line class="st0" x1="54" y1="17.2" x2="57.4" y2="18.3"/>
		<line class="st0" x1="56.3" y1="16" x2="55.1" y2="19.5"/>
		<line class="st0" x1="65.6" y1="23.6" x2="69.1" y2="24.7"/>
		<line class="st0" x1="67.9" y1="22.4" x2="66.8" y2="25.9"/>
		<line class="st0" x1="60.6" y1="14.3" x2="65.7" y2="15.9"/>
		<line class="st0" x1="64" y1="12.6" x2="62.3" y2="17.6"/>
		<line class="st0" x1="26.4" y1="5.3" x2="29.9" y2="6.4"/>
		<line class="st0" x1="28.7" y1="4.2" x2="27.6" y2="7.6"/>
		<line class="st0" x1="33.8" y1="2.3" x2="37.3" y2="3.4"/>
		<line class="st0" x1="36.1" y1="1.1" x2="35" y2="4.6"/>
		<line class="st0" x1="30.6" y1="9.2" x2="35.7" y2="10.9"/>
		<line class="st0" x1="34" y1="7.6" x2="32.3" y2="12.6"/>
	</g>
</g>
</svg>
