<?xml version="1.0" encoding="UTF-8"?>
<svg id="_Слой_2" data-name="Слой 2" xmlns="http://www.w3.org/2000/svg" viewBox="0 0 70.94 118.15">
  <defs>
    <style>
      .cls-1 {
        stroke-dasharray: 0 0 1.92 1.92;
      }

      .cls-1, .cls-2, .cls-3, .cls-4, .cls-5 {
        stroke: #1d1d1b;
      }

      .cls-1, .cls-3, .cls-4, .cls-5 {
        fill: none;
        stroke-linecap: round;
        stroke-linejoin: round;
        stroke-width: .75px;
      }

      .cls-2 {
        fill: #9b8870;
        stroke-miterlimit: 10;
      }

      .cls-3 {
        stroke-dasharray: 0 0 1.96 1.96;
      }

      .cls-5 {
        stroke-dasharray: 0 0 1.85 1.85;
      }
    </style>
  </defs>
  <g id="_Слой_1-2" data-name="Слой 1">
    <g id="_Слой_2-2" data-name="Слой 2">
      <g id="Objects">
        <path class="cls-4" d="M19.84,89.52l.39-.92"/>
        <path class="cls-3" d="M20.93,86.78c3.06-8.34,3.44-17.43,1.08-26"/>
        <path class="cls-4" d="M21.71,59.85c-.1-.32-.21-.63-.33-.95"/>
        <path class="cls-4" d="M27.56,62.56c-.34-.02-.67-.07-1-.15"/>
        <path class="cls-5" d="M24.86,61.74c-.27-.15-.53-.31-.77-.5-.49-.37-.96-.78-1.39-1.22"/>
        <path class="cls-4" d="M22.06,59.35c-.22-.26-.44-.52-.63-.78-.06,.33-.12,.66-.19,1"/>
        <path class="cls-1" d="M20.81,61.42c-.25,.93-.63,1.82-1.12,2.65"/>
        <path class="cls-4" d="M19.13,64.85c-.21,.25-.44,.49-.69,.71"/>
        <path class="cls-4" d="M21.82,48.72l1-.25"/>
        <path class="cls-3" d="M24.66,47.9c8.46-2.71,15.87-7.99,21.18-15.11"/>
        <path class="cls-4" d="M46.39,32.02c.19-.28,.37-.56,.54-.84"/>
        <path class="cls-4" d="M47.84,38.27c-.18-.28-.34-.58-.48-.88"/>
        <path class="cls-5" d="M46.83,35.63c-.05-.3-.07-.61-.08-.92,0-.62,.03-1.24,.11-1.85"/>
        <path class="cls-4" d="M47.01,31.95c.06-.34,.13-.67,.21-1-.29,.16-.59,.31-.89,.46"/>
        <path class="cls-1" d="M44.59,32.23c-.88,.38-1.82,.63-2.77,.75"/>
        <path class="cls-4" d="M40.86,33.02c-.34,0-.67-.04-1-.11"/>
        <path class="cls-2" d="M36.62,96.48c.57-2.16,.75-4.41,.52-6.64-.13-1.08-.53-2.11-1.15-3-.32-.39-.78-.65-1.28-.73-.5-.11-1.03-.11-1.53,0-2.09,.51-3.98,1.66-5.39,3.29-1.56,1.48-2.82,3.24-3.73,5.19-.45,.95-.75,1.96-.89,3-.11,.36-.11,.76,0,1.12,0,.09,.55,.24,1,.27,1.14-.01,2.28,.06,3.41,.21,.32,.06,.62,.17,.91,.32,.3,.16,.56,.38,.78,.64,.37,.47,.68,.98,.92,1.53,.24,.51,.46,1,.72,1.49,.21,.44,.56,.79,1,1,.48,.13,1,.04,1.41-.24,.47-.28,.87-.67,1.17-1.13,1.06-1.97,1.78-4.11,2.13-6.32Zm0,0c-.23,1.1-.44,2.2-.73,3.28-.26,1.1-.66,2.16-1.19,3.15-.28,.51-.66,.95-1.12,1.31-.49,.4-1.12,.56-1.74,.43-.57-.23-1.05-.64-1.35-1.18-.33-.49-.59-1-.87-1.47-.24-.46-.54-.89-.9-1.28-.16-.15-.34-.28-.54-.37-.22-.09-.45-.15-.69-.18-1-.15-2.07,.11-3.29,.07-.32,0-.63-.04-.94-.1-.44-.06-.84-.28-1.12-.62-.26-.34-.4-.75-.41-1.17-.02-.33,0-.67,.05-1,.14-1.18,.46-2.34,.95-3.43,1-2.11,2.44-3.99,4.22-5.51,1.68-1.65,3.84-2.73,6.17-3.09,.6-.08,1.22-.03,1.8,.16,.29,.09,.57,.21,.83,.37,.26,.18,.48,.4,.66,.66,.59,1,.93,2.12,1,3.28,.08,2.26-.18,4.51-.79,6.69Z"/>
        <path class="cls-2" d="M22.71,116.02c.7-.72,1.3-1.53,1.78-2.42,.22-.44,.36-.92,.41-1.41,.06-.59-.07-.59-.58-.65-1.05-.11-2.08-.37-3.06-.76-.45-.18-.91-.32-1.38-.44-.19-.06-.39-.1-.59-.12t0,0s.11-.09,.08,0c-.77,1.74-1.1,3.64-.94,5.54,.02,.46,.17,.9,.44,1.27,.33,.34,.79,.51,1.26,.46,1.02-.12,1.95-.65,2.58-1.47Zm0,0c-.66,.81-1.57,1.37-2.58,1.59-.55,.11-1.12,0-1.58-.34-.42-.39-.72-.89-.87-1.44-.67-2.11-.54-4.39,.36-6.41,.13-.25,.34-.45,.59-.58,.23-.1,.49-.15,.74-.13,.31,.04,.61,.11,.91,.21,.5,.18,1,.39,1.47,.63,.85,.5,1.76,.91,2.7,1.22,.33,.06,.63,.25,.84,.51,.1,.16,.15,.35,.13,.54,0,.15-.05,.27-.08,.41-.15,.51-.38,.99-.68,1.43-.58,.84-1.23,1.63-1.95,2.36Z"/>
        <path class="cls-2" d="M25.11,112.02c-.73,.12-1.48,.12-2.21,0-.73-.13-1.43-.4-2.07-.77,.7,.21,1.4,.39,2.12,.52,.71,.13,1.44,.21,2.16,.25Z"/>
        <path class="cls-2" d="M24.6,113.02c-.54,.07-1.1,.07-1.64,0-.55-.06-1.09-.19-1.61-.37,.55,0,1.09,.07,1.63,.12s1.08,.15,1.62,.25Z"/>
        <path class="cls-2" d="M23.98,114.07c-.44,.09-.89,.09-1.33,0-.44-.07-.86-.23-1.24-.47,.44,.07,.86,.17,1.28,.23s.85,.19,1.29,.24Z"/>
        <path class="cls-2" d="M23.36,114.95c-.38,.05-.78,.03-1.15-.08-.36-.1-.7-.26-1-.49,.39,.06,.74,.17,1.1,.25s.68,.18,1.05,.32Z"/>
        <path class="cls-2" d="M22.79,115.75c-.41,.08-.84,.08-1.25,0-.42-.05-.82-.18-1.19-.38,.42,0,.82,.09,1.22,.13s.81,.16,1.22,.25Z"/>
        <path class="cls-2" d="M22.11,116.45c-.34,.09-.7,.12-1.05,.08-.35-.03-.69-.13-1-.28,.33-.02,.67-.02,1,0,.35,.04,.71,.11,1.05,.2Z"/>
        <path class="cls-2" d="M21.29,117.24c-.32,.11-.66,.14-1,.11-.36-.04-.7-.16-1-.35,.35,0,.67,.07,1,.1s.66,.07,1,.14Z"/>
        <path class="cls-2" d="M36.49,87.85c-.52-.45-1.13-.8-1.79-1,.76-.12,1.5,.29,1.79,1Z"/>
        <path class="cls-2" d="M37.06,89.12c-.53-.58-1.23-.97-2-1.1,.85-.19,1.71,.28,2,1.1Z"/>
        <path class="cls-2" d="M37.26,90.15c-.41-.18-.79-.4-1.2-.58s-.8-.35-1.21-.55c.46,.02,.91,.13,1.32,.33,.42,.19,.79,.46,1.09,.8Z"/>
        <path class="cls-2" d="M37.36,91.24c-.47-.16-.9-.37-1.36-.55s-.89-.39-1.33-.63c.49,.06,.98,.2,1.43,.4,.46,.19,.88,.46,1.26,.78Z"/>
        <path class="cls-2" d="M37.27,92.29c-.48-.31-1-.57-1.54-.76,.63-.14,1.27,.18,1.54,.76Z"/>
        <path class="cls-2" d="M37.13,93.21c-.35-.09-.65-.22-1-.31s-.64-.19-1-.32c.73-.13,1.48,.1,2,.63Z"/>
        <path class="cls-2" d="M36.89,94.34c-.62-.23-1.26-.42-1.91-.57,.69-.18,1.43,.04,1.91,.57Z"/>
        <path class="cls-2" d="M36.67,95.68c-.35-.05-.68-.15-1-.29-.33-.13-.64-.31-.93-.52,.34,.06,.68,.15,1,.29,.33,.13,.64,.31,.93,.52Z"/>
        <path class="cls-2" d="M36.37,96.94c-.07-.17-.24-.23-.4-.3l-.5-.19c-.32-.15-.66-.27-1-.46,.37,0,.74,.08,1.09,.22,.17,.09,.33,.16,.49,.26s.35,.27,.32,.47Z"/>
        <path class="cls-2" d="M36.12,98.12c-.4-.32-.85-.57-1.33-.74,.57-.16,1.17,.17,1.33,.74Z"/>
        <path class="cls-2" d="M35.67,99.02c-.32-.08-.59-.21-.88-.31s-.58-.21-.87-.37c.34-.04,.68,0,1,.14,.29,.12,.55,.3,.75,.54Z"/>
        <path class="cls-2" d="M35.73,100.32c-.7-.33-1.34-.6-2.06-.88,.79-.06,1.56,.27,2.06,.88Z"/>
        <path class="cls-2" d="M35.41,101.26c-.3,0-.56-.14-.84-.2s-.55-.14-.84-.25c.29-.09,.61-.09,.9,0,.3,.07,.57,.23,.78,.45Z"/>
        <path class="cls-2" d="M34.75,102.11c-.49-.16-1-.28-1.51-.37,.53-.25,1.16-.1,1.51,.37Z"/>
        <path class="cls-2" d="M34.15,103.28c-.45-.31-.95-.54-1.48-.68,.6-.19,1.24,.1,1.48,.68Z"/>
        <path class="cls-2" d="M33.43,103.86c-.23-.05-.47-.12-.69-.2-.22-.09-.44-.2-.64-.32,.25-.04,.51,0,.74,.09,.23,.09,.44,.24,.59,.43Z"/>
        <path class="cls-2" d="M2.14,61.4c.57-2.18,1.47-4.25,2.67-6.15,.63-.97,1.47-1.78,2.47-2.36,.28-.14,.59-.22,.9-.24,.31-.01,.61,.01,.91,.08,.59,.13,1.15,.39,1.64,.75,1.85,1.46,3.18,3.47,3.82,5.74,.8,2.2,1.12,4.55,.94,6.89-.12,1.19-.41,2.35-.88,3.45-.11,.3-.26,.59-.43,.86-.22,.36-.55,.65-.94,.82-.41,.16-.87,.16-1.28,0-.3-.1-.59-.23-.87-.38-1.07-.57-1.89-1.33-2.81-1.69-.22-.09-.46-.16-.7-.19-.22-.02-.44,0-.65,.06-.51,.15-.99,.36-1.44,.64-.48,.28-1,.58-1.48,.84-.54,.32-1.18,.44-1.8,.34-.6-.19-1.07-.65-1.3-1.23-.22-.54-.33-1.12-.32-1.7,.02-1.13,.2-2.24,.53-3.32,.31-1.09,.68-2.15,1.02-3.21Zm0,0c-.81,2.08-1.25,4.29-1.31,6.52,.02,.54,.16,1.08,.41,1.56,.21,.45,.62,.79,1.1,.92,.5,.04,.99-.1,1.4-.38,.46-.27,.9-.61,1.37-.93,.47-.36,1-.66,1.55-.88,.32-.12,.66-.18,1-.17,.32,.02,.64,.08,.95,.17,1.05,.43,2.08,.94,3.06,1.51,.44,.23,1,.38,1,.29,.28-.27,.48-.62,.57-1,.38-.96,.63-1.97,.72-3,.16-2.14-.06-4.29-.67-6.35-.42-2.11-1.49-4.04-3.05-5.53-.38-.35-.84-.61-1.34-.76-.45-.18-.95-.2-1.41-.05-.99,.47-1.84,1.18-2.5,2.05-1.3,1.82-2.27,3.87-2.85,6.03Z"/>
        <path class="cls-2" d="M4.49,85.3c-.26-.98-.44-1.99-.52-3-.05-.53,0-1.06,.12-1.58,.04-.14,.08-.27,.14-.4,.07-.18,.2-.32,.37-.4,.32-.13,.68-.13,1,0,.99,.2,1.99,.29,3,.27,.54,.03,1.07,.09,1.6,.19,.3,.06,.6,.15,.88,.27,.23,.1,.44,.27,.58,.48,.16,.24,.24,.52,.23,.8-.22,2.2-1.24,4.24-2.87,5.74-.42,.4-.96,.67-1.53,.77-.56,.07-1.12-.1-1.54-.48-.77-.7-1.29-1.63-1.46-2.66Zm0,0c.17,1,.73,1.9,1.56,2.48,.39,.29,.89,.38,1.35,.24,.41-.19,.76-.5,1-.88,1.07-1.57,1.74-3.38,1.93-5.27,0-.06,0,0,0,.07s0,0,0,0c-.18-.08-.37-.15-.57-.19-.44-.12-.92-.22-1.41-.31-1.03-.14-2.04-.43-3-.85-.47-.2-.58-.26-.83,.28-.2,.45-.31,.93-.34,1.42-.04,1.01,.07,2.03,.31,3.01Z"/>
        <path class="cls-2" d="M11.04,82.27c-.72,.16-1.47,.18-2.2,.08-.73-.09-1.45-.32-2.1-.66,.71,.16,1.41,.33,2.13,.42,.72,.09,1.44,.15,2.17,.16Z"/>
        <path class="cls-2" d="M10.6,83.29c-1.09,.19-2.22,.12-3.28-.2h1.64c.54,0,1.09,.11,1.64,.2Z"/>
        <path class="cls-2" d="M10.03,84.34c-.43,.13-.88,.18-1.33,.13-.43-.06-.84-.22-1.21-.45,.44,0,.86,.13,1.29,.16,.43,.03,.8,.11,1.25,.16Z"/>
        <path class="cls-2" d="M9.49,85.26c-.38,.07-.77,.07-1.15,0-.38-.07-.74-.22-1.07-.43,.39,0,.75,.13,1.12,.19s.69,.12,1.1,.24Z"/>
        <path class="cls-2" d="M9.2,86.09c-.82,.23-1.69,.16-2.46-.2,.42,0,.82,0,1.23,.07s.81,.06,1.23,.13Z"/>
        <path class="cls-2" d="M8.62,86.93c-.32,.11-.66,.16-1,.14-.34-.01-.68-.09-1-.23,.33-.02,.67-.02,1,0,.33,.01,.67,.04,1,.09Z"/>
        <path class="cls-2" d="M7.97,87.74c-.32,.13-.66,.18-1,.17-.35-.02-.69-.13-1-.3h1c.32,0,.65,.08,1,.13Z"/>
        <path class="cls-2" d="M9.88,53.66c-.64-.22-1.32-.3-2-.24,.64-.38,1.47-.28,2,.24Z"/>
        <path class="cls-2" d="M10.86,54.62c-.71-.33-1.51-.41-2.28-.24,.71-.51,1.69-.41,2.28,.24Z"/>
        <path class="cls-2" d="M11.49,55.5c-.46,0-.89-.07-1.33-.08s-.88,0-1.33,0c.87-.32,1.83-.28,2.66,.12v-.04Z"/>
        <path class="cls-2" d="M12.38,56.41h-1.47c-.47,0-1,0-1.47-.06,.48-.13,.98-.2,1.48-.19,.5,0,.99,.09,1.46,.25Z"/>
        <path class="cls-2" d="M12.62,57.58c-.56-.1-1.14-.13-1.71-.11,.53-.37,1.24-.32,1.71,.11Z"/>
        <path class="cls-2" d="M13.15,58.52c-.36,0-.69,0-1,.08s-.67,.07-1,.08c.3-.18,.65-.3,1-.33,.34-.02,.68,.04,1,.17Z"/>
        <path class="cls-2" d="M13.41,59.64c-.67,.03-1.34,.1-2,.21,.57-.45,1.35-.53,2-.21Z"/>
        <path class="cls-2" d="M13.62,60.83c-.69,.16-1.41,.16-2.1,0,.69-.17,1.41-.17,2.1,0Z"/>
        <path class="cls-2" d="M13.87,62.11c-.14-.1-.31-.13-.48-.09h-1.62c.34-.14,.71-.22,1.08-.22,.19,0,.37,.02,.56,.05,.18-.03,.41,.06,.46,.26Z"/>
        <path class="cls-2" d="M13.94,63.29c-.49-.14-1-.2-1.51-.18,.47-.36,1.14-.28,1.51,.18Z"/>
        <path class="cls-2" d="M14.09,64.27h-1.88c.29-.15,.61-.24,.93-.24,.33,0,.66,.08,.95,.24Z"/>
        <path class="cls-2" d="M13.94,65.47h-2.24c.7-.36,1.54-.36,2.24,0Z"/>
        <path class="cls-2" d="M14.01,66.46c-.3,.07-.58,.09-.86,.14s-.56,.08-.87,.09c.24-.19,.53-.3,.84-.34,.3-.04,.61,0,.89,.11Z"/>
        <path class="cls-2" d="M13.72,67.5c-.51,.04-1.03,.13-1.53,.24,.39-.43,1.03-.54,1.53-.24Z"/>
        <path class="cls-2" d="M13.62,68.81c-.54-.11-1.09-.13-1.63-.06,.48-.41,1.19-.38,1.63,.06Z"/>
        <path class="cls-2" d="M13.18,69.62c-.23,.05-.47,.08-.71,.08-.24,.02-.48,.02-.72,0,.21-.13,.46-.2,.71-.21,.25-.02,.5,.02,.72,.13Z"/>
        <path class="cls-2" d="M.49,61.66c.49-3.26,1.99-6.28,4.28-8.64-2.01,2.55-3.47,5.49-4.28,8.64Z"/>
        <path class="cls-2" d="M34.89,105.23c.83-.88,1.46-1.94,1.83-3.09,.43-1.13,.78-2.29,1.07-3.46,.3-1.17,.54-2.36,.76-3.55s.39-2.4,.52-3.6c-.08,2.43-.42,4.85-1,7.21-.29,1.18-.67,2.34-1.13,3.47-.42,1.16-1.13,2.2-2.05,3.02Z"/>
        <path class="cls-2" d="M21.75,12.14c-.75,1.95-1.54,3.88-2.26,5.88-.38,1-.73,2-1.07,3s-.67,2-.94,3c.41-2.05,1.01-4.06,1.77-6,.73-2,1.57-3.96,2.5-5.88Z"/>
        <path class="cls-2" d="M69.14,49.46c-.47,1.12-1,2.22-1.59,3.3-.56,1.09-1.19,2.13-1.88,3.14-.74,.98-1.63,1.85-2.64,2.56-1,.74-2,1.45-3,2.16,.93-.8,1.87-1.57,2.82-2.33,.99-.72,1.88-1.57,2.64-2.52,.7-1,1.31-2,1.92-3.09s1.2-2.12,1.73-3.22Z"/>
        <path class="cls-2" d="M13.22,38.52c.02,.91,.18,1.81,.49,2.66,.31,.85,.89,1.57,1.65,2.06,1.61,.82,3.53,.67,5-.37,1.39-1.03,2.46-2.45,3.06-4.07,.35-.8,.67-1.63,.95-2.49s.62-1.71,.86-2.51c.09-.26,.09-.55,0-.81-.17-.28-.41-.51-.7-.67-.73-.52-1.46-1-2.21-1.48-.74-.47-1.52-.87-2.33-1.2-.75-.34-1.59-.44-2.4-.31-.38,.09-.73,.3-1,.58-.3,.33-.59,.66-.86,1-.55,.72-1.01,1.49-1.38,2.31-.76,1.66-1.14,3.47-1.13,5.3Zm0,0c-.03-1.83,.28-3.64,.91-5.36,.31-.87,.71-1.7,1.19-2.49,.24-.4,.5-.79,.78-1.16,.32-.41,.75-.71,1.24-.89,.96-.31,1.99-.31,2.95,0,.91,.26,1.8,.61,2.64,1.05,.82,.43,1.63,.9,2.4,1.41,.5,.3,.92,.72,1.21,1.23,.25,.59,.28,1.24,.08,1.85-.58,1.79-1.3,3.53-2.13,5.21-.85,1.73-2.19,3.18-3.85,4.15-1.7,.95-3.77,.91-5.43-.11-.75-.55-1.31-1.32-1.59-2.21-.28-.86-.42-1.77-.4-2.68Z"/>
        <path class="cls-2" d="M23.62,28.43c.74,.36,1.53,.62,2.33,.8,.81,.17,1.65,.13,2.43-.14,1.5-.68,2.87-1.62,4.05-2.78,1.25-1.07,2.51-2.14,3.73-3.24,1.24-1.04,2.26-2.32,3-3.76,.67-1.48,1.21-3.01,1.6-4.59,.42-1.57,.75-3.17,1-4.78,.24-1.6,.4-3.21,.47-4.83,.12-.59-.12-1.2-.62-1.54-.66-.37-1.38-.62-2.12-.73-.74-.2-1.5-.32-2.26-.35-.71,0-1.41,.2-2,.6-1.28,.85-2.66,1.89-4,2.82l-4,2.85c-1.33,.88-2.45,2.05-3.25,3.43-1.41,2.96-2.67,6-3.77,9.09-.29,.77-.6,1.54-.93,2.3-.35,.76-.27,1.64,.21,2.32,.52,.64,1.17,1.15,1.92,1.5,.7,.37,1.46,.68,2.21,1.03Zm0,0c-.75-.34-1.52-.64-2.26-1-.76-.33-1.43-.84-1.95-1.49-.48-.71-.55-1.62-.19-2.4,.29-.77,.57-1.54,.84-2.32,1.09-3.12,1.91-6.3,3.3-9.38,.79-1.53,1.91-2.86,3.29-3.88,1.3-1,2.59-2.06,3.9-3.07l2-1.51c.67-.5,1.27-1,2-1.51,.8-.53,1.74-.83,2.7-.85,.89,.01,1.77,.13,2.63,.36,.9,.17,1.77,.51,2.55,1,.45,.33,.8,.77,1,1.29,.16,.49,.22,1,.18,1.51-.11,1.68-.33,3.35-.64,5-.32,1.64-.73,3.25-1.24,4.84-.49,1.61-1.14,3.16-1.92,4.65-.85,1.46-1.98,2.73-3.32,3.76-1.29,1-2.62,2-3.91,3.05-1.23,1.12-2.63,2.01-4.16,2.66-.79,.26-1.64,.31-2.45,.12-.81-.19-1.6-.47-2.35-.83Z"/>
        <path class="cls-2" d="M17.03,29.55c.8,.63,1.68,1.15,2.61,1.56-1.06-.1-2.02-.67-2.61-1.56Z"/>
        <path class="cls-2" d="M16.06,30.44c.8,.58,1.67,1.06,2.58,1.45-1.04-.07-1.98-.6-2.58-1.45Z"/>
        <path class="cls-2" d="M15.3,31.62c.56,.52,1.17,.97,1.84,1.34-.82-.06-1.53-.58-1.84-1.34Z"/>
        <path class="cls-2" d="M14.32,33.02c.35,.17,.65,.36,1,.52s.65,.32,1,.51c-.39,0-.77-.11-1.11-.29-.35-.18-.65-.43-.89-.74Z"/>
        <path class="cls-2" d="M13.88,34.29c.45,.3,.93,.56,1.43,.76-.6,.13-1.2-.19-1.43-.76Z"/>
        <path class="cls-2" d="M13.69,35.47c.58,.37,1.1,.66,1.7,1-.71,0-1.36-.38-1.7-1Z"/>
        <path class="cls-2" d="M13.24,36.68c.74,.63,1.62,1.07,2.57,1.28-1.04,.12-2.04-.38-2.57-1.28Z"/>
        <path class="cls-2" d="M13.23,38.28c.37,.14,.7,.33,1,.48s.68,.31,1,.51c-.8-.03-1.55-.4-2.08-1h.08Z"/>
        <path class="cls-2" d="M13.56,39.69c0,.22,.19,.31,.35,.39,.18,.08,.36,.16,.55,.22,.36,.17,.73,.28,1.1,.46-.41,.01-.82-.06-1.2-.22-.19-.08-.37-.18-.55-.29-.16-.11-.32-.35-.25-.56Z"/>
        <path class="cls-2" d="M14.01,41.26c.53,.54,1.17,.96,1.88,1.22-.83,.06-1.6-.44-1.88-1.22Z"/>
        <path class="cls-2" d="M19.14,24.7c.49,.61,1.12,1.1,1.83,1.43-.85-.04-1.59-.61-1.83-1.43Z"/>
        <path class="cls-2" d="M19.49,23.85c.36,.21,.68,.44,1,.62s.68,.38,1,.6c-.81-.1-1.54-.54-2-1.22Z"/>
        <path class="cls-2" d="M19.89,22.61c.58,.46,1.22,.84,1.91,1.13-.81,.04-1.56-.4-1.91-1.13Z"/>
        <path class="cls-2" d="M20.21,21.12c.3,.53,.78,.95,1.35,1.17-.66,.08-1.26-.38-1.34-1.04,0-.04,0-.09,0-.13Z"/>
        <path class="cls-2" d="M20.71,20.38c.48,.26,.86,.46,1.35,.7-.56,.1-1.11-.19-1.35-.7Z"/>
        <path class="cls-2" d="M21.13,19.2c.4,.31,.82,.58,1.26,.82-.57,.08-1.1-.27-1.26-.82Z"/>
        <path class="cls-2" d="M21.54,18.02c.44,.44,.95,.79,1.52,1.05-.69,.06-1.33-.38-1.52-1.05Z"/>
        <path class="cls-2" d="M21.83,16.76c.67,.44,1.28,.81,2,1.21-.82-.07-1.56-.52-2-1.21Z"/>
        <path class="cls-2" d="M22.3,15.53c.77,.52,1.58,.96,2.43,1.33-.97-.05-1.86-.54-2.43-1.33Z"/>
        <path class="cls-2" d="M22.86,14.31c.9,.62,1.9,1.09,2.95,1.4-1.15,.02-2.24-.5-2.95-1.4Z"/>
        <path class="cls-2" d="M23.37,13.22c.72,.39,1.48,.69,2.27,.89-.86,.13-1.73-.21-2.27-.89Z"/>
        <path class="cls-2" d="M23.94,11.9c.42,.25,.8,.52,1.22,.75s.82,.45,1.24,.7c-.49-.07-.95-.23-1.37-.49-.42-.25-.79-.57-1.09-.96Z"/>
        <path class="cls-2" d="M24.88,10.96c.5,.43,1.07,.77,1.68,1-.72,.09-1.42-.32-1.68-1Z"/>
        <path class="cls-2" d="M25.49,9.88c.68,.54,1.45,.95,2.28,1.21-.93,.07-1.82-.4-2.28-1.21Z"/>
        <path class="cls-2" d="M26.65,9.34c.38,.12,.75,.29,1.1,.5,.36,.2,.69,.43,1,.7-.4-.13-.78-.3-1.13-.52-.35-.19-.67-.42-.97-.68Z"/>
        <path class="cls-2" d="M28.02,8.3c.5,.74,1.26,1.26,2.12,1.47-.98,.12-1.89-.51-2.12-1.47Z"/>
        <path class="cls-2" d="M28.98,7.44c.46,.65,1.14,1.1,1.91,1.27-.87,.16-1.72-.4-1.91-1.27Z"/>
        <path class="cls-2" d="M29.73,6.68c.38,.17,.76,.36,1.12,.58,.35,.21,.68,.44,1,.7-.41-.11-.81-.27-1.17-.49-.35-.22-.67-.49-.95-.79Z"/>
        <path class="cls-2" d="M31.31,5.7c.38,.68,1.01,1.19,1.75,1.43-.88,.08-1.66-.56-1.75-1.43Z"/>
        <path class="cls-2" d="M32.21,5.02c.72,.53,1.55,.89,2.43,1.06-.95,.16-1.9-.25-2.43-1.06Z"/>
        <path class="cls-2" d="M33.59,4.32c.68,.53,1.46,.9,2.3,1.09-.92,.14-1.83-.29-2.3-1.09Z"/>
        <path class="cls-2" d="M34.8,3.19c.2,.37,.51,.66,.89,.83,.39,.18,.8,.33,1.21,.47-.45,.03-.91-.05-1.32-.24-.2-.12-.39-.26-.54-.44-.14-.18-.22-.39-.24-.62Z"/>
        <path class="cls-2" d="M36.31,2.52c0,.29,.24,.45,.45,.58l.73,.35c.48,.24,1,.44,1.48,.69-.55-.07-1.09-.22-1.59-.47-.25-.12-.49-.26-.72-.41-.17-.16-.47-.45-.35-.74Z"/>
        <path class="cls-2" d="M23.99,27.43c.99,.37,2.05,.52,3.1,.45,.52-.05,1.02-.21,1.47-.46,.47-.23,.87-.58,1.17-1-.23,.5-.6,.91-1.07,1.2-.47,.29-1,.47-1.55,.53-1.09,.08-2.18-.17-3.12-.72Z"/>
        <path class="cls-2" d="M36.49,72.02c-.9,.16-1.82,.16-2.72,0-.92-.14-1.77-.58-2.43-1.23-1.28-1.47-1.66-3.51-1-5.34,.72-1.8,1.95-3.34,3.55-4.43,1.52-1.09,3.11-2.05,4.78-2.89,.55-.31,1.2-.4,1.82-.26,.55,.2,1.03,.55,1.4,1,.63,.68,1.23,1.4,1.79,2.15,.57,.76,1.06,1.58,1.45,2.44,.46,.89,.64,1.9,.51,2.9-.1,.51-.34,.99-.69,1.37-.33,.33-.66,.66-1,1-.7,.59-1.46,1.12-2.27,1.56-1.61,.89-3.37,1.48-5.19,1.73Zm0,0c1.78-.28,3.49-.93,5-1.92,.75-.5,1.44-1.08,2.06-1.73,.31-.32,.6-.65,.87-1,.24-.31,.38-.69,.41-1.08,.02-.82-.22-1.64-.68-2.32-.45-.75-.97-1.45-1.54-2.11-.57-.68-1.19-1.31-1.82-1.95-.2-.26-.47-.47-.77-.59-.28-.04-.56,.02-.8,.16-.74,.37-1.56,.84-2.34,1.25-.77,.39-1.52,.82-2.25,1.29-1.51,.85-2.74,2.12-3.54,3.66-.79,1.59-.64,3.49,.4,4.94,.59,.68,1.4,1.14,2.29,1.31,.89,.19,1.81,.22,2.71,.09Z"/>
        <path class="cls-2" d="M45.49,59.62c-.48-.67-.88-1.4-1.19-2.16-.32-.77-.43-1.61-.32-2.44,.41-1.61,1.08-3.14,2-4.53,.81-1.43,1.57-2.9,2.39-4.34,.8-1.49,1.88-2.81,3.19-3.89,1.34-1.01,2.78-1.89,4.29-2.63,1.49-.76,3.02-1.43,4.59-2,1.58-.57,3.19-1.04,4.83-1.42,.5-.13,1.01-.15,1.52-.06,.55,.12,1.04,.4,1.43,.81,.6,.69,1.07,1.49,1.38,2.36,.36,.81,.63,1.67,.78,2.55,.13,.95,0,1.92-.41,2.8-.36,.83-.78,1.5-1.16,2.24l-1.18,2.18c-.8,1.45-1.59,2.89-2.42,4.33-.79,1.53-1.93,2.85-3.32,3.86-2.81,1.87-5.83,3.18-8.74,4.74-.73,.39-1.45,.79-2.16,1.2-.71,.48-1.62,.56-2.4,.19-.72-.41-1.33-.99-1.78-1.69-.5-.7-.92-1.4-1.32-2.1Zm0,0c.46,.69,.89,1.4,1.38,2.06,.45,.69,1.06,1.26,1.78,1.66,.75,.34,1.63,.25,2.3-.24,.7-.44,1.41-.87,2.13-1.28,2.82-1.69,5.79-3.23,8.39-5.16,1.23-1.01,2.21-2.29,2.86-3.75l2.16-4.44c.71-1.46,1.52-3,2.16-4.38,.28-.63,.38-1.32,.28-2-.15-.75-.38-1.48-.7-2.17-.22-.69-.56-1.34-1-1.91-.41-.45-1.05-.59-1.61-.36-1.59,.32-3.16,.73-4.7,1.22-1.56,.49-3.08,1.07-4.57,1.73-1.49,.63-2.93,1.4-4.28,2.3-1.3,.95-2.4,2.16-3.24,3.54-.89,1.38-1.75,2.79-2.61,4.2-.98,1.32-1.72,2.8-2.18,4.38-.14,.81-.06,1.65,.24,2.42,.31,.77,.72,1.51,1.21,2.18Z"/>
        <path class="cls-2" d="M40.06,59.52c.27,.98,.67,1.92,1.18,2.8-.8-.71-1.23-1.74-1.18-2.8Z"/>
        <path class="cls-2" d="M38.75,59.66c.3,.94,.71,1.84,1.22,2.69-.79-.67-1.24-1.66-1.22-2.69Z"/>
        <path class="cls-2" d="M37.49,60.16c.13,.75,.36,1.47,.69,2.16-.63-.53-.89-1.37-.69-2.16Z"/>
        <path class="cls-2" d="M35.82,60.7c.18,.35,.31,.69,.49,1s.34,.65,.5,1c-.31-.23-.56-.54-.73-.89-.17-.35-.26-.72-.26-1.11Z"/>
        <path class="cls-2" d="M34.72,61.47c.18,.51,.41,1,.69,1.46-.55-.26-.84-.87-.69-1.46Z"/>
        <path class="cls-2" d="M33.86,62.31c.26,.64,.5,1.18,.79,1.8-.57-.41-.87-1.1-.79-1.8Z"/>
        <path class="cls-2" d="M32.78,63.02c.22,.94,.67,1.82,1.31,2.55-.9-.52-1.41-1.52-1.31-2.55Z"/>
        <path class="cls-2" d="M31.83,64.3c.21,.33,.36,.68,.56,1s.37,.66,.53,1c-.32-.24-.57-.55-.75-.91-.19-.34-.3-.71-.34-1.09Z"/>
        <path class="cls-2" d="M31.26,65.63c-.13,.18,0,.37,.05,.53s.2,.34,.31,.5c.19,.34,.42,.66,.62,1-.34-.24-.62-.54-.84-.89-.1-.18-.19-.37-.27-.56-.06-.19-.08-.46,.13-.58Z"/>
        <path class="cls-2" d="M30.69,67.16c.11,.75,.38,1.47,.8,2.1-.7-.45-1.03-1.3-.8-2.1Z"/>
        <path class="cls-2" d="M43.91,54.31c.34,.71,.83,1.34,1.44,1.83-.82-.24-1.4-.97-1.44-1.83Z"/>
        <path class="cls-2" d="M44.49,53.57c.31,.29,.56,.59,.85,.85s.58,.53,.87,.83c-.8-.28-1.43-.89-1.72-1.68Z"/>
        <path class="cls-2" d="M45.15,52.47c.45,.59,.98,1.11,1.58,1.55-.79-.15-1.41-.76-1.58-1.55Z"/>
        <path class="cls-2" d="M45.81,51.09c.16,.59,.51,1.1,1,1.46-.66-.09-1.11-.7-1.02-1.36,0-.03,.01-.07,.02-.1Z"/>
        <path class="cls-2" d="M46.49,50.49c.4,.38,.72,.66,1.14,1-.57-.03-1.04-.44-1.14-1Z"/>
        <path class="cls-2" d="M47.16,49.46c.31,.39,.64,.76,1,1.11-.55-.08-.97-.55-1-1.11Z"/>
        <path class="cls-2" d="M47.85,48.42c.32,.53,.73,1.01,1.22,1.39-.69-.11-1.2-.69-1.22-1.39Z"/>
        <path class="cls-2" d="M48.43,47.25c.54,.58,1.05,1.1,1.63,1.65-.77-.27-1.37-.88-1.63-1.65Z"/>
        <path class="cls-2" d="M49.19,46.17c.61,.69,1.28,1.32,2,1.88-.92-.29-1.65-.98-2-1.88Z"/>
        <path class="cls-2" d="M50.02,45.12c.73,.81,1.58,1.51,2.52,2.06-1.12-.25-2.05-1.02-2.52-2.06Z"/>
        <path class="cls-2" d="M50.78,44.18c.6,.56,1.27,1.03,2,1.41-.87-.07-1.64-.61-2-1.41Z"/>
        <path class="cls-2" d="M51.64,43.02c.35,.34,.66,.69,1,1s.69,.64,1,1c-.45-.18-.87-.45-1.21-.8-.34-.34-.61-.75-.79-1.2Z"/>
        <path class="cls-2" d="M52.78,42.35c.38,.53,.85,.99,1.39,1.37-.72-.09-1.29-.65-1.39-1.37Z"/>
        <path class="cls-2" d="M53.68,41.46c.52,.69,1.18,1.28,1.92,1.72-.92-.16-1.66-.83-1.92-1.72Z"/>
        <path class="cls-2" d="M54.89,41.21c.36,.21,.7,.45,1,.74,.29,.28,.55,.59,.77,.92-.34-.21-.66-.46-.95-.74-.3-.28-.58-.59-.82-.92Z"/>
        <path class="cls-2" d="M56.49,40.52c.31,.84,.92,1.53,1.71,1.93-.98-.11-1.72-.94-1.71-1.93Z"/>
        <path class="cls-2" d="M57.6,39.92c.3,.73,.85,1.33,1.56,1.69-.88-.06-1.57-.8-1.56-1.69Z"/>
        <path class="cls-2" d="M58.49,39.36c.33,.26,.65,.53,.94,.83,.3,.29,.58,.6,.84,.93-.37-.2-.7-.46-1-.76-.31-.29-.57-.63-.78-1Z"/>
        <path class="cls-2" d="M60.28,38.78c.21,.76,.69,1.4,1.36,1.81-.87-.13-1.48-.94-1.36-1.81Z"/>
        <path class="cls-2" d="M61.32,38.36c.57,.71,1.29,1.28,2.11,1.66-.98-.07-1.82-.72-2.11-1.66Z"/>
        <path class="cls-2" d="M62.83,38.02c.54,.68,1.22,1.23,2,1.62-.94-.08-1.73-.72-2-1.62Z"/>
        <path class="cls-2" d="M64.28,37.19c.11,.4,.34,.75,.66,1,.31,.28,.7,.47,1,.74-.44-.08-.86-.27-1.21-.55-.18-.15-.32-.35-.42-.56-.08-.2-.09-.42-.03-.63Z"/>
        <path class="cls-2" d="M65.9,36.9c-.08,.28,.13,.49,.3,.67s.41,.35,.63,.51c.41,.35,.84,.66,1.26,1-.51-.2-.99-.49-1.42-.84-.21-.17-.41-.36-.6-.57-.18-.18-.35-.52-.17-.77Z"/>
        <path class="cls-2" d="M34.6,70.61c1.88-.06,3.73-.44,5.49-1.1-1.65,.99-3.59,1.37-5.49,1.1Z"/>
        <path class="cls-2" d="M67.01,40.37c.3,.52,.46,1.1,.46,1.7,0,.6-.08,1.19-.24,1.77-.33,1.14-.82,2.19-1.13,3.33,.2-1.16,.5-2.29,.89-3.4,.16-.55,.26-1.12,.29-1.7,.03-.58-.06-1.16-.27-1.7Z"/>
      </g>
    </g>
  </g>
</svg>