<?xml version="1.0" encoding="utf-8"?>
<!-- Generator: Adobe Illustrator 27.0.0, SVG Export Plug-In . SVG Version: 6.00 Build 0)  -->
<svg version="1.1" id="_Слой_2" xmlns="http://www.w3.org/2000/svg" xmlns:xlink="http://www.w3.org/1999/xlink" x="0px"
	 y="0px" viewBox="0 0 70.9 118.2" style="enable-background:new 0 0 70.9 118.2;" xml:space="preserve">
<style type="text/css">
	.st0{fill:none;stroke:#000000;stroke-width:0.5;stroke-miterlimit:10;}
	.st1{stroke:#000000;stroke-width:0.25;stroke-miterlimit:10;}
	.st2{fill:#9B8870;stroke:#000000;stroke-width:0.5;stroke-miterlimit:10;}
</style>
<g id="_Слой_1-2">
	<g id="_Слой_2-2">
		<g id="Objects">
			<path class="st0" d="M19.9,89.1l0.4-0.9"/>
			<path class="st0" d="M21,86.3c3.1-8.3,3.4-17.4,1.1-26"/>
			<path class="st0" d="M21.8,59.4c-0.1-0.3-0.2-0.6-0.3-1"/>
			<path class="st0" d="M27.7,62.1c-0.3,0-0.7-0.1-1-0.2"/>
			<path class="st0" d="M25,61.3c-0.3-0.2-0.5-0.3-0.8-0.5c-0.5-0.4-1-0.8-1.4-1.2"/>
			<path class="st0" d="M22.2,58.9c-0.2-0.3-0.4-0.5-0.6-0.8c-0.1,0.3-0.1,0.7-0.2,1"/>
			<path class="st0" d="M20.9,61c-0.2,0.9-0.6,1.8-1.1,2.7"/>
			<path class="st0" d="M19.2,64.4c-0.2,0.2-0.4,0.5-0.7,0.7"/>
			<path class="st0" d="M21.9,48.3l1-0.2"/>
			<path class="st0" d="M24.8,47.5c8.5-2.7,15.9-8,21.2-15.1"/>
			<path class="st0" d="M46.5,31.6c0.2-0.3,0.4-0.6,0.5-0.8"/>
			<path class="st0" d="M47.9,37.8c-0.2-0.3-0.3-0.6-0.5-0.9"/>
			<path class="st0" d="M46.9,35.2c0-0.3-0.1-0.6-0.1-0.9c0-0.6,0-1.2,0.1-1.8"/>
			<path class="st0" d="M47.1,31.5c0.1-0.3,0.1-0.7,0.2-1c-0.3,0.2-0.6,0.3-0.9,0.5"/>
			<path class="st0" d="M44.7,31.8c-0.9,0.4-1.8,0.6-2.8,0.8"/>
			<path class="st0" d="M41,32.6c-0.3,0-0.7,0-1-0.1"/>
			<path class="st1" d="M36.7,96c0.6-2.2,0.8-4.4,0.5-6.6c-0.1-1.1-0.5-2.1-1.2-3c-0.3-0.4-0.8-0.7-1.3-0.7c-0.5-0.1-1-0.1-1.5,0
				c-2.1,0.5-4,1.7-5.4,3.3c-1.6,1.5-2.8,3.2-3.7,5.2c-0.5,0.9-0.8,2-0.9,3c-0.1,0.4-0.1,0.8,0,1.1c0,0.1,0.5,0.2,1,0.3
				c1.1,0,2.3,0.1,3.4,0.2c0.3,0.1,0.6,0.2,0.9,0.3c0.3,0.2,0.6,0.4,0.8,0.6c0.4,0.5,0.7,1,0.9,1.5c0.2,0.5,0.5,1,0.7,1.5
				c0.2,0.4,0.6,0.8,1,1c0.5,0.1,1,0,1.4-0.2c0.5-0.3,0.9-0.7,1.2-1.1C35.6,100.4,36.4,98.2,36.7,96z M36.7,96
				c-0.2,1.1-0.4,2.2-0.7,3.3c-0.3,1.1-0.7,2.2-1.2,3.2c-0.3,0.5-0.7,0.9-1.1,1.3c-0.5,0.4-1.1,0.6-1.7,0.4c-0.6-0.2-1-0.6-1.4-1.2
				c-0.3-0.5-0.6-1-0.9-1.5c-0.2-0.5-0.5-0.9-0.9-1.3c-0.2-0.2-0.3-0.3-0.5-0.4s-0.5-0.2-0.7-0.2c-1-0.2-2.1,0.1-3.3,0.1
				c-0.3,0-0.6,0-0.9-0.1c-0.4-0.1-0.8-0.3-1.1-0.6c-0.3-0.3-0.4-0.8-0.4-1.2c0-0.3,0-0.7,0-1c0.1-1.2,0.5-2.3,1-3.4
				c1-2.1,2.4-4,4.2-5.5c1.7-1.7,3.8-2.7,6.2-3.1c0.6-0.1,1.2,0,1.8,0.2c0.3,0.1,0.6,0.2,0.8,0.4c0.3,0.2,0.5,0.4,0.7,0.7
				c0.6,1,0.9,2.1,1,3.3C37.6,91.6,37.3,93.9,36.7,96z"/>
			<path class="st1" d="M22.8,115.6c0.7-0.7,1.3-1.5,1.8-2.4c0.2-0.4,0.4-0.9,0.4-1.4c0.1-0.6-0.1-0.6-0.6-0.7
				c-1-0.1-2.1-0.4-3.1-0.8c-0.5-0.2-0.9-0.3-1.4-0.4c-0.2-0.1-0.4-0.1-0.6-0.1c-0.1,0-0.1,0,0,0c0.2,0,0.1-0.1,0.1,0
				c-0.8,1.7-1.1,3.6-0.9,5.5c0,0.5,0.2,0.9,0.4,1.3c0.3,0.3,0.8,0.5,1.3,0.5C21.2,116.9,22.2,116.4,22.8,115.6L22.8,115.6z
				 M22.8,115.6c-0.7,0.8-1.6,1.4-2.6,1.6c-0.5,0.1-1.1,0-1.6-0.3c-0.4-0.4-0.7-0.9-0.9-1.4c-0.7-2.1-0.5-4.4,0.4-6.4
				c0.1-0.2,0.3-0.4,0.6-0.6c0.2-0.1,0.5-0.2,0.7-0.1c0.3,0,0.6,0.1,0.9,0.2c0.5,0.2,1,0.4,1.5,0.6c0.9,0.5,1.8,0.9,2.7,1.2
				c0.3,0.1,0.6,0.2,0.8,0.5c0.1,0.2,0.1,0.3,0.1,0.5s0,0.3-0.1,0.4c-0.1,0.5-0.4,1-0.7,1.4C24.2,114.1,23.5,114.8,22.8,115.6z"/>
			<path class="st2" d="M25.2,111.6c-0.7,0.1-1.5,0.1-2.2,0s-1.4-0.4-2.1-0.8c0.7,0.2,1.4,0.4,2.1,0.5
				C23.8,111.5,24.5,111.5,25.2,111.6z"/>
			<path class="st2" d="M24.7,112.6c-0.5,0.1-1.1,0.1-1.6,0s-1.1-0.2-1.6-0.4c0.5,0,1.1,0.1,1.6,0.1S24.2,112.5,24.7,112.6z"/>
			<path class="st2" d="M24.1,113.6c-0.4,0.1-0.9,0.1-1.3,0s-0.9-0.2-1.2-0.5c0.4,0.1,0.9,0.2,1.3,0.2S23.6,113.6,24.1,113.6z"/>
			<path class="st2" d="M23.5,114.5c-0.4,0.1-0.8,0-1.1-0.1c-0.4-0.1-0.7-0.3-1-0.5c0.4,0.1,0.7,0.2,1.1,0.2S23.1,114.4,23.5,114.5z
				"/>
			<path class="st2" d="M22.9,115.3c-0.4,0.1-0.8,0.1-1.2,0c-0.4-0.1-0.8-0.2-1.2-0.4c0.4,0,0.8,0.1,1.2,0.1S22.5,115.2,22.9,115.3z
				"/>
			<path class="st2" d="M22.2,116c-0.3,0.1-0.7,0.1-1,0.1c-0.4,0-0.7-0.1-1-0.3c0.3,0,0.7,0,1,0C21.5,115.8,21.9,115.9,22.2,116z"/>
			<path class="st2" d="M21.4,116.8c-0.3,0.1-0.7,0.1-1,0.1c-0.4,0-0.7-0.2-1-0.3c0.4,0,0.7,0.1,1,0.1S21,116.7,21.4,116.8z"/>
			<path class="st2" d="M36.6,87.4c-0.5-0.4-1.1-0.8-1.8-1C35.6,86.3,36.3,86.7,36.6,87.4z"/>
			<path class="st2" d="M37.2,88.7c-0.5-0.6-1.2-1-2-1.1C36,87.4,36.9,87.9,37.2,88.7z"/>
			<path class="st2" d="M37.4,89.7c-0.4-0.2-0.8-0.4-1.2-0.6s-0.8-0.3-1.2-0.6c0.5,0,0.9,0.1,1.3,0.3C36.7,89.1,37.1,89.4,37.4,89.7
				z"/>
			<path class="st2" d="M37.5,90.8c-0.5-0.2-0.9-0.4-1.4-0.6s-0.9-0.4-1.3-0.6c0.5,0.1,1,0.2,1.4,0.4C36.7,90.2,37.1,90.5,37.5,90.8
				z"/>
			<path class="st2" d="M37.4,91.8c-0.5-0.3-1-0.6-1.5-0.8C36.5,90.9,37.1,91.3,37.4,91.8z"/>
			<path class="st2" d="M37.2,92.8c-0.3-0.1-0.7-0.2-1-0.3s-0.6-0.2-1-0.3C36,92,36.7,92.2,37.2,92.8z"/>
			<path class="st2" d="M37,93.9c-0.6-0.2-1.3-0.4-1.9-0.6C35.8,93.1,36.5,93.4,37,93.9z"/>
			<path class="st2" d="M36.8,95.2c-0.3-0.1-0.7-0.2-1-0.3c-0.3-0.1-0.6-0.3-0.9-0.5c0.3,0.1,0.7,0.2,1,0.3
				C36.2,94.8,36.5,95,36.8,95.2z"/>
			<path class="st2" d="M36.5,96.5c-0.1-0.2-0.2-0.2-0.4-0.3L35.6,96c-0.3-0.2-0.7-0.3-1-0.5c0.4,0,0.7,0.1,1.1,0.2
				c0.2,0.1,0.3,0.2,0.5,0.3S36.5,96.3,36.5,96.5z"/>
			<path class="st2" d="M36.2,97.7c-0.4-0.3-0.8-0.6-1.3-0.7C35.5,96.8,36.1,97.1,36.2,97.7z"/>
			<path class="st2" d="M35.8,98.6c-0.3-0.1-0.6-0.2-0.9-0.3s-0.6-0.2-0.9-0.4c0.3,0,0.7,0,1,0.1C35.3,98.2,35.6,98.3,35.8,98.6z"/>
			<path class="st2" d="M35.8,99.9c-0.7-0.3-1.3-0.6-2.1-0.9C34.6,98.9,35.3,99.3,35.8,99.9z"/>
			<path class="st2" d="M35.5,100.8c-0.3,0-0.6-0.1-0.8-0.2s-0.5-0.1-0.8-0.2c0.3-0.1,0.6-0.1,0.9,0C35,100.4,35.3,100.6,35.5,100.8
				z"/>
			<path class="st2" d="M34.8,101.7c-0.5-0.2-1-0.3-1.5-0.4C33.9,101,34.5,101.2,34.8,101.7z"/>
			<path class="st2" d="M34.2,102.8c-0.5-0.3-1-0.5-1.5-0.7C33.4,102,34,102.3,34.2,102.8z"/>
			<path class="st2" d="M33.5,103.4c-0.2-0.1-0.5-0.1-0.7-0.2s-0.4-0.2-0.6-0.3c0.2,0,0.5,0,0.7,0.1
				C33.2,103.1,33.4,103.2,33.5,103.4z"/>
			<path class="st1" d="M2.2,61c0.6-2.2,1.5-4.2,2.7-6.2c0.6-1,1.5-1.8,2.5-2.4c0.3-0.1,0.6-0.2,0.9-0.2s0.6,0,0.9,0.1
				c0.6,0.1,1.1,0.4,1.6,0.8c1.9,1.5,3.2,3.5,3.8,5.7c0.8,2.2,1.1,4.5,0.9,6.9c-0.1,1.2-0.4,2.3-0.9,3.4c-0.1,0.3-0.3,0.6-0.4,0.9
				c-0.2,0.4-0.6,0.7-0.9,0.8c-0.4,0.2-0.9,0.2-1.3,0c-0.3-0.1-0.6-0.2-0.9-0.4c-1.1-0.6-1.9-1.3-2.8-1.7c-0.2-0.1-0.5-0.2-0.7-0.2
				s-0.4,0-0.7,0.1c-0.5,0.2-1,0.4-1.4,0.6C5,69.5,4.5,69.8,4,70c-0.5,0.3-1.2,0.4-1.8,0.3c-0.6-0.2-1.1-0.7-1.3-1.2
				S0.6,68,0.6,67.4c0-1.1,0.2-2.2,0.5-3.3C1.5,63.1,1.9,62,2.2,61L2.2,61z M2.2,61c-0.8,2-1.2,4.2-1.3,6.5c0,0.5,0.2,1.1,0.4,1.6
				C1.5,69.5,2,69.8,2.4,70c0.5,0,1-0.1,1.4-0.4c0.5-0.3,0.9-0.6,1.4-0.9c0.5-0.4,1-0.7,1.5-0.9c0.3-0.1,0.7-0.2,1-0.2
				c0.3,0,0.6,0.1,1,0.2c1.1,0.4,2.1,0.9,3.1,1.5c0.4,0.2,1,0.4,1,0.3c0.3-0.3,0.5-0.6,0.6-1c0.4-1,0.6-2,0.7-3
				c0.2-2.1-0.1-4.3-0.7-6.3c-0.4-2.1-1.5-4-3.1-5.5C10,53.3,9.5,53.1,9,52.9c-0.4-0.2-0.9-0.2-1.4,0c-1,0.5-1.8,1.2-2.5,2
				C3.8,56.7,2.8,58.8,2.2,61z"/>
			<path class="st1" d="M4.6,84.9c-0.3-1-0.4-2-0.5-3c0-0.5,0-1.1,0.1-1.6c0-0.1,0.1-0.3,0.1-0.4c0.1-0.2,0.2-0.3,0.4-0.4
				c0.3-0.1,0.7-0.1,1,0c1,0.2,2,0.3,3,0.3c0.5,0,1.1,0.1,1.6,0.2c0.3,0.1,0.6,0.2,0.9,0.3c0.2,0.1,0.4,0.3,0.6,0.5
				C12,81,12,81.3,12,81.6c-0.2,2.2-1.2,4.2-2.9,5.7c-0.4,0.4-1,0.7-1.5,0.8c-0.6,0-1.1-0.2-1.6-0.6C5.3,86.8,4.8,85.9,4.6,84.9
				L4.6,84.9z M4.6,84.9c0.2,1,0.7,1.9,1.6,2.5c0.4,0.3,0.9,0.4,1.3,0.2c0.4-0.2,0.8-0.5,1-0.9c1.1-1.6,1.7-3.4,1.9-5.3
				c0-0.1,0,0,0,0.1s0,0,0,0c-0.2-0.1-0.4-0.2-0.6-0.2c-0.4-0.1-0.9-0.2-1.4-0.3c-1-0.1-2-0.4-3-0.8c-0.5-0.2-0.6-0.3-0.8,0.3
				c-0.2,0.4-0.3,0.9-0.3,1.4C4.2,82.9,4.3,83.9,4.6,84.9z"/>
			<path class="st2" d="M11.1,81.8C10.4,82,9.7,82,8.9,81.9c-0.7-0.1-1.5-0.3-2.1-0.7c0.7,0.2,1.4,0.3,2.1,0.4S10.4,81.8,11.1,81.8z
				"/>
			<path class="st2" d="M10.7,82.8C9.6,83,8.5,83,7.4,82.6H9C9.6,82.6,10.1,82.8,10.7,82.8z"/>
			<path class="st2" d="M10.1,83.9C9.7,84,9.2,84.1,8.8,84c-0.4,0-0.8-0.2-1.2-0.4c0.4,0,0.9,0.1,1.3,0.2
				C9.3,83.8,9.7,83.8,10.1,83.9z"/>
			<path class="st2" d="M9.6,84.8c-0.4,0.1-0.8,0.1-1.1,0c-0.4-0.1-0.7-0.2-1.1-0.4c0.4,0,0.8,0.1,1.1,0.2S9.2,84.7,9.6,84.8z"/>
			<path class="st2" d="M9.3,85.6c-0.8,0.2-1.7,0.2-2.5-0.2c0.4,0,0.8,0,1.2,0.1S8.9,85.6,9.3,85.6z"/>
			<path class="st2" d="M8.7,86.5c-0.3,0.1-0.7,0.2-1,0.1c-0.3,0-0.7-0.1-1-0.2c0.3,0,0.7,0,1,0S8.4,86.4,8.7,86.5z"/>
			<path class="st2" d="M8.1,87.3c-0.3,0.1-0.7,0.2-1,0.2s-0.7-0.1-1-0.3h1C7.4,87.2,7.7,87.2,8.1,87.3z"/>
			<path class="st2" d="M10,53.2C9.3,53,8.7,52.9,8,53C8.6,52.6,9.4,52.7,10,53.2z"/>
			<path class="st2" d="M11,54.2c-0.7-0.3-1.5-0.4-2.3-0.2C9.4,53.4,10.4,53.5,11,54.2z"/>
			<path class="st2" d="M11.6,55.1c-0.5,0-0.9-0.1-1.3-0.1S9.4,55,9,55C9.8,54.7,10.8,54.7,11.6,55.1L11.6,55.1z"/>
			<path class="st2" d="M12.5,56H11c-0.5,0-1,0-1.5-0.1c0.5-0.1,1-0.2,1.5-0.2S12,55.8,12.5,56z"/>
			<path class="st2" d="M12.7,57.1C12.2,57,11.6,57,11,57C11.5,56.7,12.2,56.7,12.7,57.1z"/>
			<path class="st2" d="M13.2,58.1c-0.4,0-0.7,0-1,0.1s-0.7,0.1-1,0.1c0.3-0.2,0.6-0.3,1-0.3C12.6,57.9,12.9,57.9,13.2,58.1z"/>
			<path class="st2" d="M13.5,59.2c-0.7,0-1.3,0.1-2,0.2C12.1,59,12.9,58.9,13.5,59.2z"/>
			<path class="st2" d="M13.7,60.4c-0.7,0.2-1.4,0.2-2.1,0C12.3,60.2,13,60.2,13.7,60.4z"/>
			<path class="st2" d="M14,61.7c-0.1-0.1-0.3-0.1-0.5-0.1h-1.6c0.3-0.1,0.7-0.2,1.1-0.2c0.2,0,0.4,0,0.6,0
				C13.7,61.4,13.9,61.5,14,61.7z"/>
			<path class="st2" d="M14,62.8c-0.5-0.1-1-0.2-1.5-0.2C13,62.3,13.7,62.4,14,62.8z"/>
			<path class="st2" d="M14.2,63.8h-1.9c0.3-0.2,0.6-0.2,0.9-0.2C13.6,63.6,13.9,63.7,14.2,63.8z"/>
			<path class="st2" d="M14,65h-2.2C12.5,64.7,13.3,64.7,14,65z"/>
			<path class="st2" d="M14.1,66c-0.3,0.1-0.6,0.1-0.9,0.1s-0.6,0.1-0.9,0.1c0.2-0.2,0.5-0.3,0.8-0.3C13.5,65.9,13.8,65.9,14.1,66z"
				/>
			<path class="st2" d="M13.8,67.1c-0.5,0-1,0.1-1.5,0.2C12.7,66.9,13.3,66.8,13.8,67.1z"/>
			<path class="st2" d="M13.7,68.4c-0.5-0.1-1.1-0.1-1.6-0.1C12.6,67.9,13.3,67.9,13.7,68.4z"/>
			<path class="st2" d="M13.3,69.2c-0.2,0.1-0.5,0.1-0.7,0.1s-0.5,0-0.7,0c0.2-0.1,0.5-0.2,0.7-0.2C12.8,69,13.1,69.1,13.3,69.2z"/>
			<path class="st2" d="M0.6,61.2c0.5-3.3,2-6.3,4.3-8.6C2.9,55.1,1.4,58.1,0.6,61.2z"/>
			<path class="st2" d="M35,104.8c0.8-0.9,1.5-1.9,1.8-3.1c0.4-1.1,0.8-2.3,1.1-3.5s0.5-2.4,0.8-3.6s0.4-2.4,0.5-3.6
				c-0.1,2.4-0.4,4.8-1,7.2c-0.3,1.2-0.7,2.3-1.1,3.5C36.6,102.9,35.9,104,35,104.8z"/>
			<path class="st2" d="M21.8,11.7c-0.8,1.9-1.5,3.9-2.3,5.9c-0.4,1-0.7,2-1.1,3s-0.7,2-0.9,3c0.4-2,1-4.1,1.8-6
				C20.1,15.6,20.9,13.6,21.8,11.7z"/>
			<path class="st2" d="M69.2,49c-0.5,1.1-1,2.2-1.6,3.3s-1.2,2.1-1.9,3.1c-0.7,1-1.6,1.8-2.6,2.6c-1,0.7-2,1.5-3,2.2
				c0.9-0.8,1.9-1.6,2.8-2.3c1-0.7,1.9-1.6,2.6-2.5c0.7-1,1.3-2,1.9-3.1S68.7,50.1,69.2,49z"/>
			<path class="st1" d="M13.3,38.1c0,0.9,0.2,1.8,0.5,2.7c0.3,0.8,0.9,1.6,1.6,2.1c1.6,0.8,3.5,0.7,5-0.4c1.4-1,2.5-2.5,3.1-4.1
				c0.4-0.8,0.7-1.6,1-2.5s0.6-1.7,0.9-2.5c0.1-0.3,0.1-0.5,0-0.8c-0.2-0.3-0.4-0.5-0.7-0.7c-0.7-0.5-1.5-1-2.2-1.5
				s-1.5-0.9-2.3-1.2c-0.8-0.3-1.6-0.4-2.4-0.3c-0.4,0.1-0.7,0.3-1,0.6c-0.3,0.3-0.6,0.7-0.9,1c-0.6,0.7-1,1.5-1.4,2.3
				C13.7,34.4,13.3,36.2,13.3,38.1z M13.3,38.1c0-1.8,0.3-3.6,0.9-5.4c0.3-0.9,0.7-1.7,1.2-2.5c0.2-0.4,0.5-0.8,0.8-1.2
				c0.3-0.4,0.8-0.7,1.2-0.9c1-0.3,2-0.3,3,0c0.9,0.3,1.8,0.6,2.6,1c0.8,0.4,1.6,0.9,2.4,1.4c0.5,0.3,0.9,0.7,1.2,1.2
				c0.2,0.6,0.3,1.2,0.1,1.8c-0.6,1.8-1.3,3.5-2.1,5.2c-0.9,1.7-2.2,3.2-3.9,4.2C19,44,17,44,15.3,43c-0.8-0.5-1.3-1.3-1.6-2.2
				C13.4,39.9,13.3,39,13.3,38.1z"/>
			<path class="st1" d="M23.7,28c0.7,0.4,1.5,0.6,2.3,0.8c0.8,0.2,1.6,0.1,2.4-0.1c1.5-0.7,2.9-1.6,4-2.8c1.2-1.1,2.5-2.1,3.7-3.2
				c1.2-1,2.3-2.3,3-3.8s1.2-3,1.6-4.6c0.4-1.6,0.8-3.2,1-4.8s0.4-3.2,0.5-4.8c0.1-0.6-0.1-1.2-0.6-1.5c-0.7-0.4-1.4-0.6-2.1-0.7
				c-0.7-0.2-1.5-0.3-2.3-0.3c-0.7,0-1.4,0.2-2,0.6c-1.3,0.8-2.7,1.9-4,2.8l-4,2.8c-1.3,0.9-2.5,2.1-3.2,3.4c-1.4,3-2.7,6-3.8,9.1
				c-0.3,0.8-0.6,1.5-0.9,2.3c-0.4,0.8-0.3,1.6,0.2,2.3c0.5,0.6,1.2,1.1,1.9,1.5C22.2,27.3,23,27.6,23.7,28z M23.7,28
				c-0.8-0.3-1.5-0.6-2.3-1c-0.8-0.3-1.4-0.8-2-1.5c-0.5-0.7-0.5-1.6-0.2-2.4s0.6-1.5,0.8-2.3c1.1-3.1,1.9-6.3,3.3-9.4
				c0.8-1.5,1.9-2.9,3.3-3.9c1.3-1,2.6-2.1,3.9-3.1l2-1.5c0.7-0.5,1.3-1,2-1.5c0.8-0.5,1.7-0.8,2.7-0.9c0.9,0,1.8,0.1,2.6,0.4
				c0.9,0.2,1.8,0.5,2.5,1c0.5,0.3,0.8,0.8,1,1.3s0.2,1,0.2,1.5c-0.1,1.7-0.3,3.3-0.6,5c-0.3,1.6-0.7,3.2-1.2,4.8s-1.1,3.2-1.9,4.7
				c-0.8,1.5-2,2.7-3.3,3.8c-1.3,1-2.6,2-3.9,3c-1.2,1.1-2.6,2-4.2,2.7c-0.8,0.3-1.6,0.3-2.5,0.1C25.3,28.6,24.5,28.3,23.7,28z"/>
			<path class="st2" d="M17.1,29.1c0.8,0.6,1.7,1.1,2.6,1.6C18.7,30.6,17.7,30,17.1,29.1z"/>
			<path class="st2" d="M16.2,30c0.8,0.6,1.7,1.1,2.6,1.5C17.7,31.4,16.8,30.8,16.2,30z"/>
			<path class="st2" d="M15.4,31.2c0.6,0.5,1.2,1,1.8,1.3C16.4,32.5,15.7,31.9,15.4,31.2z"/>
			<path class="st2" d="M14.4,32.6c0.4,0.2,0.6,0.4,1,0.5s0.6,0.3,1,0.5c-0.4,0-0.8-0.1-1.1-0.3C15,33.1,14.7,32.9,14.4,32.6z"/>
			<path class="st2" d="M14,33.8c0.4,0.3,0.9,0.6,1.4,0.8C14.8,34.7,14.2,34.4,14,33.8z"/>
			<path class="st2" d="M13.8,35c0.6,0.4,1.1,0.7,1.7,1C14.8,36,14.1,35.6,13.8,35z"/>
			<path class="st2" d="M13.3,36.2c0.7,0.6,1.6,1.1,2.6,1.3C14.9,37.6,13.9,37.1,13.3,36.2z"/>
			<path class="st2" d="M13.3,37.8c0.4,0.1,0.7,0.3,1,0.5s0.7,0.3,1,0.5C14.5,38.8,13.8,38.4,13.3,37.8L13.3,37.8L13.3,37.8z"/>
			<path class="st2" d="M13.7,39.2c0,0.2,0.2,0.3,0.4,0.4c0.2,0.1,0.4,0.2,0.6,0.2c0.4,0.2,0.7,0.3,1.1,0.5c-0.4,0-0.8-0.1-1.2-0.2
				c-0.2-0.1-0.4-0.2-0.6-0.3C13.7,39.7,13.6,39.5,13.7,39.2z"/>
			<path class="st2" d="M14.1,40.8c0.5,0.5,1.2,1,1.9,1.2C15.2,42.1,14.4,41.6,14.1,40.8z"/>
			<path class="st2" d="M19.2,24.3c0.5,0.6,1.1,1.1,1.8,1.4C20.2,25.6,19.5,25.1,19.2,24.3z"/>
			<path class="st2" d="M19.6,23.4c0.4,0.2,0.7,0.4,1,0.6s0.7,0.4,1,0.6C20.8,24.5,20,24.1,19.6,23.4z"/>
			<path class="st2" d="M20,22.2c0.6,0.5,1.2,0.8,1.9,1.1C21.1,23.3,20.3,22.9,20,22.2z"/>
			<path class="st2" d="M20.3,20.7c0.3,0.5,0.8,1,1.4,1.2c-0.7,0.1-1.3-0.4-1.3-1C20.3,20.8,20.3,20.7,20.3,20.7L20.3,20.7z"/>
			<path class="st2" d="M20.8,19.9c0.5,0.3,0.9,0.5,1.4,0.7C21.6,20.7,21,20.4,20.8,19.9z"/>
			<path class="st2" d="M21.2,18.8c0.4,0.3,0.8,0.6,1.3,0.8C21.9,19.7,21.4,19.3,21.2,18.8z"/>
			<path class="st2" d="M21.6,17.6c0.4,0.4,1,0.8,1.5,1C22.5,18.7,21.8,18.2,21.6,17.6z"/>
			<path class="st2" d="M21.9,16.3c0.7,0.4,1.3,0.8,2,1.2C23.1,17.5,22.4,17,21.9,16.3z"/>
			<path class="st2" d="M22.4,15.1c0.8,0.5,1.6,1,2.4,1.3C23.9,16.4,23,15.9,22.4,15.1z"/>
			<path class="st2" d="M23,13.9c0.9,0.6,1.9,1.1,3,1.4C24.8,15.3,23.7,14.8,23,13.9z"/>
			<path class="st2" d="M23.5,12.8c0.7,0.4,1.5,0.7,2.3,0.9C24.9,13.8,24,13.5,23.5,12.8z"/>
			<path class="st2" d="M24,11.5c0.4,0.2,0.8,0.5,1.2,0.8s0.8,0.4,1.2,0.7c-0.5-0.1-1-0.2-1.4-0.5C24.7,12.2,24.3,11.8,24,11.5z"/>
			<path class="st2" d="M25,10.5c0.5,0.4,1.1,0.8,1.7,1C25.9,11.6,25.2,11.2,25,10.5z"/>
			<path class="st2" d="M25.6,9.4c0.7,0.5,1.5,0.9,2.3,1.2C26.9,10.7,26,10.2,25.6,9.4z"/>
			<path class="st2" d="M26.7,8.9c0.4,0.1,0.8,0.3,1.1,0.5c0.4,0.2,0.7,0.4,1,0.7C28.4,10,28,9.8,27.7,9.6S27,9.2,26.7,8.9z"/>
			<path class="st2" d="M28.1,7.9c0.5,0.7,1.3,1.3,2.1,1.5C29.3,9.4,28.3,8.8,28.1,7.9z"/>
			<path class="st2" d="M29.1,7c0.5,0.7,1.1,1.1,1.9,1.3C30.1,8.4,29.3,7.9,29.1,7z"/>
			<path class="st2" d="M29.8,6.2c0.4,0.2,0.8,0.4,1.1,0.6c0.4,0.2,0.7,0.4,1,0.7c-0.4-0.1-0.8-0.3-1.2-0.5
				C30.4,6.8,30.1,6.5,29.8,6.2z"/>
			<path class="st2" d="M31.4,5.3c0.4,0.7,1,1.2,1.7,1.4C32.3,6.8,31.5,6.1,31.4,5.3z"/>
			<path class="st2" d="M32.3,4.6c0.7,0.5,1.5,0.9,2.4,1.1C33.8,5.8,32.8,5.4,32.3,4.6z"/>
			<path class="st2" d="M33.7,3.9C34.4,4.4,35.1,4.8,36,5C35.1,5.1,34.2,4.7,33.7,3.9z"/>
			<path class="st2" d="M34.9,2.7c0.2,0.4,0.5,0.7,0.9,0.8C36.2,3.8,36.6,3.9,37,4c-0.5,0-0.9,0-1.3-0.2c-0.2-0.1-0.4-0.3-0.5-0.4
				C35,3.2,34.9,3,34.9,2.7z"/>
			<path class="st2" d="M36.4,2.1c0,0.3,0.2,0.5,0.5,0.6L37.6,3c0.5,0.2,1,0.4,1.5,0.7c-0.5-0.1-1.1-0.2-1.6-0.5
				C37.2,3.1,37,3,36.8,2.8C36.6,2.7,36.3,2.4,36.4,2.1z"/>
			<path class="st2" d="M24.1,27c1,0.4,2,0.5,3.1,0.5c0.5,0,1-0.2,1.5-0.5c0.5-0.2,0.9-0.6,1.2-1c-0.2,0.5-0.6,0.9-1.1,1.2
				s-1,0.5-1.5,0.5C26.1,27.8,25,27.5,24.1,27z"/>
			<path class="st1" d="M36.6,71.6c-0.9,0.2-1.8,0.2-2.7,0c-0.9-0.1-1.8-0.6-2.4-1.2c-1.3-1.5-1.7-3.5-1-5.3
				c0.7-1.8,1.9-3.3,3.5-4.4c1.5-1.1,3.1-2,4.8-2.9c0.5-0.3,1.2-0.4,1.8-0.3c0.5,0.2,1,0.5,1.4,1c0.6,0.7,1.2,1.4,1.8,2.2
				s1.1,1.6,1.5,2.4c0.5,0.9,0.6,1.9,0.5,2.9c-0.1,0.5-0.3,1-0.7,1.4c-0.3,0.3-0.7,0.7-1,1c-0.7,0.6-1.5,1.1-2.3,1.6
				C40.2,70.7,38.4,71.3,36.6,71.6z M36.6,71.6c1.8-0.3,3.5-0.9,5-1.9c0.8-0.5,1.4-1.1,2.1-1.7c0.3-0.3,0.6-0.7,0.9-1
				c0.2-0.3,0.4-0.7,0.4-1.1c0-0.8-0.2-1.6-0.7-2.3c-0.5-0.8-1-1.5-1.5-2.1c-0.6-0.7-1.2-1.3-1.8-2c-0.2-0.3-0.5-0.5-0.8-0.6
				c-0.3,0-0.6,0-0.8,0.2c-0.7,0.4-1.6,0.8-2.3,1.2c-0.8,0.4-1.5,0.8-2.2,1.3c-1.5,0.8-2.7,2.1-3.5,3.7s-0.6,3.5,0.4,4.9
				c0.6,0.7,1.4,1.1,2.3,1.3C34.8,71.7,35.7,71.7,36.6,71.6z"/>
			<path class="st1" d="M45.6,59.2c-0.5-0.7-0.9-1.4-1.2-2.2s-0.4-1.6-0.3-2.4c0.4-1.6,1.1-3.1,2-4.5c0.8-1.4,1.6-2.9,2.4-4.3
				c0.8-1.5,1.9-2.8,3.2-3.9c1.3-1,2.8-1.9,4.3-2.6c1.5-0.8,3-1.4,4.6-2s3.2-1,4.8-1.4c0.5-0.1,1-0.2,1.5-0.1c0.6,0.1,1,0.4,1.4,0.8
				c0.6,0.7,1.1,1.5,1.4,2.4c0.4,0.8,0.6,1.7,0.8,2.5c0.1,1,0,1.9-0.4,2.8c-0.4,0.8-0.8,1.5-1.2,2.2l-1.2,2.2
				c-0.8,1.5-1.6,2.9-2.4,4.3c-0.8,1.5-1.9,2.8-3.3,3.9c-2.8,1.9-5.8,3.2-8.7,4.7c-0.7,0.4-1.5,0.8-2.2,1.2
				c-0.7,0.5-1.6,0.6-2.4,0.2c-0.7-0.4-1.3-1-1.8-1.7C46.4,60.6,46,59.9,45.6,59.2z M45.6,59.2c0.5,0.7,0.9,1.4,1.4,2.1
				c0.5,0.7,1.1,1.3,1.8,1.7c0.8,0.3,1.6,0.2,2.3-0.2s1.4-0.9,2.1-1.3c2.8-1.7,5.8-3.2,8.4-5.2c1.2-1,2.2-2.3,2.9-3.8l2.2-4.4
				c0.7-1.5,1.5-3,2.2-4.4c0.3-0.6,0.4-1.3,0.3-2c-0.2-0.8-0.4-1.5-0.7-2.2c-0.2-0.7-0.6-1.3-1-1.9c-0.4-0.5-1.1-0.6-1.6-0.4
				c-1.6,0.3-3.2,0.7-4.7,1.2c-1.6,0.5-3.1,1.1-4.6,1.7c-1.5,0.6-2.9,1.4-4.3,2.3c-1.3,1-2.4,2.2-3.2,3.5c-0.9,1.4-1.8,2.8-2.6,4.2
				c-1,1.3-1.7,2.8-2.2,4.4c-0.1,0.8-0.1,1.7,0.2,2.4C44.7,57.8,45.1,58.5,45.6,59.2z"/>
			<path class="st2" d="M40.2,59.1c0.3,1,0.7,1.9,1.2,2.8C40.5,61.2,40.1,60.1,40.2,59.1z"/>
			<path class="st2" d="M38.8,59.2c0.3,0.9,0.7,1.8,1.2,2.7C39.3,61.2,38.8,60.2,38.8,59.2z"/>
			<path class="st2" d="M37.6,59.7c0.1,0.8,0.4,1.5,0.7,2.2C37.6,61.3,37.4,60.5,37.6,59.7z"/>
			<path class="st2" d="M35.9,60.3c0.2,0.3,0.3,0.7,0.5,1s0.3,0.7,0.5,1c-0.3-0.2-0.6-0.5-0.7-0.9S35.9,60.6,35.9,60.3z"/>
			<path class="st2" d="M34.8,61c0.2,0.5,0.4,1,0.7,1.5C35,62.2,34.7,61.6,34.8,61z"/>
			<path class="st2" d="M34,61.9c0.3,0.6,0.5,1.2,0.8,1.8C34.2,63.3,33.9,62.6,34,61.9z"/>
			<path class="st2" d="M32.9,62.6c0.2,0.9,0.7,1.8,1.3,2.5C33.3,64.6,32.8,63.6,32.9,62.6z"/>
			<path class="st2" d="M31.9,63.9c0.2,0.3,0.4,0.7,0.6,1s0.4,0.7,0.5,1c-0.3-0.2-0.6-0.6-0.8-0.9C32.1,64.6,32,64.2,31.9,63.9z"/>
			<path class="st2" d="M31.4,65.2c-0.1,0.2,0,0.4,0,0.5s0.2,0.3,0.3,0.5c0.2,0.3,0.4,0.7,0.6,1c-0.3-0.2-0.6-0.5-0.8-0.9
				c-0.1-0.2-0.2-0.4-0.3-0.6C31.2,65.6,31.1,65.3,31.4,65.2z"/>
			<path class="st2" d="M30.8,66.7c0.1,0.8,0.4,1.5,0.8,2.1C30.9,68.4,30.6,67.5,30.8,66.7z"/>
			<path class="st2" d="M44,53.9c0.3,0.7,0.8,1.3,1.4,1.8C44.6,55.5,44,54.7,44,53.9z"/>
			<path class="st2" d="M44.6,53.1c0.3,0.3,0.6,0.6,0.8,0.8s0.6,0.5,0.9,0.8C45.5,54.5,44.9,53.9,44.6,53.1z"/>
			<path class="st2" d="M45.2,52c0.5,0.6,1,1.1,1.6,1.5C46,53.4,45.4,52.8,45.2,52z"/>
			<path class="st2" d="M45.9,50.6c0.2,0.6,0.5,1.1,1,1.5C46.2,52,45.8,51.4,45.9,50.6C45.9,50.7,45.9,50.7,45.9,50.6z"/>
			<path class="st2" d="M46.6,50c0.4,0.4,0.7,0.7,1.1,1C47.2,51,46.7,50.6,46.6,50z"/>
			<path class="st2" d="M47.3,49c0.3,0.4,0.6,0.8,1,1.1C47.7,50,47.3,49.6,47.3,49z"/>
			<path class="st2" d="M47.9,48c0.3,0.5,0.7,1,1.2,1.4C48.5,49.3,48,48.7,47.9,48z"/>
			<path class="st2" d="M48.5,46.8c0.5,0.6,1,1.1,1.6,1.7C49.4,48.2,48.8,47.6,48.5,46.8z"/>
			<path class="st2" d="M49.3,45.7c0.6,0.7,1.3,1.3,2,1.9C50.4,47.3,49.6,46.6,49.3,45.7z"/>
			<path class="st2" d="M50.1,44.7c0.7,0.8,1.6,1.5,2.5,2.1C51.5,46.5,50.6,45.7,50.1,44.7z"/>
			<path class="st2" d="M50.9,43.7c0.6,0.6,1.3,1,2,1.4C52,45.1,51.2,44.5,50.9,43.7z"/>
			<path class="st2" d="M51.7,42.6c0.3,0.3,0.7,0.7,1,1s0.7,0.6,1,1c-0.5-0.2-0.9-0.5-1.2-0.8C52.2,43.4,51.9,43,51.7,42.6z"/>
			<path class="st2" d="M52.9,41.9c0.4,0.5,0.8,1,1.4,1.4C53.5,43.2,53,42.6,52.9,41.9z"/>
			<path class="st2" d="M53.8,41c0.5,0.7,1.2,1.3,1.9,1.7C54.8,42.6,54,41.9,53.8,41z"/>
			<path class="st2" d="M55,40.8c0.4,0.2,0.7,0.5,1,0.7c0.3,0.3,0.5,0.6,0.8,0.9c-0.3-0.2-0.7-0.5-1-0.7
				C55.5,41.4,55.2,41.1,55,40.8z"/>
			<path class="st2" d="M56.6,40.1c0.3,0.8,0.9,1.5,1.7,1.9C57.3,41.9,56.6,41.1,56.6,40.1z"/>
			<path class="st2" d="M57.7,39.5c0.3,0.7,0.8,1.3,1.6,1.7C58.4,41.1,57.7,40.4,57.7,39.5z"/>
			<path class="st2" d="M58.6,38.9c0.3,0.3,0.7,0.5,0.9,0.8c0.3,0.3,0.6,0.6,0.8,0.9c-0.4-0.2-0.7-0.5-1-0.8
				C59.1,39.6,58.8,39.3,58.6,38.9z"/>
			<path class="st2" d="M60.4,38.3c0.2,0.8,0.7,1.4,1.4,1.8C60.9,40,60.3,39.2,60.4,38.3z"/>
			<path class="st2" d="M61.4,37.9c0.6,0.7,1.3,1.3,2.1,1.7C62.5,39.5,61.7,38.9,61.4,37.9z"/>
			<path class="st2" d="M62.9,37.6c0.5,0.7,1.2,1.2,2,1.6C64,39.1,63.2,38.5,62.9,37.6z"/>
			<path class="st2" d="M64.4,36.7c0.1,0.4,0.3,0.8,0.7,1c0.3,0.3,0.7,0.5,1,0.7c-0.4-0.1-0.9-0.3-1.2-0.5c-0.2-0.2-0.3-0.3-0.4-0.6
				C64.3,37.2,64.3,37,64.4,36.7z"/>
			<path class="st2" d="M66,36.5c-0.1,0.3,0.1,0.5,0.3,0.7s0.4,0.3,0.6,0.5c0.4,0.3,0.8,0.7,1.3,1c-0.5-0.2-1-0.5-1.4-0.8
				c-0.2-0.2-0.4-0.4-0.6-0.6C66,37,65.8,36.7,66,36.5z"/>
			<path class="st2" d="M34.7,70.2c1.9-0.1,3.7-0.4,5.5-1.1C38.5,70.1,36.6,70.4,34.7,70.2z"/>
			<path class="st2" d="M67.1,39.9c0.3,0.5,0.5,1.1,0.5,1.7c0,0.6-0.1,1.2-0.2,1.8c-0.3,1.1-0.8,2.2-1.1,3.3
				c0.2-1.2,0.5-2.3,0.9-3.4c0.2-0.5,0.3-1.1,0.3-1.7S67.3,40.5,67.1,39.9z"/>
		</g>
	</g>
</g>
</svg>
