<?xml version="1.0" encoding="UTF-8"?>
<svg id="_Слой_2" data-name="Слой 2" xmlns="http://www.w3.org/2000/svg" xmlns:xlink="http://www.w3.org/1999/xlink" viewBox="0 0 203.13 121.68">
  <defs>
    <style>
      .cls-1 {
        fill: url(#linear-gradient);
      }
    </style>
    <linearGradient id="linear-gradient" x1="42.7" y1="131.58" x2="172.39" y2="1.88" gradientTransform="translate(164.08 -27.79) rotate(87.78) scale(.79 1.05)" gradientUnits="userSpaceOnUse">
      <stop offset="0" stop-color="#c98847"/>
      <stop offset=".29" stop-color="#dab35b"/>
      <stop offset=".34" stop-color="#eac255"/>
      <stop offset=".39" stop-color="#f4cb52"/>
      <stop offset=".46" stop-color="#f8ce52"/>
      <stop offset=".48" stop-color="#f8cf56"/>
      <stop offset=".58" stop-color="#f8d86a"/>
      <stop offset=".68" stop-color="#f8dd76"/>
      <stop offset=".78" stop-color="#f9df7b"/>
      <stop offset=".94" stop-color="#c48d49"/>
    </linearGradient>
  </defs>
  <g id="OBJECTS">
    <path class="cls-1" d="M127.17,120.24l.29,.07,62.99-30.25,.24-.08,.02-.05,.07-.04,.02-.19,12.31-29.68-8.31-5.81,2.45-21.69-21.68-8.8-3.32-13.58-.11-.43-27.4,1.49L117.52,.15l-.19-.14-.1,.02-.07-.03-.24,.09L61.86,10.65l-10.33,5.63-31.43,1.71-.58,.03-1.74,16.64L.43,44.11l-.34,.13v.06s-.09,.05-.09,.05l.1,.28,1.81,46.72,9.71,2.24-.92,8.77,10.61,.12,1.69,4.62,68.38,14.54,.22,.05,17.51-5.6,18.05,4.16Zm-16.14-4.77l72.15-23.09-55.89,26.84-16.26-3.75ZM19.73,94.41l-5.36-14.6,4.34-41.51L78.19,15.82l55.48-3.02,45.75,32,4.85,19.81-66.88,37.92-65.57-.72-32.09-7.4Zm27.32,7.35l-24.73-.27-2.18-5.93,26.9,6.21Zm-28.82-7.7l-5.22-1.2,1.06-10.15,4.16,11.35ZM1.53,44.79l15.81-5.98-3.99,38.2L1.53,44.79Zm17.3-7.64l.21-1.98L51.9,17.26l22.88-1.24L18.83,37.15ZM81.26,14.66L117,1.16l15.34,10.73-51.08,2.78Zm54.22-1.95l8.97-.49,29.96,12.16,4.59,18.77-43.53-30.44Zm-17.91,90.82h.23s67.58-38.31,67.58-38.31l.33-.19-4.68-19.09,12.43,8.69-3.92,34.64-80.46,25.75-52.73-12.16,61.21,.68Zm84.06-43.19l-10.3,24.83,3.35-29.69,6.95,4.86Zm-5.73-27.24l-2.29,20.25-12.98-9.07-4.73-19.3,19.99,8.12Zm-24.81-22.33l3.02,12.35-27.17-11.03,24.15-1.31Zm-28.79,.57l-8.14,.44-12.76-8.92,20.9,8.48Zm-80.01,.25L111.42,2.16l-33.57,12.68-23.93,1.3,8.36-4.56Zm-41.55,7.36l28.76-1.56-30.32,16.51,1.56-14.95Zm-3.27,18.72l-9.8,3.7,9.98-5.44-.18,1.74ZM3.2,90.59L1.57,48.62l11.48,31.3-1.32,12.64-8.53-1.97Zm8.92,10.78l.79-7.49,5.75,1.32,2.3,6.26-8.83-.1Zm79.43,19.26l-67.47-14.34-1.39-3.8,28.9,.32,55.59,12.82-15.62,5Z"/>
  </g>
</svg>