<?xml version="1.0" encoding="UTF-8"?>
<svg id="_Слой_2" data-name="Слой 2" xmlns="http://www.w3.org/2000/svg" xmlns:xlink="http://www.w3.org/1999/xlink" viewBox="0 0 197.4 192.76">
  <defs>
    <style>
      .cls-1 {
        fill: url(#linear-gradient);
      }
    </style>
    <linearGradient id="linear-gradient" x1="238.6" y1="229.76" x2="400.14" y2="229.76" gradientTransform="translate(-211.5 343.35) rotate(-73.52)" gradientUnits="userSpaceOnUse">
      <stop offset="0" stop-color="#c98847"/>
      <stop offset=".29" stop-color="#dab35b"/>
      <stop offset=".34" stop-color="#eac255"/>
      <stop offset=".39" stop-color="#f4cb52"/>
      <stop offset=".46" stop-color="#f8ce52"/>
      <stop offset=".48" stop-color="#f8cf56"/>
      <stop offset=".58" stop-color="#f8d86a"/>
      <stop offset=".68" stop-color="#f8dd76"/>
      <stop offset=".78" stop-color="#f9df7b"/>
      <stop offset=".94" stop-color="#c48d49"/>
    </linearGradient>
  </defs>
  <g id="OBJECTS">
    <path class="cls-1" d="M197.4,88.57L114.71,53.02,39.16,.54l-.77-.54-.31,.97L.35,120.06l-.35,.83,.06,.09,.65,.96,29.12,43.25,.62,.92h0l116.46,26.54,.42,.1h0s.05,.01,.05,.01h0l.4-.96,13.74-28.72h0l23.63-49.4,12.25-25.11Zm-2.06,.34l-17.43,14.85-54.14-30.25-8.22-18.86,79.79,34.26Zm-33.77,71.37l-1.49-3.42,18.39-52.04,16.25-13.84-33.16,69.31ZM55.92,36.94l66.94,37.4,24.25,55.67-46.09,39.28-26.66-12.83L1.55,120.65l28.68-44.16,25.69-39.55Zm4.66,1.27l53.42,15.81,8.09,18.56L60.58,38.2Zm87.46,91.01l-23.5-53.94,52.42,29.29-28.92,24.65Zm-75.69,27.55l-41.28,8.18L2.41,122.38l69.95,34.39Zm1.73,.85l25.97,12.5-9.87,8.41-56.58-12.89,40.47-8.02Zm27.12,13.05l40.73,19.61-49.91-11.78,9.18-7.82Zm.97-.83l45.43-38.72,11.23,25.77-12.15,34.37-44.5-21.42Zm46.35-39.51l28.18-24.02-17.31,48.97-10.87-24.95ZM111.12,51.94l-54.99-16.27-5.55-11.48L40.19,2.67,111.12,51.94ZM38.81,2.5l14.33,29.66,1.91,3.96L12.56,101.56l-10,15.4L38.81,2.5Zm112.4,179.44l8.3-23.48,1.4,3.21-9.69,20.27Z"/>
  </g>
</svg>