<?xml version="1.0" encoding="UTF-8"?>
<svg id="_Слой_2" data-name="Слой 2" xmlns="http://www.w3.org/2000/svg" xmlns:xlink="http://www.w3.org/1999/xlink" viewBox="0 0 208.91 174">
  <defs>
    <style>
      .cls-1 {
        fill: url(#linear-gradient);
      }
    </style>
    <linearGradient id="linear-gradient" x1="8.71" y1="-41.89" x2="182.65" y2="-41.89" gradientTransform="translate(69.78 -9.62) rotate(93.23)" gradientUnits="userSpaceOnUse">
      <stop offset="0" stop-color="#c98847"/>
      <stop offset=".29" stop-color="#dab35b"/>
      <stop offset=".34" stop-color="#eac255"/>
      <stop offset=".39" stop-color="#f4cb52"/>
      <stop offset=".46" stop-color="#f8ce52"/>
      <stop offset=".48" stop-color="#f8cf56"/>
      <stop offset=".58" stop-color="#f8d86a"/>
      <stop offset=".68" stop-color="#f8dd76"/>
      <stop offset=".78" stop-color="#f9df7b"/>
      <stop offset=".94" stop-color="#c48d49"/>
    </linearGradient>
  </defs>
  <g id="OBJECTS">
    <path class="cls-1" d="M81.83,174l38.89-11.95,22,4.66,.56,.12,4.66-13.15,59.99-18.43,.98-.3-39.05-42.78-.04-.2L198.08,12.26l-89.13,13.2L86.2,.55l-.5-.55-16.3,19.8L24.43,13.29l2.21,24.36-22.89,3.39,8.26,48.43L.4,103.56l-.4,.49,16.97,14.5,3.8,22.31,15.54,3.29,1.3,14.36,.07,.72,21.77-4.36,22.38,19.13Zm.3-1.44l-21.07-18.01,12.47-2.5,44.58,9.45-35.99,11.06Zm-45.47-38.87l-5.9-64.95,28.51-34.62,49.18-7.29,59.85,65.55-15.02,42.37-79.74,15.97-22.54-4.78-14.35-12.26Zm11.7,11.7l-10.85-2.3-.69-7.56,11.53,9.85Zm-13.11-12.9l-17.09-14.61-4.78-28.04,16.21-19.69,5.66,62.33Zm-4.66-65.58l-2.55-28.16,29.33-4.34-26.77,32.5Zm29.9-34.27l9.43-11.45,34.36,4.97-43.79,6.49Zm49.88-5.6l47.8,6.91,10.05,56.44L110.38,27.03Zm58.57,67.41l6.39,35.9-20.58,4.12,14.19-40.02Zm-16.17,41.73l-5.84,16.47-26.28,8.08-43.92-9.31,76.04-15.24Zm-82.44,15.2l-10.52,2.11-6.75-5.77,17.28,3.66Zm72.11,13.95l-19.17-4.06,23.13-7.11-3.96,11.17Zm64.14-31.02l-58.1,17.86,5.77-16.29,21.96-4.4,.62-.13-6.55-36.8,36.3,39.76Zm-37.22-44.91l-10.08-56.6-46.07-6.66,82.92-12.28-26.78,75.54ZM85.75,1.97l21.23,23.26-36.09-5.22L85.75,1.97ZM25.87,14.81l42.57,6.16-9.84,11.95-30.67,4.54-2.06-22.65ZM5.24,42.12l21.52-3.19,2.67,29.39-16.33,19.83L5.24,42.12ZM1.8,103.9l10.49-12.74,4.33,25.41L1.8,103.9Zm20.09,35.89l-3.4-19.91,16.92,14.46,.77,8.48-14.29-3.03Zm16.94,17.9l-1.2-13.24,12.78,2.71,7.78,6.65-19.36,3.88Z"/>
  </g>
</svg>