<?xml version="1.0" encoding="utf-8"?>
<!-- Generator: Adobe Illustrator 27.0.0, SVG Export Plug-In . SVG Version: 6.00 Build 0)  -->
<svg version="1.1" id="Слой_1" xmlns="http://www.w3.org/2000/svg" xmlns:xlink="http://www.w3.org/1999/xlink" x="0px" y="0px"
	 viewBox="0 0 123 79.6" style="enable-background:new 0 0 123 79.6;" xml:space="preserve">
<style type="text/css">
	.st0{fill:#633C3C;}
</style>
<g id="Слой_2_00000103255273582970552380000006022101673352257442_">
	<g id="Слой_1-2">
		<path class="st0" d="M75.3,44.5c0.1,7.9-9.8,12.2-15.5,6.6c-3.6-3.6-3.7-9.4-0.1-13.1l0.1-0.1C65.5,32.3,75.3,36.6,75.3,44.5z
			 M75.3,44.5c0.1-7.7-9.6-11.6-14.9-6c-3.2,3.4-3.2,8.6,0,12C65.6,56.1,75.3,52.2,75.3,44.5z"/>
		<path class="st0" d="M105.7,43.7c0.1,7.9-9.8,12.2-15.5,6.6c-3.6-3.6-3.7-9.4-0.1-13.1l0.1-0.1C96.1,31.4,105.6,35.8,105.7,43.7
			L105.7,43.7z M105.7,43.7c-0.1-7.7-9.6-11.6-14.9-6c-3.2,3.4-3.2,8.6,0,12C96.1,55.3,105.8,51.4,105.7,43.7L105.7,43.7z"/>
		<path class="st0" d="M70.7,36.7c-0.3-8.8-0.3-21.3-0.4-30.2l0.3-0.1l17.3-3.2l17.3-3.1l0.5-0.1v0.5c0,13.4-0.2,26.8-0.4,40.2
			c-0.3-13.4-0.4-26.8-0.5-40.2l0.5,0.4c-8.6,1.6-25.9,4.8-34.5,6.3l0.3-0.4C71.1,15.7,70.9,28.1,70.7,36.7z"/>
		<path class="st0" d="M74.6,41.2c-0.3-9.6-0.4-19.1-0.4-28.6c7.1-1.7,20.4-4.9,27.5-6.6c0,9.9-0.1,19.7-0.4,29.6
			c-0.3-9.7-0.4-19.4-0.4-29l0.5,0.4c-6.6,1.6-19.9,4.8-26.6,6.3l0.3-0.4C75,22.4,74.9,31.8,74.6,41.2z"/>
		<path class="st0" d="M28,24.9c2.4,11.6,4.2,23.4,5.3,35.2C30.9,48.5,29.1,36.8,28,24.9z"/>
		<path class="st0" d="M39.2,66.3c-2.4-12.5-4.7-25.1-6.9-37.7c1.9,0.7,3.5,2,4.6,3.7c1,1.3,1.9,2.8,2.8,4.3l-0.5-0.3l2.8-0.4
			l-0.4,0.5c-0.9-7.4-6-12.5-13.7-11.5c8.2-1.8,13.8,4,14.7,11.9c-0.2,0-3,0.5-3.3,0.5L39,37.4c-1.2-2.3-2.7-4.4-4.4-6.3
			c-0.5-0.6-1.2-1-1.9-1.3l0.6-0.5C35.3,41.6,37.3,53.9,39.2,66.3L39.2,66.3z"/>
		<path class="st0" d="M39.6,68c0.8,5.5-3,10.6-8.5,11.5s-10.6-3-11.5-8.5c-0.4-2.7,0.3-5.4,2-7.6c3.4-4.4,9.8-5.2,14.2-1.8
			C37.8,63.1,39.2,65.4,39.6,68z M39.6,68c-0.8-5.2-5.6-8.9-10.9-8.1c-5.2,0.8-8.9,5.6-8.1,10.9c0.4,2.5,1.7,4.7,3.7,6.2
			C31,82.3,40.9,76.5,39.6,68z"/>
		<path class="st0" d="M50.3,61.5c3,0.3,5.9,1.2,8.5,2.8C55.9,64,52.9,63.1,50.3,61.5z"/>
		<path class="st0" d="M56,58.6c-0.3,3-1.2,5.9-2.8,8.5C53.5,64.1,54.4,61.2,56,58.6z"/>
		<path class="st0" d="M6.2,44.1c3,0.3,5.9,1.2,8.5,2.8C11.7,46.7,8.8,45.7,6.2,44.1z"/>
		<path class="st0" d="M11.8,41.3c-0.3,3-1.2,5.9-2.8,8.5C9.3,46.8,10.3,43.9,11.8,41.3z"/>
		<path class="st0" d="M0,20.9c4.3,0.7,8.5,2,12.4,4C8.1,24.2,3.9,22.9,0,20.9z"/>
		<path class="st0" d="M8.2,16.7c-0.7,4.3-2,8.5-4,12.4C4.9,24.8,6.2,20.6,8.2,16.7z"/>
		<path class="st0" d="M110.3,64.9c3,0.3,5.9,1.2,8.5,2.8C115.8,67.4,112.9,66.5,110.3,64.9z"/>
		<path class="st0" d="M116,62.1c-0.3,3-1.2,5.9-2.8,8.5C113.5,67.6,114.4,64.6,116,62.1z"/>
		<path class="st0" d="M114.5,34.2c3,0.3,5.9,1.2,8.5,2.8C120,36.7,117.1,35.8,114.5,34.2z"/>
		<path class="st0" d="M120.1,31.4c-0.3,3-1.2,5.9-2.8,8.5C117.6,36.9,118.6,33.9,120.1,31.4z"/>
		<path class="st0" d="M48.4,22.9c4.3,0.7,8.5,2.1,12.4,4.1C56.5,26.3,52.3,25,48.4,22.9L48.4,22.9z"/>
		<path class="st0" d="M56.6,18.8c-0.7,4.3-2,8.5-4,12.4C53.3,26.8,54.7,22.6,56.6,18.8z"/>
	</g>
</g>
</svg>
