<svg xmlns="http://www.w3.org/2000/svg" viewBox="0 0 99.23 79.49"><defs><style>.cls-1{fill:none;stroke:#6d9973;stroke-miterlimit:10;}</style></defs><title>plate</title><g id="Слой_2" data-name="Слой 2"><g id="Слой_1-2" data-name="Слой 1"><circle class="cls-1" cx="51.34" cy="41.58" r="37.38"/><circle class="cls-1" cx="51.34" cy="41.58" r="23.47"/><polyline class="cls-1" points="8.81 25.57 8.81 78.99 4.15 78.99 4.15 25.57"/><path class="cls-1" d="M5,26.2S.5,25.49.5,16.75A58.88,58.88,0,0,1,2.26,1.91"/><path class="cls-1" d="M8,26.2s4.51-.71,4.51-9.45A58.88,58.88,0,0,0,10.7,1.91"/><polyline class="cls-1" points="5.08 1.91 3.39 17.47 2.26 1.91"/><polyline class="cls-1" points="7.89 1.91 6.2 17.47 5.07 1.91"/><polyline class="cls-1" points="10.7 1.91 9.01 17.47 7.88 1.91"/><path class="cls-1" d="M98.73,1.91,96,6.78a30.25,30.25,0,0,0-3.58,19l2,9V79h4.27Z"/></g></g></svg>