<svg xmlns="http://www.w3.org/2000/svg" viewBox="0 0 103.09 112.27"><defs><style>.cls-1{fill:none;stroke:#6d9973;stroke-miterlimit:10;}</style></defs><title>rings</title><g id="Слой_2" data-name="Слой 2"><g id="Слой_1-2" data-name="Слой 1"><circle class="cls-1" cx="33.4" cy="69.66" r="32.89" transform="translate(-11.43 6.74) rotate(-9.86)"/><circle class="cls-1" cx="33.4" cy="69.66" r="26.96" transform="translate(-29.89 25.36) rotate(-29.39)"/><circle class="cls-1" cx="69.7" cy="78.88" r="32.89" transform="translate(-16.81 138.86) rotate(-83.27)"/><circle class="cls-1" cx="69.7" cy="78.88" r="26.96" transform="translate(-15.75 17.41) rotate(-12.8)"/><polygon class="cls-1" points="30.14 26.8 24.01 38.15 12.66 32.01 10.06 23.27 14.02 17.56 21.04 15.47 27.54 18.06 30.14 26.8"/><polyline class="cls-1" points="10.06 23.27 17.67 24.12 23.65 22.34 27.54 18.06"/><polyline class="cls-1" points="21.04 15.47 23.65 22.34 24.01 38.15"/><polyline class="cls-1" points="24.01 38.15 17.67 24.12 14.02 17.56"/><line class="cls-1" x1="12.66" y1="32.01" x2="17.67" y2="24.12"/><line class="cls-1" x1="23.65" y1="22.34" x2="30.14" y2="26.8"/><line class="cls-1" x1="12.68" y1="0.14" x2="16.05" y2="11.45"/><line class="cls-1" x1="21.6" y1="11.07" x2="24.58" y2="2.75"/><line class="cls-1" x1="11.04" y1="14.22" x2="3.99" y2="8.89"/></g></g></svg>