<?xml version="1.0" encoding="utf-8"?>
<!-- Generator: Adobe Illustrator 27.0.0, SVG Export Plug-In . SVG Version: 6.00 Build 0)  -->
<svg version="1.1" id="Слой_1" xmlns="http://www.w3.org/2000/svg" xmlns:xlink="http://www.w3.org/1999/xlink" x="0px" y="0px"
	 viewBox="0 0 103.1 112.3" style="enable-background:new 0 0 103.1 112.3;" xml:space="preserve">
<style type="text/css">
	.st0{fill:none;stroke:#1D1D1B;stroke-miterlimit:10;}
</style>
<g id="Слой_2_00000031185032575915287560000012471217147307766709_">
	<g id="Слой_1-2">
		<circle class="st0" cx="33.4" cy="69.7" r="32.9"/>
		<circle class="st0" cx="33.4" cy="69.7" r="27"/>
		<circle class="st0" cx="69.7" cy="78.9" r="32.9"/>
		<circle class="st0" cx="69.7" cy="78.9" r="27"/>
		<polygon class="st0" points="30.1,26.8 24,38.2 12.7,32 10.1,23.3 14,17.6 21,15.5 27.5,18.1 		"/>
		<polyline class="st0" points="10.1,23.3 17.7,24.1 23.6,22.3 27.5,18.1 		"/>
		<polyline class="st0" points="21,15.5 23.6,22.3 24,38.2 		"/>
		<polyline class="st0" points="24,38.2 17.7,24.1 14,17.6 		"/>
		<line class="st0" x1="12.7" y1="32" x2="17.7" y2="24.1"/>
		<line class="st0" x1="23.6" y1="22.3" x2="30.1" y2="26.8"/>
		<line class="st0" x1="12.7" y1="0.1" x2="16" y2="11.4"/>
		<line class="st0" x1="21.6" y1="11.1" x2="24.6" y2="2.8"/>
		<line class="st0" x1="11" y1="14.2" x2="4" y2="8.9"/>
	</g>
</g>
</svg>
