<svg xmlns="http://www.w3.org/2000/svg" viewBox="0 0 307.43 425.54"><defs><style>.cls-1{fill:#f9f398;}.cls-2{fill:#e5d4b2;}.cls-3{fill:#f5da88;}.cls-4{fill:#e8ca60;}.cls-5{fill:#f0d160;}.cls-6{fill:#f2e27b;}.cls-7{fill:#e1b848;}.cls-8{fill:#f3e780;}.cls-9{fill:#edd25f;}.cls-10{fill:#f5e275;}.cls-11{fill:#f6ed8c;}.cls-12{fill:#dcba4c;}.cls-13{fill:#cfa64c;}.cls-14{fill:#e0bc44;}.cls-15{fill:#e7c95a;}.cls-16{fill:#e3c25c;}.cls-17{fill:#f1e276;}.cls-18{fill:#c7993b;}.cls-19{fill:#dbb754;}.cls-20{fill:#f4d36b;}.cls-21{fill:#f7ee79;}.cls-22{fill:#f1cf57;}.cls-23{fill:#e9c754;}.cls-24{fill:#f0dc75;}.cls-25{fill:#f3dc7d;}.cls-26{fill:#f1e06e;}.cls-27{fill:#deae42;}.cls-28{fill:#cfa53c;}.cls-29{fill:#c89b44;}.cls-30{fill:#f2dc67;}.cls-31{fill:#e0bf56;}.cls-32{fill:#edcb5c;}.cls-33{fill:#d5b041;}.cls-34{fill:#e3bd55;}.cls-35{fill:#efd360;}.cls-36{fill:#f5e169;}.cls-37{fill:#e4d663;}.cls-38{fill:#eecd68;}.cls-39{fill:#f2d668;}.cls-40{fill:#f2da6a;}.cls-41{fill:#e4c75e;}.cls-42{fill:#eee26d;}.cls-43{fill:#ebd25f;}.cls-44{fill:#f2dd74;}.cls-45{fill:#ddb542;}.cls-46{fill:#f1d560;}.cls-47{fill:#e9d167;}.cls-48{fill:#e4b850;}.cls-49{fill:#e5c45e;}.cls-50{fill:#e2bf50;}.cls-51{fill:#dfc05c;}.cls-52{fill:#e3c966;}.cls-53{fill:#dfc260;}.cls-54{fill:#f3d561;}.cls-55{fill:#ece57d;}.cls-56{fill:#d4aa47;}.cls-57{fill:#f4e075;}.cls-58{fill:#e3bf56;}.cls-59{fill:#f3e982;}.cls-60{fill:#f4e688;}.cls-61{fill:#f9ea89;}.cls-62{fill:#e7cd64;}.cls-63{fill:#e8ca62;}.cls-64{fill:#ecde79;}.cls-65{fill:#e0c867;}.cls-66{fill:#eed877;}.cls-67{fill:#e6c551;}.cls-68{fill:#f2db7c;}.cls-69{fill:#f4d86b;}.cls-70{fill:#d9bc54;}.cls-71{fill:#dcbc46;}.cls-72{fill:#f4dd79;}.cls-73{fill:#edd471;}.cls-74{fill:#f2d87a;}.cls-75{fill:#e2c366;}.cls-76{fill:#ecc56d;}.cls-77{fill:#e7c761;}.cls-78{fill:#d0a846;}.cls-79{fill:#debd5a;}.cls-80{fill:#f0d456;}.cls-81{fill:#ecd366;}.cls-82{fill:#e8c65e;}.cls-83{fill:#faf38d;}.cls-84{fill:#ddb338;}.cls-85{fill:#f6ed87;}.cls-86{fill:#f6e98b;}.cls-87{fill:#ecd56c;}.cls-88{fill:#f7e888;}.cls-89{fill:#e8d876;}.cls-90{fill:#e2c653;}.cls-91{fill:#efd363;}.cls-92{fill:#e2b956;}.cls-93{fill:#e9bf5b;}.cls-94{fill:#ebc75e;}.cls-95{fill:#f2e177;}.cls-96{fill:#f3d86c;}.cls-97{fill:#f5dd77;}.cls-98{fill:#d3a23b;}.cls-99{fill:#dcb94d;}.cls-100{fill:#edc963;}.cls-101{fill:#e9cc68;}.cls-102{fill:#f6e69b;}.cls-103{fill:#ebd07b;}.cls-104{fill:#c29740;}.cls-105{fill:#edc65c;}.cls-106{fill:#fdfab4;}.cls-107{fill:#e6cb60;}.cls-108{fill:#eecb52;}.cls-109{fill:#e5c95a;}.cls-110{fill:#e3c967;}.cls-111{fill:#f4dc77;}.cls-112{fill:#faee86;}.cls-113{fill:#fbf38a;}.cls-114{fill:#f5d670;}.cls-115{fill:#d4ae4c;}.cls-116{fill:#f7f185;}.cls-117{fill:#f8f4ad;}.cls-118{fill:#d4aa3c;}.cls-119{fill:#d2a648;}.cls-120{fill:#d9b459;}.cls-121{fill:#deba47;}.cls-122{fill:#ebd066;}.cls-123{fill:#f8e988;}.cls-124{fill:#f3e379;}.cls-125{fill:#dcc16f;}.cls-126{fill:#ecd37b;}.cls-127{fill:#f9f2be;}.cls-128{fill:#efd77c;}.cls-129{fill:#d7b94c;}.cls-130{fill:#fcf994;}.cls-131{fill:#f1d765;}.cls-132{fill:#f5ed9c;}.cls-133{fill:#f7e08a;}.cls-134{fill:#f7eb9f;}.cls-135{fill:#f1dd82;}.cls-136{fill:#dbb959;}.cls-137{fill:#faed95;}.cls-138{fill:#faea87;}.cls-139{fill:#eece63;}.cls-140{fill:#e4c775;}.cls-141{fill:#d8a94a;}.cls-142{fill:#f1d578;}.cls-143{fill:#f8ea94;}.cls-144{fill:#f8e59a;}.cls-145{fill:#e4c678;}.cls-146{fill:#f4e285;}.cls-147{fill:#e4bd67;}.cls-148{fill:#f6e7a2;}.cls-149{fill:#faed89;}.cls-150{fill:#f6e492;}.cls-151{fill:#fdfbd8;}.cls-152{fill:#ead07b;}.cls-153{fill:#d5ab44;}.cls-154{fill:#f3de8c;}.cls-155{fill:#dbb94e;}.cls-156{fill:#fcf6d4;}.cls-157{fill:#e4cf61;}.cls-158{fill:#ddb552;}.cls-159{fill:#fbf2b0;}.cls-160{fill:#e5ba5a;}.cls-161{fill:#e4c16d;}.cls-162{fill:#ead58a;}.cls-163{fill:#f3e9af;}.cls-164{fill:#d5a740;}.cls-165{fill:#e9c05b;}.cls-166{fill:#cbac48;}.cls-167{fill:#e8dd99;}.cls-168{fill:#f0dc8b;}.cls-169{fill:#cfb86a;}.cls-170{fill:#e5c76f;}.cls-171{fill:#f3e6a2;}.cls-172{fill:#edcf6c;}.cls-173{fill:#d6b663;}.cls-174{fill:#e8c772;}.cls-175{fill:#e5c763;}.cls-176{fill:#f6e3a7;}.cls-177{fill:#efe39a;}.cls-178{fill:#e9c766;}.cls-179{fill:#ecd076;}.cls-180{fill:#fbf497;}.cls-181{fill:#f3ed9a;}.cls-182{fill:#dfc783;}.cls-183{fill:#f3dd7c;}.cls-184{fill:#e1bf6f;}.cls-185{fill:#f4dd7c;}.cls-186{fill:#d0ad4f;}.cls-187{fill:#eedc97;}.cls-188{fill:#fdf9b1;}.cls-189{fill:#faeda2;}.cls-190{fill:#f7e88b;}.cls-191{fill:#f5dc85;}.cls-192{fill:#f5e2a6;}.cls-193{fill:#f1dc8d;}.cls-194{fill:#e2c16b;}.cls-195{fill:#e2bd5b;}.cls-196{fill:#edd282;}.cls-197{fill:#e8d093;}.cls-198{fill:#f8eed1;}.cls-199{fill:#f9eebe;}.cls-200{fill:#f4e495;}.cls-201{fill:#fdfae0;}.cls-202{fill:#d8b354;}.cls-203{fill:#e4c473;}.cls-204{fill:#dbbb5e;}.cls-205{fill:#f6f1bc;}.cls-206{fill:#e6bf64;}.cls-207{fill:#ead394;}.cls-208{fill:#f8edab;}.cls-209{fill:#f9e66e;}.cls-210{fill:#fcf39f;}.cls-211{fill:#e1c279;}.cls-212{fill:#e0c17a;}.cls-213{fill:#f2e188;}.cls-214{fill:#e2c45e;}.cls-215{fill:#f0de92;}.cls-216{fill:#f3e0a3;}.cls-217{fill:#efcf74;}.cls-218{fill:#f7e9ac;}.cls-219{fill:#f6ebb5;}.cls-220{fill:#ead576;}.cls-221{fill:#fcf7c9;}.cls-222{fill:#f6e18b;}.cls-223{fill:#ecd89d;}.cls-224{fill:#f7ec89;}.cls-225{fill:#f4e592;}.cls-226{fill:#e9d886;}.cls-227{fill:#faf2d1;}.cls-228{fill:#f5e384;}.cls-229{fill:#f9f1db;}.cls-230{fill:#f7eea2;}.cls-231{fill:#f3db71;}.cls-232{fill:#e5d884;}.cls-233{fill:#e9d278;}.cls-234{fill:#e5cc7e;}.cls-235{fill:#e7d2a0;}.cls-236{fill:#eacc7f;}.cls-237{fill:#dbaf49;}.cls-238{fill:#fcf293;}.cls-239{fill:#dfbe4d;}.cls-240{fill:#e7d8b3;}.cls-241{fill:#fcf7bc;}.cls-242{fill:#eacd8a;}.cls-243{fill:#ebd05a;}.cls-244{fill:#eee1c1;}.cls-245{fill:#f8edd5;}.cls-246{fill:#b78f33;}.cls-247{fill:#e9d4ad;}.cls-248{fill:#f2d16e;}.cls-249{fill:#eee2c8;}.cls-250{fill:#dbba61;}.cls-251{fill:#f9e9b9;}.cls-252{fill:#d6ad74;}.cls-253{fill:#e1d1af;}.cls-254{fill:#ecd481;}.cls-255{fill:#e9cb69;}.cls-256{fill:#e2bc49;}.cls-257{fill:#f9e899;}.cls-258{fill:#f2e57f;}.cls-259{fill:#dfc073;}.cls-260{fill:#fdf7bb;}.cls-261{fill:#e8c971;}.cls-262{fill:#f3ebc5;}.cls-263{fill:#f3e6b3;}.cls-264{fill:#c19239;}.cls-265{fill:#f5ecb6;}.cls-266{fill:#f0e1b3;}.cls-267{fill:#f5e7ad;}.cls-268{fill:#f6f0c4;}.cls-269{fill:#e4c790;}.cls-270{fill:#f6e397;}.cls-271{fill:#f5db7e;}.cls-272{fill:#fdf5bc;}.cls-273{fill:#f6efdd;}.cls-274{fill:#ecd48d;}.cls-275{fill:#c9a656;}.cls-276{fill:#f5e49f;}.cls-277{fill:#faeeae;}.cls-278{fill:#f9f1c8;}.cls-279{fill:#f0d387;}.cls-280{fill:#e2c99d;}.cls-281{fill:#ecde96;}.cls-282{fill:#e8ca83;}.cls-283{fill:#e5cd87;}.cls-284{fill:#eed971;}.cls-285{fill:#e0bf7e;}.cls-286{fill:#ead784;}.cls-287{fill:#f1cb7f;}.cls-288{fill:#eaca6f;}.cls-289{fill:#c9a035;}</style></defs><title>stone3</title><g id="Слой_2" data-name="Слой 2"><g id="BACKGROUND"><g id="C2wnW2.tif"><path class="cls-1" d="M858.64,240.31c-.47.08-1,.22-1.1-.49s.39-.75.87-.83C858.49,239.43,858.56,239.87,858.64,240.31Z" transform="translate(-551.21 29.87)"/><path class="cls-2" d="M601.28,373.36c.5.14.37.39.11.66C601.36,373.8,601.32,373.58,601.28,373.36Z" transform="translate(-551.21 29.87)"/><path class="cls-3" d="M611.47-29.87c-.06.29-.16.38-.33.06Z" transform="translate(-551.21 29.87)"/><path class="cls-4" d="M698.39,263.08a.7.7,0,0,1,.65.43,1.94,1.94,0,0,0,1.07,1.19c.75.25.47.61.39,1.05s.21,1.08-.58,1.12-2.1-.9-1.88-1.29c.44-.81,0-1.49,0-2.22C698.07,263.17,698.22,263.11,698.39,263.08Z" transform="translate(-551.21 29.87)"/><path class="cls-5" d="M792.69,186.24a2.89,2.89,0,0,1-.85-1.29,8.85,8.85,0,0,0,.63-2.09l1.29.31a.51.51,0,0,0,.66-.32c.12-.34.09-.9.67-.63a1,1,0,0,1,.65,1.21,1.32,1.32,0,0,1-.6.95C794.07,184.67,793.61,185.75,792.69,186.24Z" transform="translate(-551.21 29.87)"/><path class="cls-6" d="M644.9,153.47a2.85,2.85,0,0,1,3.15,0c.36.33.47.75,0,1.11a5.73,5.73,0,0,1-2.09,1.27c-.34.09-.67.2-.9-.11s0-.72.28-1C646.15,154,645.33,153.79,644.9,153.47Z" transform="translate(-551.21 29.87)"/><path class="cls-7" d="M735.26,216c-.56-.09-.78-.55-1-1,0,0,1.43-2.54,1.45-2.54.75,0,1,.62,1.32,1.09C737.47,215.18,737.34,215.37,735.26,216Z" transform="translate(-551.21 29.87)"/><path class="cls-8" d="M729.35,234c-.27.48-.78.36-1.19.46s-.75.2-.9.63c-.08.26-.13.58-.54.41a1,1,0,0,1-.57-.57.62.62,0,0,1,0-.33,9.45,9.45,0,0,0,.75-3.1.62.62,0,0,1,.16,0s.09.06.13.1A14.89,14.89,0,0,1,729.35,234Z" transform="translate(-551.21 29.87)"/><path class="cls-9" d="M791.3,256.92c-.5-.76-1.37.42-1.83-.38s-1-1.28-.91-2.19a11.75,11.75,0,0,0,1.45,0c1-.18,1.23,0,.91,1A1.58,1.58,0,0,0,791.3,256.92Z" transform="translate(-551.21 29.87)"/><path class="cls-10" d="M696.31,101.62c-.41-.2-.43-1.17-1.24-.62-.22.14-.42,0-.53-.22a.57.57,0,0,1,.1-.61,1.21,1.21,0,0,1,.85-.46,3.1,3.1,0,0,1,1.48-.09c.43.13.58-.72.94-.33a1,1,0,0,1,0,1.37C697.48,101.13,697.15,101.8,696.31,101.62Z" transform="translate(-551.21 29.87)"/><path class="cls-11" d="M635.6,159.4a1.17,1.17,0,0,1-1-.29c-.4-.35-1.12-.48-1.06-1.14s.7-.6,1.16-.74a1.15,1.15,0,0,0,.52-.35c.22-.27.42-.56.79-.31s.36.65.28,1.05C636.16,158.27,635.4,158.63,635.6,159.4Z" transform="translate(-551.21 29.87)"/><path class="cls-12" d="M674.35,203.49c.77-.33,1.45-1,2.41-.68.25.58-.48,1-.21,1.56-.12,1.27-.95,1.22-1.87,1a.86.86,0,0,1-.73-.22C673.76,204.55,674.36,204.09,674.35,203.49Z" transform="translate(-551.21 29.87)"/><path class="cls-13" d="M777.53,140.67c-.79.3-1.35-.48-2.09-.31-.24.06-.68-1.34-.48-1.53a1.4,1.4,0,0,1,1.53-.32c.38.14,1,.17.81.81S777.74,140.09,777.53,140.67Z" transform="translate(-551.21 29.87)"/><path class="cls-14" d="M683.46,53.17c-.18.38,0,.95-.58,1.1s-.73-.39-1-.68a1.78,1.78,0,0,1-.57-1c-.08-.43-.35-.92.09-1.25s.68.3,1.07.25a.65.65,0,0,0,.34-.37h0a.51.51,0,0,1,.68-.11h0A4.58,4.58,0,0,0,683.46,53.17Z" transform="translate(-551.21 29.87)"/><path class="cls-15" d="M829,162.67c.79-.25,1.15.27,1.5.76a.68.68,0,0,1-.13,1,1.26,1.26,0,0,1-1.54,0l-.14-.08c-.38-.31-.91-.6-.76-1.16S828.71,162.93,829,162.67Z" transform="translate(-551.21 29.87)"/><path class="cls-16" d="M672.66,134c-1-.25-1.75.4-2.64.27-.47-.88.38-1.52.44-2.31,0-.44.59-.24.75,0A7.92,7.92,0,0,0,672.66,134Z" transform="translate(-551.21 29.87)"/><path class="cls-17" d="M784.72,224.23c0-.59.35-.79.89-.59s1-.15,1.34.42a.5.5,0,0,1-.08.61c-.27.27-.56.52-.84.78a1.4,1.4,0,0,1-1.35.2h0a1.45,1.45,0,0,1-.36-.25.62.62,0,0,1-.12-.26.36.36,0,0,1-.05-.41h0C784.3,224.52,784.64,224.53,784.72,224.23Z" transform="translate(-551.21 29.87)"/><path class="cls-18" d="M691,296.76a1.31,1.31,0,0,1,.44,1.17c0,.4.31.9-.19,1.19s-.69-.14-.92-.44-.45-.17-.72-.13c-.62.09-.5-.39-.52-.75.16-.21,0-.5.19-.71h0A1.44,1.44,0,0,1,691,296.76Z" transform="translate(-551.21 29.87)"/><path class="cls-19" d="M575.12,69.75a2.69,2.69,0,0,1,2.15.41c-.25.4-.49.82-.75,1.21-.54.82-.87.83-1.37,0-.15-.23-.25-.48-.52-.61s-.25-.2-.14-.38a.33.33,0,0,1,0-.24C574.66,69.93,575,69.94,575.12,69.75Z" transform="translate(-551.21 29.87)"/><path class="cls-20" d="M687.58,170.1c-.1-.4-.25-.92.51-1a1.16,1.16,0,0,1,1.4,1.07c0,.42.43,1-.26,1.32C688.74,171.66,687.72,170.84,687.58,170.1Z" transform="translate(-551.21 29.87)"/><path class="cls-21" d="M779.72,280.64c.43-.08.88-.17,1.2.26s.1.7-.19,1a1,1,0,0,0-.24.42c-.09.3.45.81-.26.89-.49.05-.54-.47-.75-.77a2.89,2.89,0,0,1-.3-.58C778.78,281,778.87,280.82,779.72,280.64Z" transform="translate(-551.21 29.87)"/><path class="cls-22" d="M635.18,67c.21,1.32,1.22,2.37-.22,3.29C633.63,69.18,633.63,69.18,635.18,67Z" transform="translate(-551.21 29.87)"/><path class="cls-23" d="M694.77,158.67c-.26-1.22.53-1.68,1.49-2.09a5,5,0,0,0,.2.62c.76,1.58.76,1.58-1,1.69C695.09,159.19,695,158.85,694.77,158.67Z" transform="translate(-551.21 29.87)"/><path class="cls-24" d="M739.25,282.9c.48.37.81.84-.11.88a1,1,0,0,0-1,.83c-.14.41-.36.69-.83.67s-.76-.38-.85-.85-.09-.66-.13-1C737.18,282.73,738.31,283.3,739.25,282.9Z" transform="translate(-551.21 29.87)"/><path class="cls-25" d="M641.57,241.76a1.82,1.82,0,0,1-2,.92c0-.53.59-.87.52-1.45-.13-1,.42-1.1,1.22-.9a4.57,4.57,0,0,0,1,0h0l0,.32A8.45,8.45,0,0,1,641.57,241.76Z" transform="translate(-551.21 29.87)"/><path class="cls-26" d="M607.76,215.36l.79-.27c-.39,1.64-.95,2.22-2.24,2.34-.13-.23-.55-.28-.4-.68h0c.17-.8.21-1.7,1.4-1.61h0A1.16,1.16,0,0,0,607.76,215.36Z" transform="translate(-551.21 29.87)"/><path class="cls-27" d="M741.3,119.52c-.48.44-.9.5-1-.28a2.53,2.53,0,0,1,1-2.15c.64-.54.94,0,1,.64C742.28,118.49,742.31,119.31,741.3,119.52Z" transform="translate(-551.21 29.87)"/><path class="cls-28" d="M626,37.68a.78.78,0,0,1-.14-.29c.12-.34.28-.63.73-.53a1.63,1.63,0,0,1,.86,1.33c0,.65,1.17.33.87,1.13-.23.34-.71.16-.94.47a.59.59,0,0,1-.28.1c-.89.5-1-.14-1.11-.77C625.91,38.64,626.27,38.16,626,37.68Z" transform="translate(-551.21 29.87)"/><path class="cls-29" d="M646.21,332c.4-.14.86-.34.95.37s-.55,1.93-1,1.87c-.68-.1-.77-.73-.85-1.25S645.37,331.86,646.21,332Z" transform="translate(-551.21 29.87)"/><path class="cls-30" d="M753.24,15.63c.64,1-.14,1.89.19,2.72,0,.09-.14.34-.25.38-.6.16-.87-.29-1.17-.68s-.55-.76,0-1.11S753,16.32,753.24,15.63Z" transform="translate(-551.21 29.87)"/><path class="cls-31" d="M720.24,199.87c-.13-.55.43-1.68.92-1.78a1,1,0,0,1,1.13.48c.2.43-.64,1.38-1.27,1.6C720.62,200.3,720.39,200.25,720.24,199.87Z" transform="translate(-551.21 29.87)"/><path class="cls-32" d="M735.26,216c.41-.26.59-.81,1.09-.91,1-.2.71-.88.63-1.5.71.51.49,1.4.84,2.08.25.46-.4,1-1,.87A14.82,14.82,0,0,1,735.26,216Z" transform="translate(-551.21 29.87)"/><path class="cls-33" d="M731.9,342c-.27-.86.83-1.16.76-1.95,1,.09,1.19.88,1.56,1.51a.43.43,0,0,1,0,.41h0a1.13,1.13,0,0,1-1.06.23l-.93,0A.9.9,0,0,1,731.9,342Z" transform="translate(-551.21 29.87)"/><path class="cls-34" d="M692.53,236.59c.88-.17,1.51.09,1.66.71s-.22.8-.7.92a1.42,1.42,0,0,1-1.69-.95C691.7,236.69,692.21,236.72,692.53,236.59Z" transform="translate(-551.21 29.87)"/><path class="cls-35" d="M734.79,131c1.18,0,1.18,0,1.31,1.4.18.29.32.65-.08.81a1.34,1.34,0,0,1-1.8-.59.78.78,0,0,1,0-.54l0,0c.08-.07.11-.14.08-.21s-.06-.12-.09-.11l-.09-.65A.39.39,0,0,1,734.79,131Z" transform="translate(-551.21 29.87)"/><path class="cls-36" d="M734.35,132.39c.33.54.88.53,1.41.54s.3-.35.34-.58c.91.62-.08,1.46.52,2.47a7.58,7.58,0,0,0-2.37-1C734,133.31,733.48,132.8,734.35,132.39Z" transform="translate(-551.21 29.87)"/><path class="cls-37" d="M787.48,116.43c-.31-.41-.2-.88-.31-1.3-.18-.69.35-.84.76-1.08s.55,0,.65.27c.19.5.49,1-.17,1.47C788.1,116,787.8,116.21,787.48,116.43Z" transform="translate(-551.21 29.87)"/><path class="cls-38" d="M720.56-2.94c.33,0,.54.26.42.56A3.57,3.57,0,0,1,719.5-.15c0-.83-1-1-1.08-1.78C719.1-2.34,719.91-2.47,720.56-2.94Z" transform="translate(-551.21 29.87)"/><path class="cls-39" d="M733.17,59.13c-.06-.45-.33-.92.07-1.36a2.11,2.11,0,0,0,1.88.56c.24.1.46.32.76.2s.61-.42.8.07a.72.72,0,0,1-.46.94,5.72,5.72,0,0,1-1,.21C734.61,59.42,733.69,60,733.17,59.13Z" transform="translate(-551.21 29.87)"/><path class="cls-40" d="M654.38,52.43c.1-.33.26-.7.66-.49a1.71,1.71,0,0,1,.48,2.39c-.63.77-1.06.67-1.6-.38C654.15,53.47,654.77,53.1,654.38,52.43Z" transform="translate(-551.21 29.87)"/><path class="cls-41" d="M667,126.46c-.87.68-.87.68-2.29-.06.9-1.17,1.16-1.28,2.11-.93A.71.71,0,0,1,667,126.46Z" transform="translate(-551.21 29.87)"/><path class="cls-42" d="M710.78,82.68a.9.9,0,0,1-1.22-.78c-.12-.53.23-.67.66-.74.61-.11,1.59.39,1.57.85C711.77,82.66,711.09,82.4,710.78,82.68Z" transform="translate(-551.21 29.87)"/><path class="cls-43" d="M723,85.27c.47.06,1.23-.3,1.38.58.07.38,0,.89-.64.93s-1.45-.34-1.52-.91S722.45,85.18,723,85.27Z" transform="translate(-551.21 29.87)"/><path class="cls-44" d="M766.86,61.52c0-.3-.1-.69.4-.72A1.61,1.61,0,0,1,768.65,62c.06.41,0,.81-.51.85A1.39,1.39,0,0,1,766.86,61.52Z" transform="translate(-551.21 29.87)"/><path class="cls-45" d="M603.94,50.05c.07.09.13.19.19.28a.8.8,0,0,1-1.08.21h0a.65.65,0,0,0-.47-.22c-.37,0-.78.18-1-.34a.69.69,0,0,1,.35-.84c.43-.28.76-1.06,1.45-.38a.52.52,0,0,0,.08.67.66.66,0,0,1,.12.27C603.73,49.82,603.84,49.93,603.94,50.05Z" transform="translate(-551.21 29.87)"/><path class="cls-46" d="M783.09,129c.56.15,1,.54.67,1.06s-1,.31-1.51.06c-.21-.12-.49,0-.68-.18h0a.69.69,0,0,1-.17-.95h0A1,1,0,0,1,783.09,129Z" transform="translate(-551.21 29.87)"/><path class="cls-47" d="M674.68,205.41a2.19,2.19,0,0,0,1.87-1c.62.54.06,1.24.26,1.86.13.41-.3.69-.69.74s-.49-.29-.46-.65C675.73,205.6,675,205.76,674.68,205.41Z" transform="translate(-551.21 29.87)"/><path class="cls-48" d="M582.78,35.36l-.43-.27a.46.46,0,0,1-.13-.67h0a.54.54,0,0,1,.69-.12h0a.39.39,0,0,0,.64-.13c.2-.31.48-.48.81-.29a.51.51,0,0,1,.13.72c-.45.38-.31,1.51-1.37,1.12A1.61,1.61,0,0,0,582.78,35.36Z" transform="translate(-551.21 29.87)"/><path class="cls-49" d="M713.54,266.21c-.82.24-1,1.19-2,.9-.44-.14-.71-.26-.69-.72s.25-.79.71-.73A3.24,3.24,0,0,1,713.54,266.21Z" transform="translate(-551.21 29.87)"/><path class="cls-50" d="M792.69,186.24c.22-1.05,1.22-1.4,1.88-2.05.15-.15.41,0,.57.19-.36.82-1.37,1.15-1.53,2.2C793.56,186.94,792.87,186.79,792.69,186.24Z" transform="translate(-551.21 29.87)"/><path class="cls-51" d="M619.34,6.59a.59.59,0,0,1,.65.59,1.27,1.27,0,0,1-1.08,1.42c-.46,0-.48-.38-.52-.7A1.14,1.14,0,0,1,619.34,6.59Z" transform="translate(-551.21 29.87)"/><path class="cls-52" d="M593.69,227.6a2.36,2.36,0,0,1,1.44.21c.48.12.54.48.58.87a.42.42,0,0,1-.34.48,1,1,0,0,1-1.19-.27A6.47,6.47,0,0,1,593.69,227.6Z" transform="translate(-551.21 29.87)"/><path class="cls-53" d="M729.35,234a3.45,3.45,0,0,1-2.15-2.41l.35,0a2.31,2.31,0,0,1,.35.18c.68.48,1.68.65,1.66,1.78a2.32,2.32,0,0,0-.22.41Z" transform="translate(-551.21 29.87)"/><path class="cls-54" d="M641.4,98.28c-.1-.33-.13-.63.3-.77a2.92,2.92,0,0,1,2,.21c.3.59-.25.93-.3,1.41s-.41.15-.64,0C642.52,98.52,641.76,98.73,641.4,98.28Z" transform="translate(-551.21 29.87)"/><path class="cls-55" d="M767.54,276.78a1.29,1.29,0,0,1-.12-1.34.83.83,0,0,1,1.05-.57c.41.1.53.83.23,1.29a1.42,1.42,0,0,1-.36.33A1,1,0,0,1,767.54,276.78Z" transform="translate(-551.21 29.87)"/><path class="cls-56" d="M561.83,71.36c-.29-1.44-.29-1.44,1.4-1.52,0,1.36-.15,1.55-1.37,1.8-.11,0-.15-.11-.13-.17S561.79,71.37,561.83,71.36Z" transform="translate(-551.21 29.87)"/><path class="cls-57" d="M636.94,86.84c.43-.09.88-.28,1.22.15s-.09.8-.3,1.14-.53,1-1.18,1.05A2.07,2.07,0,0,1,636.94,86.84Z" transform="translate(-551.21 29.87)"/><path class="cls-58" d="M626,37.68c.59.37.45.91.36,1.45s.21.78.74.76c-.38.5-.88.72-1.41.31a1,1,0,0,1-.19-1.48C625.69,38.39,625.83,38,626,37.68Z" transform="translate(-551.21 29.87)"/><path class="cls-59" d="M821.81,263.38a2.81,2.81,0,0,1-1.88-.5c.94-1.59.94-1.59,1.78-.49A.69.69,0,0,1,821.81,263.38Z" transform="translate(-551.21 29.87)"/><path class="cls-60" d="M639.46,183.5a1.77,1.77,0,0,1-.34,1.33.65.65,0,0,1-.84.29c-.27-.1-.52-.29-.47-.58s0-.83.44-.95A8.21,8.21,0,0,1,639.46,183.5Z" transform="translate(-551.21 29.87)"/><path class="cls-61" d="M703.45,119.22c-.12,0-.19,0-.21,0-.36-.43-1.26-.73-.87-1.37s1.15-.28,1.82,0Z" transform="translate(-551.21 29.87)"/><path class="cls-62" d="M739.25,282.9c-.85.93-1.93.59-3,.54,0-.11,0-.22-.07-.33.14-.22,0-.5.17-.71a7.88,7.88,0,0,1,2.11.33c.22.16.5.06.73.18Z" transform="translate(-551.21 29.87)"/><path class="cls-63" d="M735.12,58.33c-1,.88-1.38.79-1.88-.56C734.24,57.07,734.24,57.07,735.12,58.33Z" transform="translate(-551.21 29.87)"/><path class="cls-64" d="M605.81,188.86c0-.16-.08-.38,0-.47.37-.41.73-.11,1,.14.39.42,1,.76.92,1.42-.07.44-.59.4-1,.38C605.91,190.16,606.18,189.31,605.81,188.86Z" transform="translate(-551.21 29.87)"/><path class="cls-65" d="M609.19,334.9c.28-.78,1.14-.67,1.62-1.1a.37.37,0,0,1,.24.41c-.16,1.68-.29,1.74-1.8,1-.08,0-.12-.09-.11-.16S609.17,334.91,609.19,334.9Z" transform="translate(-551.21 29.87)"/><path class="cls-66" d="M616.09,125.92c.62,0,.57.59,1,.71s.69.23.5.65-.71.45-1.14.4-.64-.24-.56-.64S615.81,126.27,616.09,125.92Z" transform="translate(-551.21 29.87)"/><path class="cls-67" d="M761.93,191.21c-.46-.89-.37-1.19.4-1.28a10.3,10.3,0,0,1,1.11,0c.25.25.17.53.11.81a1.93,1.93,0,0,1-.15.4c-.26.33-.44.77-1,.65h0C762.2,191.64,762.21,191.31,761.93,191.21Z" transform="translate(-551.21 29.87)"/><path class="cls-68" d="M777.35,242.31c.13.08.38.15.38.24,0,.54,1.06.71.58,1.34s-1.07.41-1.66.19c-.34-.49,0-.92.11-1.37h0C776.89,242.48,777.19,242.49,777.35,242.31Z" transform="translate(-551.21 29.87)"/><path class="cls-69" d="M656.38,223.71c.79.15,1.22-.5,1.82-.3a.41.41,0,0,1-.07.63c-.3.29,0,1-.67,1S656.72,224.49,656.38,223.71Z" transform="translate(-551.21 29.87)"/><path class="cls-70" d="M730.5,166.79c-.33,0-.64-.07-.72-.48a1.13,1.13,0,0,1,1-1.11.61.61,0,0,1,.66.39C731.59,166,731.07,166.69,730.5,166.79Z" transform="translate(-551.21 29.87)"/><path class="cls-71" d="M792.47,182.86c.43.89.39,1.64-.63,2.09a1.66,1.66,0,0,1-.81-.88c.12-.64.66-.89,1.12-1.21l.17,0Z" transform="translate(-551.21 29.87)"/><path class="cls-72" d="M763.78,189.92c.65.24,1.48.37.72,1.38-.33.43.35,1.06-.21,1.5-.1-.74-1.48-.79-1-1.84h0C763.48,190.62,763.59,190.25,763.78,189.92Z" transform="translate(-551.21 29.87)"/><path class="cls-73" d="M706.56,60.91c-.14-.89-.37-1.58.45-2.06a.54.54,0,0,1,.75,0,.43.43,0,0,1,0,.6C707.4,59.9,707.32,60.52,706.56,60.91Z" transform="translate(-551.21 29.87)"/><path class="cls-74" d="M783.09,129a2.71,2.71,0,0,0-1.69,0,3.08,3.08,0,0,0,.24-2.27A2.66,2.66,0,0,1,783.09,129Z" transform="translate(-551.21 29.87)"/><path class="cls-75" d="M679.88,346.65c.16-.38.58-.51.79-.28a4.29,4.29,0,0,0,1.41,1.27c.07,0,.06.3,0,.45a.29.29,0,0,1-.39.2c-.41-.12-.88,0-1.27-.23s.92-.23,0-.51C680.12,347.43,680,347,679.88,346.65Z" transform="translate(-551.21 29.87)"/><path class="cls-76" d="M701.72,322.06c.14.44-.21.72-.3,1.08s0,.73-.51.66-.47-.41-.57-.73-.1-.68.33-.75S701.32,321.89,701.72,322.06Z" transform="translate(-551.21 29.87)"/><path class="cls-77" d="M759,212a.66.66,0,0,1-.88-.41c-.16-.44.21-.72.59-.83a1,1,0,0,1,1.25.49C760.11,211.87,759.4,211.81,759,212Z" transform="translate(-551.21 29.87)"/><path class="cls-78" d="M619.17,66.7a.55.55,0,0,1,.5-.73c.43-.07.94-.18,1.14.35s-.22.71-.58.85A.79.79,0,0,1,619.17,66.7Z" transform="translate(-551.21 29.87)"/><path class="cls-79" d="M560.61-9.17a1.24,1.24,0,0,1,0-.33c0-.74.58-.68,1.07-.72.26,0,.45.11.44.37,0,.45-.12.87-.67,1a5.17,5.17,0,0,0-.63.21A.42.42,0,0,1,560.61-9.17Z" transform="translate(-551.21 29.87)"/><path class="cls-80" d="M636.94,86.84a10.9,10.9,0,0,1-.26,2.34c-.8.22-.69-.41-.78-.85a1.38,1.38,0,0,1,.4-1.45Z" transform="translate(-551.21 29.87)"/><path class="cls-81" d="M588.84,140.48c-.37.29-.78.52-1.19.13s0-.71.14-1,0-1,.77-.81A1.78,1.78,0,0,1,588.84,140.48Z" transform="translate(-551.21 29.87)"/><path class="cls-82" d="M635.2,243.37c-.45.18-.8.13-.86-.41,0-.37-.07-.89.44-.92a1,1,0,0,1,1,1C635.84,243.37,635.48,243.38,635.2,243.37Z" transform="translate(-551.21 29.87)"/><path class="cls-83" d="M607.32,215.13a3.53,3.53,0,0,0-1.4,1.61c0-.27-.11-.54-.15-.81-.07-.43-.29-.92.25-1.17A1,1,0,0,1,607.32,215.13Z" transform="translate(-551.21 29.87)"/><path class="cls-84" d="M641.4,98.28c1.13-.08,1.37.07,1.38.85a2.46,2.46,0,0,1-1.86.15C640.76,98.75,641.26,98.61,641.4,98.28Z" transform="translate(-551.21 29.87)"/><path class="cls-85" d="M813.15,289.27c-.41.4-.86.18-1.27.23s-.54.21-.72-.11,0-.52.23-.71.48-.49.83-.21S812.84,289,813.15,289.27Z" transform="translate(-551.21 29.87)"/><path class="cls-86" d="M753.43,272.59h.32c.91.54.89,1-.12,1.37-.25-.28-.62-.18-.92-.3-.72-.29-.74-.62,0-1A.71.71,0,0,1,753.43,272.59Z" transform="translate(-551.21 29.87)"/><path class="cls-87" d="M760.48,267c.49,0,.57.43.58.82s-.16.71-.51.73c-.56,0-.69-.49-.71-.9S760.08,267,760.48,267Z" transform="translate(-551.21 29.87)"/><path class="cls-88" d="M667.15,90.78c-.5-.4-.4-.85-.08-1.28a.52.52,0,0,1,.73-.12c.5.37.91.81.49,1.5C667.91,90.9,667.55,90.62,667.15,90.78Z" transform="translate(-551.21 29.87)"/><path class="cls-89" d="M753.63,274c.63-.41.57-.87.12-1.37.62-.19,1.11-.22,1,.69a8.67,8.67,0,0,0,0,1.14c.1.07.15.15.13.24s0,.14-.08.14C754.33,274.64,753.7,274.69,753.63,274Z" transform="translate(-551.21 29.87)"/><path class="cls-90" d="M733.17,59.13c.68.27,1.5.06,2.1.62a7.39,7.39,0,0,0-1.24.45c-.73.52-.87.43-.94-.4A3.94,3.94,0,0,1,733.17,59.13Z" transform="translate(-551.21 29.87)"/><path class="cls-91" d="M763.29,191c.07.26,0,.7.3.72.79.08.55.7.7,1.12a1.92,1.92,0,0,1-1.88-1Z" transform="translate(-551.21 29.87)"/><path class="cls-92" d="M706.6,261.73c-.63.75-1.2.37-1.64-.17s-.12-.8.39-1C706.19,260.5,706.54,261,706.6,261.73Z" transform="translate(-551.21 29.87)"/><path class="cls-93" d="M589.78,79.05c-.53.5-.89.82-1.32,1.22a1,1,0,0,1-.37-1.28C588.46,78.45,589,78.76,589.78,79.05Z" transform="translate(-551.21 29.87)"/><path class="cls-94" d="M604.57,26.41c-.44.07-1.23-.49-1.22-.88a.49.49,0,0,1,.43-.43.85.85,0,0,1,1.1.84C604.9,26.19,604.83,26.36,604.57,26.41Z" transform="translate(-551.21 29.87)"/><path class="cls-95" d="M761.17,318.53c.46.56.46.56.38,1.66-.45-.88-1.4-.65-1.78-1.38a2,2,0,0,0,.26-.4h0C760.45,318,760.82,318.2,761.17,318.53Z" transform="translate(-551.21 29.87)"/><path class="cls-96" d="M651.65,137.41c0-.47.34-.67.68-.8s.73.07.88.48-.08.63-.44.73A.87.87,0,0,1,651.65,137.41Z" transform="translate(-551.21 29.87)"/><path class="cls-97" d="M644.23,290.32c.09.36.23.72-.15,1-.13-.09-.2-.36-.44-.15-.16-.14-.31-.36-.49-.4-.87-.2-.71-.65-.35-1.18C643.48,289.44,643.87,289.85,644.23,290.32Z" transform="translate(-551.21 29.87)"/><path class="cls-98" d="M682.9,303.26a.25.25,0,0,1-.19.14c-.29.12-.17.46-.35.65-.86.64-.86.64-1.19-.4a1.07,1.07,0,0,1,.65-.88l.58-.1c.12-.18.24-.18.37,0a.39.39,0,0,1,.12.25A.24.24,0,0,1,682.9,303.26Z" transform="translate(-551.21 29.87)"/><path class="cls-99" d="M660.2,358.85c-.37-.06-.87,0-1-.58s.26-.52.6-.55c.56-.06.77.31.84.75C660.7,358.71,660.5,358.85,660.2,358.85Z" transform="translate(-551.21 29.87)"/><path class="cls-100" d="M741.3,119.52c.67-.41.56-1.28,1.05-1.79,0,0,.08.07.1.12C743.06,119.32,742.84,119.64,741.3,119.52Z" transform="translate(-551.21 29.87)"/><path class="cls-101" d="M723.49,146.35a2.87,2.87,0,0,0-.84,1.61,1.63,1.63,0,0,1-.67-1.73C722.47,146,722.91,146.26,723.49,146.35Z" transform="translate(-551.21 29.87)"/><path class="cls-102" d="M733.4,267.77c-.17-.49.17-.68.47-.75s.74,0,.78.4a.84.84,0,0,1-.66,1C733.56,268.49,733.62,267.94,733.4,267.77Z" transform="translate(-551.21 29.87)"/><path class="cls-103" d="M750.15,193.47c0-.54.33-.77.77-.91.22-.08.52,0,.58.19.14.51-.21.81-.63,1A.53.53,0,0,1,750.15,193.47Z" transform="translate(-551.21 29.87)"/><path class="cls-104" d="M679.88,346.65c.4.12.57.49.84.75.43.41,0,.5-.27.66-1.05.24-1.1.21-.89-.67A4.35,4.35,0,0,1,679.88,346.65Z" transform="translate(-551.21 29.87)"/><path class="cls-105" d="M575.67,24.35a2.28,2.28,0,0,1-.2.45c-.27.34-.58.8-1,.69s-.24-.77-.47-1.12C574.52,23.69,575.09,23.83,575.67,24.35Z" transform="translate(-551.21 29.87)"/><path class="cls-106" d="M804.5,267.68c-.49-.29-1.21-.09-1.07-.84.06-.37.44-.77.83-.63C805.08,266.52,804.3,267.11,804.5,267.68Z" transform="translate(-551.21 29.87)"/><path class="cls-107" d="M696.31,101.62c.54-.32,1-.86,1.62-1,0,.12,0,.23,0,.34-.2.3.14.67-.13,1C697.2,102.14,696.58,102.65,696.31,101.62Z" transform="translate(-551.21 29.87)"/><path class="cls-108" d="M644.23,290.32l-1.43-.72v0a4.25,4.25,0,0,0,.21-.43c.26-.7.64-.28,1-.12s.59.17.49.59C644.25,289.79,644.26,290.06,644.23,290.32Z" transform="translate(-551.21 29.87)"/><path class="cls-109" d="M644.9,153.47a2.87,2.87,0,0,1,.5-.07c.43,0,.8.19.85.64.06.67-.52.59-.93.68C645.38,154.24,644.83,154,644.9,153.47Z" transform="translate(-551.21 29.87)"/><path class="cls-110" d="M703,356.55a.77.77,0,0,1-.69-.8c0-.29,0-.63.36-.65a.7.7,0,0,1,.79.68C703.49,356.08,703.47,356.48,703,356.55Z" transform="translate(-551.21 29.87)"/><path class="cls-111" d="M674.35,203.49c.54.72,0,1.21-.4,1.7C673.28,204.24,673.34,204,674.35,203.49Z" transform="translate(-551.21 29.87)"/><path class="cls-112" d="M734.35,132.39c-.42.44-.1.94-.1,1.42a3.94,3.94,0,0,1-1.44-.87,5,5,0,0,1,1.45-.91Z" transform="translate(-551.21 29.87)"/><path class="cls-113" d="M605.81,188.86c1,.09.49,1.06.92,1.47C605.18,190.24,605.18,190.24,605.81,188.86Z" transform="translate(-551.21 29.87)"/><path class="cls-114" d="M706.6,261.73l-1.25-1.16c.59-.55,1.16-.19,1.58.17S707,261.49,706.6,261.73Z" transform="translate(-551.21 29.87)"/><path class="cls-115" d="M575.67,24.35c-.57.06-1.15-.27-1.71,0v0a.47.47,0,0,1-.06-.4h0a3.11,3.11,0,0,0,.31-.32,1.73,1.73,0,0,1,1.13-.17C575.87,23.57,576.17,23.83,575.67,24.35Z" transform="translate(-551.21 29.87)"/><path class="cls-116" d="M782.07,306.17a.86.86,0,0,1,.84-.76c.26,0,.36.2.35.42,0,.49-.24.83-.79.81C782.22,306.63,782.11,306.46,782.07,306.17Z" transform="translate(-551.21 29.87)"/><path class="cls-117" d="M700.39,112.35c-.08-.34,0-.5.27-.57.41-.12.76-.09.89.41.07.27.07.6-.27.65S700.62,112.54,700.39,112.35Z" transform="translate(-551.21 29.87)"/><path class="cls-118" d="M720.56-2.94a1.73,1.73,0,0,1-2.14,1c-.18-.77.32-.81.86-.79a.44.44,0,0,0,.63-.17h0a.42.42,0,0,1,.64-.06Z" transform="translate(-551.21 29.87)"/><path class="cls-119" d="M691,296.76l-1.72.33a3.68,3.68,0,0,1,.21-.45c.22-.36.31-1,.83-.93S690.86,296.37,691,296.76Z" transform="translate(-551.21 29.87)"/><path class="cls-120" d="M668.25,256.55c-.35.09-.68.1-.7-.37,0-.24-.18-.6.19-.69a.81.81,0,0,1,1,.57C668.86,256.39,668.52,256.49,668.25,256.55Z" transform="translate(-551.21 29.87)"/><path class="cls-121" d="M636.3,86.88c-.23.46-.07,1-.4,1.45a3.68,3.68,0,0,1-.45-.21c-.67-.4-.71-.67-.11-1A4.23,4.23,0,0,1,636.3,86.88Z" transform="translate(-551.21 29.87)"/><path class="cls-122" d="M683.46,53.17c0-.58-.62-.49-.93-.75.13-.56.86-.7.91-1.3A2.11,2.11,0,0,1,683.46,53.17Z" transform="translate(-551.21 29.87)"/><path class="cls-123" d="M672.63,78.76c0-.18,0-.45.3-.48.49,0,.68.3.74.72s-.19.41-.41.42C672.85,79.44,672.67,79.17,672.63,78.76Z" transform="translate(-551.21 29.87)"/><path class="cls-124" d="M588.84,140.48c-.46-.51-.09-1.15-.28-1.71a1.84,1.84,0,0,1,.9,1.45C589.48,140.8,589.16,140.65,588.84,140.48Z" transform="translate(-551.21 29.87)"/><path class="cls-125" d="M641.57,241.76c-.2-.69.06-1,.77-1.11C642.94,241.59,642.89,241.66,641.57,241.76Z" transform="translate(-551.21 29.87)"/><path class="cls-126" d="M755.21,152.05a.39.39,0,0,1,.25-.52c.65-.21.63.38.83.71a.27.27,0,0,1-.08.4C756,152.81,755.33,152.44,755.21,152.05Z" transform="translate(-551.21 29.87)"/><path class="cls-127" d="M753.43,272.59l-.74.11c-.15-.74-.77-1.17-1.13-1.81C752.54,271.05,752.8,272,753.43,272.59Z" transform="translate(-551.21 29.87)"/><path class="cls-128" d="M702.34,182.63c0-.31.1-.6.41-.6s.56.32.63.67.07.44-.21.53A.75.75,0,0,1,702.34,182.63Z" transform="translate(-551.21 29.87)"/><path class="cls-129" d="M654.38,52.43c.64.16.79.49.35,1a1.66,1.66,0,0,1-.81.49C653.53,53.28,654.26,53,654.38,52.43Z" transform="translate(-551.21 29.87)"/><path class="cls-130" d="M761.17,318.53l-1.14-.12a1.26,1.26,0,0,1,.12-.29c.22-.33.38-.92.87-.73S761.2,318.13,761.17,318.53Z" transform="translate(-551.21 29.87)"/><path class="cls-131" d="M608.61,250.48c-.65-.09-1.2-.06-1.11-.79,0-.14.17-.38.23-.37C608.31,249.4,608.42,249.88,608.61,250.48Z" transform="translate(-551.21 29.87)"/><path class="cls-132" d="M672.45,130.06c.29.75-.22,1.09-.66,1.66C671.39,130.72,672.16,130.52,672.45,130.06Z" transform="translate(-551.21 29.87)"/><path class="cls-133" d="M693.19,172.75c-.19-.53-.42-.95,0-1.31a.46.46,0,0,1,.59.16C694,172.11,693.65,172.39,693.19,172.75Z" transform="translate(-551.21 29.87)"/><path class="cls-134" d="M760.39,257c.55-.85.55-.85,1.41,0A2.08,2.08,0,0,1,760.39,257Z" transform="translate(-551.21 29.87)"/><path class="cls-135" d="M606.08,163.31c-.23,0-.53.07-.59-.28a.52.52,0,0,1,.4-.6.49.49,0,0,1,.65.32C606.64,163.06,606.4,163.22,606.08,163.31Z" transform="translate(-551.21 29.87)"/><path class="cls-136" d="M601.36,6.65c.41-.08.61.12.65.5,0,.19.06.46-.25.47a.75.75,0,0,1-.71-.55C601,6.84,601.11,6.69,601.36,6.65Z" transform="translate(-551.21 29.87)"/><path class="cls-137" d="M678.08,237.78c-.32,0-.53-.11-.56-.45s.07-.63.4-.57.42.36.52.6S678.33,237.74,678.08,237.78Z" transform="translate(-551.21 29.87)"/><path class="cls-138" d="M798.58,205.6c.08-.07.19-.23.33-.26a.75.75,0,0,1,1,.37.6.6,0,0,1-.06.43A1.14,1.14,0,0,1,798.58,205.6Z" transform="translate(-551.21 29.87)"/><path class="cls-139" d="M603.05,50.54l1.08-.21c.33.55-.08.87-.46,1C603.11,51.45,603.16,50.89,603.05,50.54Z" transform="translate(-551.21 29.87)"/><path class="cls-140" d="M698.19,267.07a.42.42,0,0,1,.54.23.56.56,0,0,1-.29.81c-.28.11-.5-.11-.58-.4S698,267.21,698.19,267.07Z" transform="translate(-551.21 29.87)"/><path class="cls-141" d="M632.72-3.86c.35-.13.54,0,.63.3a.4.4,0,0,1-.19.53.49.49,0,0,1-.67-.24C632.3-3.57,632.5-3.74,632.72-3.86Z" transform="translate(-551.21 29.87)"/><path class="cls-142" d="M775.21,168.69c-.35.12-.5-.14-.7-.32s-.34-.47,0-.67.4.08.52.27S775.41,168.37,775.21,168.69Z" transform="translate(-551.21 29.87)"/><path class="cls-143" d="M737.47,55.53a.8.8,0,0,1,1-.39.46.46,0,0,1,.09.43C738.17,56.07,737.81,55.93,737.47,55.53Z" transform="translate(-551.21 29.87)"/><path class="cls-144" d="M658.54,205.83a.52.52,0,0,1,.35-.62c.25-.1.39.09.41.32s0,.44-.26.51S658.63,206.09,658.54,205.83Z" transform="translate(-551.21 29.87)"/><path class="cls-145" d="M700.51,234.34c0,.35-.24.34-.43.37s-.55.15-.68-.18a.57.57,0,0,1,.05-.46c.22-.32.46,0,.68,0A3.48,3.48,0,0,1,700.51,234.34Z" transform="translate(-551.21 29.87)"/><path class="cls-146" d="M689.53,48.23a.66.66,0,0,1,.22,0c.33.17.76.27.64.79,0,.07-.18.17-.26.16C689.59,49.09,689.47,48.72,689.53,48.23Z" transform="translate(-551.21 29.87)"/><path class="cls-147" d="M689.42,332.27c-.25.12-.36,0-.44-.17a.59.59,0,0,1,.18-.86c.2-.13.32,0,.37.18C689.66,331.73,689.76,332.06,689.42,332.27Z" transform="translate(-551.21 29.87)"/><path class="cls-148" d="M685.29,134.68c-.38.16-.52-.06-.61-.33s-.12-.46.14-.53.5.15.65.37S685.42,134.56,685.29,134.68Z" transform="translate(-551.21 29.87)"/><path class="cls-149" d="M776.76,242.71a2.3,2.3,0,0,1-.11,1.37c-.48,0-.81-.1-.53-.64A3.65,3.65,0,0,1,776.76,242.71Z" transform="translate(-551.21 29.87)"/><path class="cls-150" d="M605.91,216.75l.4.68c-.61-.13-1.11.29-1.77.5C604.76,217.06,605.53,217.15,605.91,216.75Z" transform="translate(-551.21 29.87)"/><path class="cls-151" d="M821.81,263.38l-.1-1c.3,0,.77-.24.85.21S822.12,263.17,821.81,263.38Z" transform="translate(-551.21 29.87)"/><path class="cls-152" d="M659.38,210c.32,0,.45.24.49.52s0,.47-.29.43-.37-.33-.41-.6A.28.28,0,0,1,659.38,210Z" transform="translate(-551.21 29.87)"/><path class="cls-153" d="M619.36,13.31a.56.56,0,0,1,.36.65c-.22.53-.81.4-1.24.54-.13.05-.27-.13-.09-.29a.74.74,0,0,1,.29-.12C619,13.93,619,13.48,619.36,13.31Z" transform="translate(-551.21 29.87)"/><path class="cls-154" d="M605.69,105.83a.36.36,0,0,1-.44-.36.43.43,0,0,1,.43-.42.36.36,0,0,1,.43.37C606.13,105.69,605.91,105.78,605.69,105.83Z" transform="translate(-551.21 29.87)"/><path class="cls-155" d="M696.66,118.76c-.2,0-.32-.11-.32-.29s.09-.53.42-.55c.17,0,.32.06.31.27S697,118.7,696.66,118.76Z" transform="translate(-551.21 29.87)"/><path class="cls-156" d="M759.41,316c.64.19.68.62.65,1.23C759.61,316.87,759.31,316.59,759.41,316Z" transform="translate(-551.21 29.87)"/><path class="cls-157" d="M667.15,90.78c.45-.76.79-.29,1.14.1C667.84,91.69,667.51,91,667.15,90.78Z" transform="translate(-551.21 29.87)"/><path class="cls-158" d="M675.3,15.66c.26,0,.37.17.45.37a.43.43,0,0,1-.18.56c-.24.14-.41,0-.5-.23A.53.53,0,0,1,675.3,15.66Z" transform="translate(-551.21 29.87)"/><path class="cls-159" d="M797.83,263c-.2,0-.48-.12-.47-.47a.29.29,0,0,1,.35-.25.52.52,0,0,1,.46.41C798.2,262.9,798.12,263,797.83,263Z" transform="translate(-551.21 29.87)"/><path class="cls-160" d="M681.82,302.77a1.18,1.18,0,0,1-.65.88A.43.43,0,0,1,681,303C681.22,302.7,681.47,302.48,681.82,302.77Z" transform="translate(-551.21 29.87)"/><path class="cls-161" d="M682.77,302.67h-.37a2.74,2.74,0,0,1,.57-1.35C683.5,302,682.69,302.23,682.77,302.67Z" transform="translate(-551.21 29.87)"/><path class="cls-162" d="M733.19,342.23l1.06-.23c-.29.44-.16.95-.21,1.6C733.62,343.12,733.64,342.51,733.19,342.23Z" transform="translate(-551.21 29.87)"/><path class="cls-163" d="M752.3,19.08c-.08.73,0,1.22-.64,1.57A1.78,1.78,0,0,1,752.3,19.08Z" transform="translate(-551.21 29.87)"/><path class="cls-164" d="M619.36,13.31c0,.5-.19.74-.68.78a4.28,4.28,0,0,1,0-.62C618.77,12.91,619,12.9,619.36,13.31Z" transform="translate(-551.21 29.87)"/><path class="cls-165" d="M671.89,212.9c-.07-.29,0-.55.27-.67s.3.08.34.24a.51.51,0,0,1-.29.67C672,213.21,671.94,213.05,671.89,212.9Z" transform="translate(-551.21 29.87)"/><path class="cls-5" d="M792.15,182.86c-.37.4-.75.8-1.12,1.21A1,1,0,0,1,792.15,182.86Z" transform="translate(-551.21 29.87)"/><path class="cls-166" d="M639.22,221.08c0-.23.25-.36.53-.4s.45,0,.35.32a.52.52,0,0,1-.58.44C639.36,221.43,639.2,221.4,639.22,221.08Z" transform="translate(-551.21 29.87)"/><path class="cls-167" d="M783.63,132.78a1.13,1.13,0,0,1-.42-1.3C783.74,131.83,783.7,132.26,783.63,132.78Z" transform="translate(-551.21 29.87)"/><path class="cls-168" d="M734.79,131l-.61.13c-.06-.41-.43-.75-.3-1.26C734.47,130,734.46,130.62,734.79,131Z" transform="translate(-551.21 29.87)"/><path class="cls-169" d="M681.4,262.53a.31.31,0,0,1,.16-.43.3.3,0,0,1,.43,0,.27.27,0,0,1-.19.46C681.67,262.64,681.52,262.55,681.4,262.53Z" transform="translate(-551.21 29.87)"/><path class="cls-170" d="M743.05,220.47c0-.22.06-.36.25-.36s.35.21.45.39,0,.31-.13.34C743.3,220.9,743.18,220.65,743.05,220.47Z" transform="translate(-551.21 29.87)"/><path class="cls-171" d="M694.77,158.67l.66.22a1.53,1.53,0,0,1-.63,1C694.51,159.47,694.87,159.06,694.77,158.67Z" transform="translate(-551.21 29.87)"/><path class="cls-172" d="M739.24,152.55a.41.41,0,0,1,.22-.52c.29-.12.39.12.42.31s0,.44-.31.46A.28.28,0,0,1,739.24,152.55Z" transform="translate(-551.21 29.87)"/><path class="cls-173" d="M606-8.81a.2.2,0,0,1,.19-.1.39.39,0,0,1,.44,0c.1.47.49,1.12-.54.88A.65.65,0,0,1,606-8.81Z" transform="translate(-551.21 29.87)"/><path class="cls-174" d="M589.92,34.15a.41.41,0,0,1,.36-.46c.14,0,.42.05.43.1a.5.5,0,0,1-.44.57A.26.26,0,0,1,589.92,34.15Z" transform="translate(-551.21 29.87)"/><path class="cls-175" d="M664.81,175.64a.71.71,0,0,1-.75.5c-.06,0-.17-.19-.15-.24C664.1,175.47,664.42,175.43,664.81,175.64Z" transform="translate(-551.21 29.87)"/><path class="cls-58" d="M626.59,36.86l-.73.53c-.24-.11-.34-.32-.16-.5A.64.64,0,0,1,626.59,36.86Z" transform="translate(-551.21 29.87)"/><path class="cls-176" d="M669.39,24.57c-.24,0-.4-.1-.34-.29a.54.54,0,0,1,.34-.26c.14,0,.35,0,.27.25S669.46,24.49,669.39,24.57Z" transform="translate(-551.21 29.87)"/><path class="cls-177" d="M721.73,105.91a.32.32,0,0,1,.22.37c0,.18-.08.34-.28.33s-.26-.16-.23-.34A.39.39,0,0,1,721.73,105.91Z" transform="translate(-551.21 29.87)"/><path class="cls-178" d="M582.22,34.42c0,.23.08.45.13.67-.33.07-.77.09-.83-.26S582,34.57,582.22,34.42Z" transform="translate(-551.21 29.87)"/><path class="cls-179" d="M685.72,177c0-.09.07-.26.11-.26a.4.4,0,0,1,.42.39.31.31,0,0,1-.13.24C685.83,177.46,685.77,177.24,685.72,177Z" transform="translate(-551.21 29.87)"/><path class="cls-180" d="M646.58,189.12a.28.28,0,1,1-.55.12c0-.14,0-.4.07-.41A.43.43,0,0,1,646.58,189.12Z" transform="translate(-551.21 29.87)"/><path class="cls-181" d="M826.63,232.14c0-.19,0-.36.23-.31a.56.56,0,0,1,.34.3c.09.19,0,.33-.24.32A.37.37,0,0,1,826.63,232.14Z" transform="translate(-551.21 29.87)"/><path class="cls-182" d="M579.07,177.47c0-.17.09-.3.27-.31a.41.41,0,0,1,.46.34.25.25,0,0,1-.27.29A.39.39,0,0,1,579.07,177.47Z" transform="translate(-551.21 29.87)"/><path class="cls-183" d="M765.67,204.48c.34.17.74.51.5.8s-.59-.14-.86-.32A.52.52,0,0,1,765.67,204.48Z" transform="translate(-551.21 29.87)"/><path class="cls-184" d="M743.38,208.49c-.07.07-.13.19-.2.19-.36,0-.63-.15-.63-.56,0-.14.1-.17.24-.13A.74.74,0,0,1,743.38,208.49Z" transform="translate(-551.21 29.87)"/><path class="cls-185" d="M751.58,124.68c.1,0,.27.06.27.11a.63.63,0,0,1-.39.66c-.05,0-.22-.06-.23-.11C751.15,125,751.33,124.83,751.58,124.68Z" transform="translate(-551.21 29.87)"/><path class="cls-186" d="M776.06,137.5c0-.2.08-.41.37-.37a.34.34,0,0,1,.19.23c0,.24,0,.48-.3.51S776.08,137.71,776.06,137.5Z" transform="translate(-551.21 29.87)"/><path class="cls-187" d="M715.72,147.49a.38.38,0,0,1-.33-.35c0-.16.18-.24.35-.24a.32.32,0,0,1,.35.26C716.13,147.34,716.05,147.47,715.72,147.49Z" transform="translate(-551.21 29.87)"/><path class="cls-188" d="M667,126.46l-.18-1c.26,0,.55-.08.62.26S667.26,126.29,667,126.46Z" transform="translate(-551.21 29.87)"/><path class="cls-189" d="M679.19,91.55c0-.16.12-.23.28-.24a.32.32,0,0,1,.38.23.26.26,0,0,1-.27.32A.39.39,0,0,1,679.19,91.55Z" transform="translate(-551.21 29.87)"/><path class="cls-38" d="M720.54-2.95l-.64.06c.1-.35.21-.7.41-1.38C720.43-3.61,720.48-3.28,720.54-2.95Z" transform="translate(-551.21 29.87)"/><path class="cls-190" d="M630.13,209.15c0,.08.14-.06.3-.09s.4,0,.44.07a.37.37,0,0,1-.27.5C630.44,209.68,630.28,209.61,630.13,209.15Z" transform="translate(-551.21 29.87)"/><path class="cls-191" d="M681.62,2.79c.22,0,.46,0,.46.3a.25.25,0,0,1-.33.23.59.59,0,0,1-.38-.24C681.28,2.89,681.46,2.83,681.62,2.79Z" transform="translate(-551.21 29.87)"/><path class="cls-192" d="M654.14,208.21c-.24,0-.39-.09-.32-.28a.54.54,0,0,1,.34-.26c.14,0,.37,0,.27.24S654.22,208.13,654.14,208.21Z" transform="translate(-551.21 29.87)"/><path class="cls-193" d="M699.6,173.45c-.22,0-.41-.16-.39-.39s.22-.2.38-.18.32.09.31.29A.3.3,0,0,1,699.6,173.45Z" transform="translate(-551.21 29.87)"/><path class="cls-194" d="M711.71,286.71c.28.18.36.47,0,.58s-.34-.28-.4-.52A.28.28,0,0,1,711.71,286.71Z" transform="translate(-551.21 29.87)"/><path class="cls-74" d="M781.39,129c.06.32.11.63.17.95C780.83,129.71,780.79,129.39,781.39,129Z" transform="translate(-551.21 29.87)"/><path class="cls-195" d="M651.84-13c.19,0,.32.06.33.26s-.07.33-.29.28a.45.45,0,0,1-.24-.19C651.53-12.9,651.67-13,651.84-13Z" transform="translate(-551.21 29.87)"/><path class="cls-196" d="M620.86,4.25c0,.25.18.55,0,.73s-.27-.12-.35-.25c-.19-.34,0-.47.32-.53Z" transform="translate(-551.21 29.87)"/><path class="cls-197" d="M642.87,239.54a2.43,2.43,0,0,1,.25-.2c.16-.12.36-.34.52-.1s-.12.36-.28.47a3.29,3.29,0,0,1-.42.21c-.11-.07-.16-.15-.14-.24S642.84,239.55,642.87,239.54Z" transform="translate(-551.21 29.87)"/><path class="cls-198" d="M644.5,289.62,644,289c.31,0,.68-.1.84.23S644.69,289.56,644.5,289.62Z" transform="translate(-551.21 29.87)"/><path class="cls-199" d="M782.23,47.43c.07-.07.13-.19.2-.19s.26.12.2.28a.27.27,0,0,1-.24.13C782.33,47.64,782.28,47.51,782.23,47.43Z" transform="translate(-551.21 29.87)"/><path class="cls-200" d="M737.29,265.29c0-.09,0-.22.11-.26a.22.22,0,0,1,.34.15.26.26,0,0,1-.1.25A.23.23,0,0,1,737.29,265.29Z" transform="translate(-551.21 29.87)"/><path class="cls-201" d="M761.22,316.61c0-.1,0-.25.08-.29s.19,0,.29.06,0,.25-.08.29S761.32,316.63,761.22,316.61Z" transform="translate(-551.21 29.87)"/><path class="cls-202" d="M632.73,13.69a.26.26,0,0,1-.36-.17c-.07-.19.06-.29.2-.36s.29,0,.36.18S632.87,13.61,632.73,13.69Z" transform="translate(-551.21 29.87)"/><path class="cls-203" d="M609.51,24.5c0-.16.15-.29.31-.26a.26.26,0,0,1,.19.34.29.29,0,0,1-.21.18A.23.23,0,0,1,609.51,24.5Z" transform="translate(-551.21 29.87)"/><path class="cls-204" d="M551.21,37.81c0-.18.11-.31.29-.27a.28.28,0,0,1,.17.21.27.27,0,0,1-.29.29C551.32,38,551.26,37.89,551.21,37.81Z" transform="translate(-551.21 29.87)"/><path class="cls-205" d="M749,246.82c.06-.07.1-.19.17-.2s.28.1.24.27a.3.3,0,0,1-.23.14C749.14,247,749.09,246.89,749,246.82Z" transform="translate(-551.21 29.87)"/><path class="cls-206" d="M647.74,381.5a.33.33,0,0,1,.32-.29c.15,0,.37,0,.23.25s-.26.18-.4.24S647.79,381.57,647.74,381.5Z" transform="translate(-551.21 29.87)"/><path class="cls-207" d="M586.1,34.6c-.2.38-.5.32-.82.19C585.49,34.44,585.77,34.46,586.1,34.6Z" transform="translate(-551.21 29.87)"/><path class="cls-208" d="M622.86,176.74c-.07.11-.11.24-.16.25a.39.39,0,0,1-.46-.33s.18-.16.24-.14A1.79,1.79,0,0,1,622.86,176.74Z" transform="translate(-551.21 29.87)"/><path class="cls-209" d="M635.87,63.52c.09,0,.25.08.25.11,0,.24-.25.31-.44.39,0,0-.2-.08-.2-.12C635.46,63.63,635.67,63.57,635.87,63.52Z" transform="translate(-551.21 29.87)"/><path class="cls-210" d="M801.72,233.19c.06-.07.11-.2.18-.21a.22.22,0,0,1,.27.28c0,.07-.17.16-.25.15S801.78,233.27,801.72,233.19Z" transform="translate(-551.21 29.87)"/><path class="cls-211" d="M698.38,239.85c.08-.09.16-.24.29-.29a.19.19,0,0,1,.27.22.49.49,0,0,1-.27.34C698.5,240.21,698.43,240,698.38,239.85Z" transform="translate(-551.21 29.87)"/><path class="cls-212" d="M574.49,70.39l.14.38-1.29.29C573.73,70.51,574.2,70.6,574.49,70.39Z" transform="translate(-551.21 29.87)"/><path class="cls-213" d="M670.59,131.13c-.08-.07-.25-.15-.29-.27a.27.27,0,0,1,.22-.34c.19-.05.28.1.31.25A.27.27,0,0,1,670.59,131.13Z" transform="translate(-551.21 29.87)"/><path class="cls-214" d="M765.67,204.48l-.35.48c-.27-.15-.46-.38-.2-.64S765.52,204.29,765.67,204.48Z" transform="translate(-551.21 29.87)"/><path class="cls-215" d="M648.22,306.73a.24.24,0,0,1,.18.33.29.29,0,0,1-.23.16.22.22,0,0,1-.18-.32C648,306.82,648.14,306.79,648.22,306.73Z" transform="translate(-551.21 29.87)"/><path class="cls-216" d="M746.76,240.11c.19-.19.25-.31.32-.32a.36.36,0,0,1,.41.36s-.17.14-.25.13A2.33,2.33,0,0,1,746.76,240.11Z" transform="translate(-551.21 29.87)"/><path class="cls-217" d="M594.75,59.2c.17,0,.29.06.29.24a.38.38,0,0,1-.13.25.26.26,0,0,1-.36-.15C594.47,59.36,594.58,59.26,594.75,59.2Z" transform="translate(-551.21 29.87)"/><path class="cls-218" d="M653.9,204.58c.06-.07.12-.2.18-.21a.22.22,0,0,1,.26.28.29.29,0,0,1-.24.14C654,204.78,654,204.65,653.9,204.58Z" transform="translate(-551.21 29.87)"/><path class="cls-219" d="M724.46,92.58c.07-.07.13-.19.2-.19a.19.19,0,0,1,.22.28.31.31,0,0,1-.25.14C724.56,92.79,724.52,92.66,724.46,92.58Z" transform="translate(-551.21 29.87)"/><path class="cls-220" d="M696.5,38.13c.09-.2.18-.4.44-.37a.29.29,0,0,1,.15.25c0,.21-.17.4-.43.37C696.6,38.37,696.56,38.22,696.5,38.13Z" transform="translate(-551.21 29.87)"/><path class="cls-221" d="M618,128.52c-.08.08-.15.2-.19.19a.42.42,0,0,1-.36-.43.13.13,0,0,1,.24-.09A3.19,3.19,0,0,1,618,128.52Z" transform="translate(-551.21 29.87)"/><path class="cls-222" d="M724.19,20.76a.29.29,0,0,1,.21-.37c.2-.05.28.12.29.28s0,.27-.1.29A.34.34,0,0,1,724.19,20.76Z" transform="translate(-551.21 29.87)"/><path class="cls-223" d="M632.54,38c.18,0,.28.12.26.28a.27.27,0,0,1-.21.16.23.23,0,0,1-.26-.27C632.33,38.09,632.47,38.05,632.54,38Z" transform="translate(-551.21 29.87)"/><path class="cls-91" d="M763.78,189.92a1,1,0,0,1-.49,1,2.21,2.21,0,0,1,.15-1Z" transform="translate(-551.21 29.87)"/><path class="cls-224" d="M784.68,225.65l1.35-.2C785.64,226,785.2,226.09,784.68,225.65Z" transform="translate(-551.21 29.87)"/><path class="cls-225" d="M611.21,48.5c.06.07.17.14.16.19a.42.42,0,0,1-.43.38c-.05,0-.16-.13-.15-.18A.47.47,0,0,1,611.21,48.5Z" transform="translate(-551.21 29.87)"/><path class="cls-10" d="M697.75,102c0-.33-.15-.67.13-1C697.94,101.34,698.17,101.69,697.75,102Z" transform="translate(-551.21 29.87)"/><path class="cls-58" d="M627.38,39.79c.19-.4.57-.42.94-.47C628.13,39.74,627.76,39.77,627.38,39.79Z" transform="translate(-551.21 29.87)"/><path class="cls-226" d="M730.49,240.75c0-.09,0-.24.08-.26s.25.09.25.23-.09.16-.13.25Z" transform="translate(-551.21 29.87)"/><path class="cls-227" d="M626.25,210c.08-.05.16-.14.24-.15s.17.12.1.23a1.32,1.32,0,0,1-.22.18Z" transform="translate(-551.21 29.87)"/><path class="cls-228" d="M753.2,84.83c-.07,0-.18-.1-.2-.17s.07-.27.24-.21.13.14.19.21Z" transform="translate(-551.21 29.87)"/><path class="cls-229" d="M576.69,62.48c.08,0,.16-.14.24-.14s.18.11.1.22a1,1,0,0,1-.22.17Z" transform="translate(-551.21 29.87)"/><path class="cls-230" d="M735.54,303c.1,0,.24,0,.29.09s0,.19,0,.29a1,1,0,0,1-.3-.12C735.37,303.19,735.4,303.08,735.54,303Z" transform="translate(-551.21 29.87)"/><path class="cls-231" d="M685.94,206.4c.09,0,.19-.13.25-.11a.37.37,0,0,1,.16.24c0,.14-.1.19-.22.11S686,206.49,685.94,206.4Z" transform="translate(-551.21 29.87)"/><path class="cls-232" d="M736,301.27c0,.07.15.14.15.2s-.1.28-.27.22-.11-.18-.08-.25S735.88,301.32,736,301.27Z" transform="translate(-551.21 29.87)"/><path class="cls-233" d="M700.47,120.88a.76.76,0,0,1-.3-.1.15.15,0,0,1,0-.27c.08,0,.21,0,.3.11S700.6,120.81,700.47,120.88Z" transform="translate(-551.21 29.87)"/><path class="cls-234" d="M723.37,184.24a.25.25,0,0,1,.3-.25c.06,0,.17.17.15.19a2.72,2.72,0,0,1-.29.3Z" transform="translate(-551.21 29.87)"/><path class="cls-235" d="M561.83,71.36a.67.67,0,0,1,0,.28.36.36,0,0,1-.28.36c-.13,0-.22-.06-.19-.17A.71.71,0,0,1,561.83,71.36Z" transform="translate(-551.21 29.87)"/><path class="cls-236" d="M647,27.52c0-.18.11-.29.3-.26s.17.13.09.25a1.45,1.45,0,0,1-.21.22Z" transform="translate(-551.21 29.87)"/><path class="cls-237" d="M628.5,27.45c.06-.08.11-.2.19-.22s.27.11.24.27-.16.12-.25.13A.14.14,0,0,1,628.5,27.45Z" transform="translate(-551.21 29.87)"/><path class="cls-238" d="M773.71,319.65c.07,0,.15-.16.21-.15a.22.22,0,0,1,.21.31.26.26,0,0,1-.23.06C773.82,319.83,773.77,319.73,773.71,319.65Z" transform="translate(-551.21 29.87)"/><path class="cls-239" d="M685.44,52.52c0-.16.1-.28.28-.24s.1.17.08.23-.13.13-.2.2Z" transform="translate(-551.21 29.87)"/><path class="cls-240" d="M699.89,324.75c-.15,0-.19-.13-.1-.25a1.55,1.55,0,0,1,.23-.21c0,.09.13.2.1.28S700,324.69,699.89,324.75Z" transform="translate(-551.21 29.87)"/><path class="cls-241" d="M775.23,261.84c.08-.07.15-.17.24-.18s.18.07.28.11c-.08.06-.16.17-.25.18S775.32,261.88,775.23,261.84Z" transform="translate(-551.21 29.87)"/><path class="cls-242" d="M679.7,395.67c-.07,0-.21-.09-.21-.12a.54.54,0,0,1,.14-.27c.09-.11.2-.1.25,0S679.88,395.61,679.7,395.67Z" transform="translate(-551.21 29.87)"/><path class="cls-243" d="M738.79,61.3c-.07-.08-.18-.15-.2-.24s.07-.19.11-.29c.07.08.19.15.2.24S738.83,61.2,738.79,61.3Z" transform="translate(-551.21 29.87)"/><path class="cls-244" d="M642.87,239.54c0,.13,0,.25.07.38-.11.29-.37.35-.63.41h0A1.14,1.14,0,0,1,642.87,239.54Z" transform="translate(-551.21 29.87)"/><path class="cls-245" d="M643.94,241.65c-.09,0-.22,0-.26-.09s0-.17,0-.26a.79.79,0,0,1,.27.1C644.08,241.48,644.05,241.58,643.94,241.65Z" transform="translate(-551.21 29.87)"/><path class="cls-246" d="M575.12,69.75a.66.66,0,0,1-.6.4C574.51,69.71,574.8,69.71,575.12,69.75Z" transform="translate(-551.21 29.87)"/><path class="cls-247" d="M613.8,387.24s-.1,0-.12,0a.16.16,0,0,1-.06-.14c0-.16.12-.17.2,0S613.8,387.19,613.8,387.24Z" transform="translate(-551.21 29.87)"/><path class="cls-24" d="M739.24,282.91a.65.65,0,0,1-.73-.18A.71.71,0,0,1,739.24,282.91Z" transform="translate(-551.21 29.87)"/><path class="cls-248" d="M560.61-9.17l.17.51c-.11.14-.25.16-.33,0A.4.4,0,0,1,560.61-9.17Z" transform="translate(-551.21 29.87)"/><path class="cls-249" d="M624.66-16.44s.11,0,.12,0,0,.15-.11.15-.07,0-.11-.08Z" transform="translate(-551.21 29.87)"/><path class="cls-250" d="M606-8.81l.09.75C605.64-8.26,605.56-8.51,606-8.81Z" transform="translate(-551.21 29.87)"/><path class="cls-224" d="M784.72,224.23c0,.35-.28.45-.58.5C784.23,224.43,784.48,224.34,784.72,224.23Z" transform="translate(-551.21 29.87)"/><path class="cls-160" d="M682.36,304.05c0-.3,0-.55.35-.65C682.67,303.65,682.65,303.92,682.36,304.05Z" transform="translate(-551.21 29.87)"/><path class="cls-74" d="M781.57,129.92a.71.71,0,0,1,.68.18A.55.55,0,0,1,781.57,129.92Z" transform="translate(-551.21 29.87)"/><path class="cls-251" d="M644.05,232.23s0-.12,0-.13.15,0,.16.11-.06.08-.08.12Z" transform="translate(-551.21 29.87)"/><path class="cls-252" d="M636.61,358.89c0-.06.09-.18.14-.18s.15.08.22.12-.06.12-.09.12A.88.88,0,0,1,636.61,358.89Z" transform="translate(-551.21 29.87)"/><path class="cls-253" d="M621.47,368.92s-.09,0-.11,0a.2.2,0,0,1-.05-.14c0-.16.11-.17.18,0S621.48,368.87,621.47,368.92Z" transform="translate(-551.21 29.87)"/><path class="cls-254" d="M754.8,274.8c0-.12,0-.25,0-.38.18.11.4.22.29.48C755,275,754.85,274.93,754.8,274.8Z" transform="translate(-551.21 29.87)"/><path class="cls-255" d="M595.14,4.09c-.06.06-.1.17-.16.17s-.14-.06-.22-.1.06-.12.09-.12A1.77,1.77,0,0,1,595.14,4.09Z" transform="translate(-551.21 29.87)"/><path class="cls-122" d="M683.44,51.12l-.68.11C682.94,50.88,683.14,50.67,683.44,51.12Z" transform="translate(-551.21 29.87)"/><path class="cls-256" d="M643.64,291.18l.21-.23c.07.13.15.25.23.38C643.88,291.43,643.76,291.33,643.64,291.18Z" transform="translate(-551.21 29.87)"/><path class="cls-257" d="M655.64,222.19a.94.94,0,0,1-.12-.22s.05-.07.08-.11a1.34,1.34,0,0,1,.13.23S655.67,222.16,655.64,222.19Z" transform="translate(-551.21 29.87)"/><path class="cls-258" d="M722.44,82.61a2.79,2.79,0,0,1,.25-.17s.08.06.12.09a1.88,1.88,0,0,1-.23.16S722.49,82.64,722.44,82.61Z" transform="translate(-551.21 29.87)"/><path class="cls-259" d="M616.45,6.13l.08-.24s.11.06.11.08a1.09,1.09,0,0,1-.07.24Z" transform="translate(-551.21 29.87)"/><path class="cls-260" d="M785,130.58s0-.09,0-.11a.15.15,0,0,1,.12-.05c.15,0,.15.12,0,.18S785,130.59,785,130.58Z" transform="translate(-551.21 29.87)"/><path class="cls-261" d="M729.7,40.19a.54.54,0,0,1-.18-.11s0-.09,0-.13.14-.16.2,0S729.71,40.1,729.7,40.19Z" transform="translate(-551.21 29.87)"/><path class="cls-262" d="M622.25,226s.08,0,.1,0a.14.14,0,0,1,.07.11c0,.13-.08.16-.17.06S622.25,226.08,622.25,226Z" transform="translate(-551.21 29.87)"/><path class="cls-263" d="M680.81,333.55s.09-.06.11-.05a.21.21,0,0,1,.07.12c0,.14-.09.17-.18.07S680.81,333.59,680.81,333.55Z" transform="translate(-551.21 29.87)"/><path class="cls-264" d="M661.26,342.66l.19-.13a2.44,2.44,0,0,1,.06.26s-.06.08-.09.12S661.31,342.75,661.26,342.66Z" transform="translate(-551.21 29.87)"/><path class="cls-265" d="M792.59,275.54a.22.22,0,0,1,0-.11.17.17,0,0,1,.13-.05c.15,0,.16.12,0,.18S792.63,275.55,792.59,275.54Z" transform="translate(-551.21 29.87)"/><path class="cls-91" d="M761.93,191.21a.61.61,0,0,1,.48.59C762.12,191.71,762,191.46,761.93,191.21Z" transform="translate(-551.21 29.87)"/><path class="cls-38" d="M719.91-2.89c-.12.39-.34.42-.63.17Z" transform="translate(-551.21 29.87)"/><path class="cls-119" d="M689.31,297.09a.67.67,0,0,1-.19.71A.55.55,0,0,1,689.31,297.09Z" transform="translate(-551.21 29.87)"/><path class="cls-266" d="M721.44,147.55s0-.12,0-.13.17,0,.16.15-.07.08-.1.08S721.47,147.59,721.44,147.55Z" transform="translate(-551.21 29.87)"/><path class="cls-139" d="M603.5,49.44c-.33-.19-.35-.41-.08-.67C603.45,49,603.48,49.21,603.5,49.44Z" transform="translate(-551.21 29.87)"/><path class="cls-267" d="M712.66,238.7s.08-.07.12-.07.18.09.07.18a.17.17,0,0,1-.14,0S712.67,238.74,712.66,238.7Z" transform="translate(-551.21 29.87)"/><path class="cls-149" d="M777.35,242.31a.76.76,0,0,1-.59.4A.55.55,0,0,1,777.35,242.31Z" transform="translate(-551.21 29.87)"/><path class="cls-268" d="M733.91,320.29s0-.11,0-.13.15,0,.15.12-.05.07-.08.11Z" transform="translate(-551.21 29.87)"/><path class="cls-269" d="M647.7,377.36a1.23,1.23,0,0,1-.14-.25s.06-.07.09-.11a1.49,1.49,0,0,1,.14.24S647.73,377.32,647.7,377.36Z" transform="translate(-551.21 29.87)"/><path class="cls-270" d="M734.52,105.77l.09-.11a1.7,1.7,0,0,1,.15.22s-.06.07-.09.11Z" transform="translate(-551.21 29.87)"/><path class="cls-271" d="M659.06,139.16l.09-.28s.12.06.12.09a1.29,1.29,0,0,1-.08.28Z" transform="translate(-551.21 29.87)"/><path class="cls-178" d="M582.9,34.31l-.69.12C582.38,34.05,582.61,34,582.9,34.31Z" transform="translate(-551.21 29.87)"/><path class="cls-272" d="M631.89,211.05s-.08.07-.12.07-.16-.08-.06-.17.1,0,.13,0S631.88,211,631.89,211.05Z" transform="translate(-551.21 29.87)"/><path class="cls-273" d="M701.13,324.42s.07-.07.1-.06.16.07.07.16a.19.19,0,0,1-.13,0A.3.3,0,0,1,701.13,324.42Z" transform="translate(-551.21 29.87)"/><path class="cls-274" d="M626,207s-.08.07-.12.07-.18-.08-.07-.18a.17.17,0,0,1,.14,0S626,206.92,626,207Z" transform="translate(-551.21 29.87)"/><path class="cls-275" d="M616,350.78l.14.16a1,1,0,0,1-.24.09s-.06-.06-.1-.09Z" transform="translate(-551.21 29.87)"/><path class="cls-178" d="M583.53,34.18c-.14.41-.35.45-.64.13Z" transform="translate(-551.21 29.87)"/><path class="cls-24" d="M736.4,282.4a.72.72,0,0,1-.17.71C736.15,282.84,736.13,282.58,736.4,282.4Z" transform="translate(-551.21 29.87)"/><path class="cls-276" d="M665.53,179.3s.1.07.1.11,0,.21-.15.13a.15.15,0,0,1-.05-.14S665.5,179.33,665.53,179.3Z" transform="translate(-551.21 29.87)"/><path class="cls-277" d="M642,261.46s0-.12,0-.13.16,0,.16.15-.07.09-.1.08S642.05,261.5,642,261.46Z" transform="translate(-551.21 29.87)"/><path class="cls-278" d="M605.06,147.15l0-.13.15.14s-.07.08-.09.07S605.09,147.18,605.06,147.15Z" transform="translate(-551.21 29.87)"/><path class="cls-178" d="M582.78,35.36l.32.37Z" transform="translate(-551.21 29.87)"/><path class="cls-160" d="M682.9,303.26c0-.11,0-.22,0-.34C683.11,303,683.2,303.14,682.9,303.26Z" transform="translate(-551.21 29.87)"/><path class="cls-83" d="M607.76,215.36a.46.46,0,0,1-.44-.23Z" transform="translate(-551.21 29.87)"/><polygon class="cls-279" points="33.68 62.93 33.73 63.02 33.64 63.02 33.68 62.93"/><polygon class="cls-280" points="56 410.92 55.96 410.84 56.04 410.84 56 410.92"/><path class="cls-139" d="M603.94,50.05a.43.43,0,0,1-.32-.34A.39.39,0,0,1,603.94,50.05Z" transform="translate(-551.21 29.87)"/><polygon class="cls-281" points="120.64 409.16 120.6 409.08 120.68 409.08 120.64 409.16"/><path class="cls-139" d="M602.59,50.33a.42.42,0,0,1,.47.22Z" transform="translate(-551.21 29.87)"/><path class="cls-105" d="M573.91,24l.06.4C573.63,24.27,573.62,24.13,573.91,24Z" transform="translate(-551.21 29.87)"/><path class="cls-105" d="M574.21,23.64c-.1.11-.2.22-.31.32A.35.35,0,0,1,574.21,23.64Z" transform="translate(-551.21 29.87)"/><path class="cls-36" d="M734.27,131.73c.14,0,.19.12.14.23s-.08.06-.13.09S734.27,131.84,734.27,131.73Z" transform="translate(-551.21 29.87)"/><path class="cls-282" d="M609.19,334.9l.06.26-.24-.08Z" transform="translate(-551.21 29.87)"/><polygon class="cls-283" points="39.03 85.94 38.98 85.85 39.07 85.85 39.03 85.94"/><polygon class="cls-284" points="69.15 182.42 69.09 182.32 69.2 182.31 69.15 182.42"/><path class="cls-97" d="M643,289.15l-.21.43Z" transform="translate(-551.21 29.87)"/><polygon class="cls-285" points="129.91 349.23 129.98 349.33 129.87 349.34 129.91 349.23"/><polygon class="cls-286" points="195.5 318.13 195.59 318.08 195.6 318.17 195.5 318.13"/><path class="cls-224" d="M784.31,225.39l.36.25A.35.35,0,0,1,784.31,225.39Z" transform="translate(-551.21 29.87)"/><path class="cls-130" d="M760,318.41l-.26.4A.44.44,0,0,1,760,318.41Z" transform="translate(-551.21 29.87)"/><path class="cls-162" d="M734.25,342l0-.41C734.47,341.71,734.52,341.84,734.25,342Z" transform="translate(-551.21 29.87)"/><path class="cls-287" d="M620.79,4.2l.13-.23c.23.15,0,.2-.06.28Z" transform="translate(-551.21 29.87)"/><path class="cls-122" d="M682.76,51.23a.42.42,0,0,1-.34.37Z" transform="translate(-551.21 29.87)"/><polygon class="cls-288" points="62.43 392.74 62.32 392.81 62.32 392.7 62.43 392.74"/><path class="cls-224" d="M784.14,224.72c0,.14,0,.28.05.41C784,225,783.88,224.89,784.14,224.72Z" transform="translate(-551.21 29.87)"/><path class="cls-289" d="M711.71,286.71l-.37.06c0-.09,0-.24.06-.26S711.65,286.58,711.71,286.71Z" transform="translate(-551.21 29.87)"/><path class="cls-8" d="M729.34,234l.22-.41A.38.38,0,0,1,729.34,234Z" transform="translate(-551.21 29.87)"/><path class="cls-250" d="M606.6-8.94l-.44,0C606.29-9.09,606.43-9.24,606.6-8.94Z" transform="translate(-551.21 29.87)"/><path class="cls-8" d="M727.9,231.81l-.36-.18A.31.31,0,0,1,727.9,231.81Z" transform="translate(-551.21 29.87)"/><path class="cls-162" d="M731.9,342l.36.25C732.06,342.31,731.93,342.24,731.9,342Z" transform="translate(-551.21 29.87)"/></g></g></g></svg>