<?xml version="1.0" encoding="utf-8"?>
<!-- Generator: Adobe Illustrator 27.0.0, SVG Export Plug-In . SVG Version: 6.00 Build 0)  -->
<svg version="1.1" id="_Слой_2" xmlns="http://www.w3.org/2000/svg" xmlns:xlink="http://www.w3.org/1999/xlink" x="0px"
	 y="0px" viewBox="0 0 124 63.9" style="enable-background:new 0 0 124 63.9;" xml:space="preserve">
<style type="text/css">
	.st0{fill:#633C3C;}
</style>
<g id="Capa_1">
	<g>
		<path class="st0" d="M104.6,47.5c0.4-0.2,0.8-0.4,1.2-0.7c1.3-0.8,2.1-2.5,2.2-3.9c0-0.4,0-0.8-0.1-1.1c-0.1-1.6-1-2.7-2.3-2.9
			c-0.2-0.4-0.7-0.6-1.1-0.3c-0.1,0.1-0.2,0.2-0.3,0.2c-0.1,0-0.2,0-0.4,0.1c-0.3,0.1-0.5,0.3-0.6,0.5
			C99.9,41.2,100.5,49,104.6,47.5L104.6,47.5z M104.6,40.8c0-0.1,0.1-0.1,0.1-0.2c0,0,0,0,0.1,0c0.8,0.1,1.3,0.6,1.5,1.3
			c0.1,0.6-0.1,1.3-0.3,1.9C105.5,42.8,105.1,41.8,104.6,40.8L104.6,40.8z M105.5,44.7c-0.5-0.8-1-1.6-1.5-2.4
			c0.1-0.3,0.2-0.7,0.4-1c0.5,1,0.9,2,1.3,3.1C105.6,44.5,105.5,44.6,105.5,44.7z M103.8,43c0,0,0-0.1,0-0.2
			c0.4,0.7,0.9,1.5,1.4,2.2c-0.1,0.1-0.2,0.2-0.3,0.3c-0.2,0.2-0.5,0.4-0.7,0.3C103.6,45.2,103.7,43.7,103.8,43L103.8,43z"/>
		<path class="st0" d="M105.7,29.1c-0.3,0-0.7,0.1-1,0.1c-0.4,0.1-1.1,0.2-1.3,0.3c-1,0.5-1.8-1-0.8-1.5c0.9-0.4,2.2-0.7,3.2-0.7
			C106.8,27.4,106.8,29.1,105.7,29.1L105.7,29.1z"/>
		<path class="st0" d="M52.1,28.8c0-0.1-0.1-0.2-0.1-0.2c0,0,0,0,0,0c0,0,0,0,0,0c-0.1-0.2-0.3-0.3-0.7-0.3
			c-3.7,0.2-7.4,0.8-10.7,2.4c-0.4,0.2-0.5,0.5-0.4,0.9c0,0,0,0,0,0.1c0.2,1,0.1,2,0.2,2.9c0.1,1.3,8.4-0.8,11.6-2.1
			C52.9,32,52.2,29.5,52.1,28.8L52.1,28.8z M42.3,31.7c-0.1,0.3-0.2,0.5-0.3,0.8c0-0.2,0-0.4-0.1-0.6C42,31.8,42.2,31.7,42.3,31.7
			L42.3,31.7z M43.3,31.3c-0.3,0.6-0.5,1.2-0.8,1.8c-0.2,0-0.3,0.1-0.5,0.1c0.3-0.6,0.5-1.2,0.8-1.8C43,31.4,43.2,31.3,43.3,31.3
			L43.3,31.3z M44.2,31c-0.2,0.6-0.4,1.2-0.8,1.8c-0.1,0-0.2,0.1-0.4,0.1c0.3-0.6,0.5-1.2,0.8-1.8C44,31.1,44.1,31,44.2,31L44.2,31z
			 M45,30.8c-0.3,0.6-0.7,1.3-1,1.9c0,0,0,0,0,0c0.3-0.6,0.5-1.2,0.7-1.8C44.8,30.8,44.9,30.8,45,30.8L45,30.8z M45.6,30.6
			c-0.3,0.6-0.5,1.2-0.8,1.8c-0.1,0-0.2,0-0.2,0.1c0.3-0.6,0.6-1.2,0.9-1.8C45.5,30.7,45.5,30.7,45.6,30.6
			C45.6,30.7,45.6,30.6,45.6,30.6z M46.4,30.5c-0.2,0.6-0.3,1.2-0.6,1.8c-0.1,0-0.2,0.1-0.4,0.1c0.2-0.6,0.5-1.2,0.8-1.8
			C46.2,30.5,46.3,30.5,46.4,30.5z M47.2,30.3c-0.3,0.6-0.5,1.2-0.9,1.8h0c0.2-0.5,0.4-1.1,0.6-1.7C46.9,30.4,47,30.4,47.2,30.3
			L47.2,30.3z M47.9,30.2c-0.3,0.5-0.5,1.1-0.7,1.7c-0.1,0-0.2,0-0.3,0.1c0.3-0.5,0.6-1.1,0.8-1.7C47.7,30.2,47.8,30.2,47.9,30.2z
			 M48.5,30.1c-0.2,0.5-0.3,1.1-0.6,1.6c-0.1,0-0.2,0-0.2,0.1c0.2-0.5,0.4-1.1,0.7-1.6C48.4,30.1,48.5,30.1,48.5,30.1L48.5,30.1z
			 M49.1,30.1c-0.2,0.5-0.3,1-0.6,1.5c0,0-0.1,0-0.1,0c0.2-0.5,0.4-1,0.5-1.5C49,30.1,49.1,30.1,49.1,30.1z M49.8,30
			c-0.2,0.5-0.4,1-0.7,1.4c0,0,0,0,0,0c0.2-0.4,0.3-0.9,0.5-1.4C49.7,30,49.7,30,49.8,30z M50.4,29.9c-0.2,0.4-0.3,0.9-0.5,1.3
			c0,0-0.1,0-0.2,0c0.2-0.4,0.4-0.9,0.6-1.3C50.3,30,50.4,30,50.4,29.9L50.4,29.9z M50.6,31c-0.1,0-0.1,0-0.2,0.1
			c0.1-0.1,0.1-0.3,0.2-0.5C50.6,30.7,50.6,30.9,50.6,31L50.6,31z"/>
		<path class="st0" d="M114.4,27.1l0.6-3.8c0.2-1.1,1.8-0.6,1.6,0.5l-0.6,3.8C115.8,28.6,114.2,28.2,114.4,27.1z"/>
		<path class="st0" d="M107.4,47.5C107.4,47.5,107.3,47.5,107.4,47.5L107.4,47.5z"/>
		<polygon class="st0" points="107.4,47.5 107.4,47.5 107.4,47.5 		"/>
		<path class="st0" d="M1.1,62c0.2,0,0.4,0.1,0.6,0.2c0.5,0.2,1,0.3,1.6,0.5c1.3,0.5,2.7,0.9,4.1,1.1c2.7,0.4,5.4-0.1,6.4-2.7
			c0.4,0.1,8.4,2,11.1,2.3c3.5,0.4,7.9,0.4,10.1-2.7c3.9,1.2,9.1,2.2,12.3-0.7c3,4.3,10.6,3.7,14.8,1.8c1.8-0.8,3.1-2.8,5.2-2.1
			c1.6,0.5,3.1,1,4.8,1.2c2.9,0.3,6.1,0.3,8-2.1c5.3,4.1,15,4.3,19.2-1.3c0.5,0.5,1,1,1.6,1.3c0.2,0.3,0.5,0.5,0.8,0.4
			c3,1.2,6.7,0,9.1-2.4c2.9,3.9,10.2,5.2,13.2,1c0.6-0.9-0.8-1.7-1.4-0.8c-1.2,1.8-3.8,2-5.7,1.6c-2.2-0.5-4.3-1.6-5.2-3.7
			c-0.4-0.8-1.3-0.4-1.5,0.3c-1.6,2-4.4,3.3-6.8,2.8c0.2-0.2,0.5-0.5,0.7-0.8c0.6-0.7,1.2-1.4,1.8-2.2c1.1-1.5,2.2-3.2,3.1-4.8
			c1.9-3.3,3.6-6.7,5.5-10c4-7.3,6.8-15.5,6.8-24c0-0.1,0-0.2,0-0.3c0.1-0.5-0.2-0.9-0.8-0.9c-3.9,0.4-7.9,0.2-11.8,0.8
			c-0.6,0.1-0.7,0.6-0.5,1c-0.4,1.8-0.8,4.4-2.4,5.4c-1.9,1.1-4.2,1.2-6.3,1.5c-1.9,0.3-3.9,0.6-5.8,1c-1.3-3.6-2.7-7.1-4.1-10.5
			c-0.3-0.6-1-0.7-1.4-0.4c0,0,0,0,0,0c-3,0.6-6,1.3-9,1.9c-0.9,0.2-1.9,0.4-2.8,0.6c-0.2-2.8-0.3-5.5-0.7-8.3
			c-0.3-2.7-0.9-5.4-2.3-7.8c-0.1-0.3-0.3-0.5-0.8-0.5c-4.2,0.4-8.6,1.1-11.6,4.2c-0.4,0.1-0.7,0.3-0.6,0.8
			c0.4,4.6,1.2,9.1,2.2,13.6c-2.5,0.3-4.9,0.6-7.2,1.4c0,0-0.1,0-0.1,0c-0.2,0.1-0.4,0.2-0.5,0.5c-0.3,1.1-0.4,2.2-0.7,3.3
			c-0.3,0.1-10.2,3-14.9,4.3c-0.2,0-0.3,0.1-0.4,0.2c0,0,0,0,0,0c0,0,0,0,0,0.1c0,0.1-0.1,0.1-0.1,0.2c-0.8,3-1.7,6-2.7,8.9
			c-3,0.6-6,1.2-9,1.8c-0.2-2.3-0.5-5.5-2.4-6.8c-2.1-1.5-5.3,0.3-7.5,1c-0.4,0.1-0.6,0.4-0.6,0.8c0,0.1,0,0.2,0,0.3
			c0.3,2.2,0.2,4.5,1.1,6.5c-3.4,0.5-6.8,1.2-10,2.3c-0.5,0.2-0.6,0.6-0.6,1c-0.1,0.2-0.1,0.4,0,0.6c0.9,3.1,2.1,6.1,3.6,9
			c0.9,1.7,1.8,3.5,3,5.1c-0.3,0-0.6,0.2-0.7,0.6c-0.8,3-4,2.5-6.4,1.9c-1.2-0.3-2.4-0.7-3.5-1.1C1.9,60.5,1,60,0.4,60.5
			C-0.4,61.1,0.3,62.4,1.1,62L1.1,62z M19.2,34.5c-0.5,0.6-0.9,1.2-1.4,1.8c0-0.4-0.1-0.8-0.1-1.2C18.2,34.9,18.7,34.7,19.2,34.5z
			 M20.8,34c-1,1.2-1.9,2.6-2.9,3.8c0-0.3-0.1-0.6-0.1-0.9c0.6-0.8,1.2-1.7,1.9-2.4c0-0.1,0.1-0.1,0-0.2c0.1,0,0.2-0.1,0.3-0.1
			C20.3,34.2,20.5,34.1,20.8,34L20.8,34z M22.6,33.8c-1.3,2-3,3.7-4.3,5.7c-0.1-0.4-0.2-0.7-0.2-1.1c1.2-1.5,2.2-3,3.4-4.5
			C21.8,33.8,22.2,33.8,22.6,33.8L22.6,33.8z M20.6,40.7c-0.4,0.1-0.9,0.1-1.3,0.2c0.8-1,1.5-2,2.3-3.1c0.1,0.3,0.2,0.6,0.3,0.9
			c0,0.1,0.1,0.2,0.1,0.3C21.6,39.6,21.1,40.1,20.6,40.7L20.6,40.7z M22.3,39.2c0.2,0.1,0.4,0.1,0.6,0c-0.1,0.1-0.2,0.3-0.3,0.4
			c-0.1,0.2-0.3,0.4-0.4,0.6c0,0,0,0.1,0,0.1c-0.3,0-0.6,0.1-0.8,0.2C21.7,40.1,22,39.7,22.3,39.2z M18.8,40.9
			c-0.1-0.3-0.3-0.5-0.4-0.8c0.8-1.3,1.8-2.5,2.8-3.7c0,0,0,0,0,0c0.1,0.3,0.1,0.6,0.2,0.9C20.6,38.5,19.7,39.7,18.8,40.9L18.8,40.9
			z M23.4,34.5c-0.3,0.4-0.5,0.7-0.8,1.1c-0.2-0.2-0.4-0.2-0.6-0.2c0.3-0.4,0.7-0.9,1-1.3c0,0,0.1,0.1,0.1,0.1
			C23.2,34.2,23.3,34.4,23.4,34.5z M24.1,35.9c-0.3,0.4-0.6,0.8-1,1.3c-0.1-0.4-0.2-0.8-0.3-1.2c0.3-0.4,0.5-0.8,0.8-1.1
			C23.8,35.2,24,35.5,24.1,35.9L24.1,35.9z M24.4,37.2c-0.3,0.4-0.6,0.8-0.9,1.3c0,0,0-0.1,0-0.2c-0.1-0.2-0.1-0.4-0.2-0.5
			c0.3-0.5,0.6-0.9,0.9-1.3C24.3,36.6,24.3,36.9,24.4,37.2L24.4,37.2z M24.6,38.5c-0.2,0.7-0.7,1.2-1.2,1.6c-0.1,0-0.2,0-0.3,0.1
			c-0.1,0-0.3,0-0.4,0.1c0-0.1,0.1-0.1,0.1-0.2c0.5-0.8,1.1-1.6,1.7-2.4C24.5,38,24.6,38.3,24.6,38.5z M24.7,39.9
			c-0.2,0-0.4,0.1-0.6,0.1c0.2-0.2,0.4-0.4,0.5-0.6C24.7,39.5,24.7,39.7,24.7,39.9z M61.8,5.3C61.8,5.3,61.8,5.3,61.8,5.3
			c-0.1,0.2-0.2,0.4-0.2,0.5c0-0.1,0-0.2,0-0.2C61.7,5.4,61.8,5.4,61.8,5.3L61.8,5.3z M63,4.3c-0.3,1.1-0.6,2.3-1.2,3.2
			c0-0.3-0.1-0.7-0.1-1c0,0,0,0,0.1-0.1c0.2-0.3,0.3-0.7,0.5-1c0.1-0.2,0.2-0.5,0.3-0.7C62.7,4.6,62.8,4.4,63,4.3z M64.3,3.5
			C63.5,5.6,63,7.9,62.1,10c-0.1-0.6-0.2-1.2-0.2-1.8c0.9-1.2,1.2-2.8,1.7-4.2C63.8,3.8,64.1,3.6,64.3,3.5L64.3,3.5z M65.3,3
			c-0.7,2.3-1.1,4.7-2.2,6.8c-0.2,0.1-0.4,0.3-0.6,0.4c1-2.3,1.5-4.7,2.4-7C65,3.2,65.2,3.1,65.3,3z M66.4,2.7
			c-0.6,2.2-1.3,4.4-2.2,6.6c-0.2,0.1-0.3,0.1-0.5,0.2c1-2.1,1.4-4.4,2.1-6.6c0,0,0,0,0,0C66,2.8,66.2,2.7,66.4,2.7L66.4,2.7z
			 M67.6,2.3c-0.3,1.1-0.7,2.2-1,3.4c-0.3,1-0.6,2.3-1.3,3.2c-0.2,0-0.4,0.1-0.6,0.2c0.8-2.1,1.5-4.3,2.1-6.6
			C67.1,2.5,67.4,2.4,67.6,2.3z M69,2.1c-1,2.2-1.8,4.4-2.6,6.7c-0.2,0-0.4,0.1-0.6,0.1c0.4-0.8,0.7-1.7,1-2.5
			c0.4-1.4,0.8-2.8,1.2-4.1C68.4,2.2,68.7,2.1,69,2.1z M70.4,1.9c-0.9,2.3-2.2,4.5-3,6.8c-0.2,0-0.3,0-0.5,0
			c0.8-2.3,1.6-4.6,2.6-6.7C69.8,1.9,70.1,1.9,70.4,1.9L70.4,1.9z M71.7,1.9c-0.8,2.4-2.1,4.6-3.3,6.8c-0.2,0-0.3,0-0.5,0
			c0.8-2.3,2.1-4.5,3-6.8c0.2,0,0.5,0,0.8-0.1C71.6,1.8,71.6,1.8,71.7,1.9L71.7,1.9z M72.3,3.3C72.3,3.3,72.3,3.4,72.3,3.3
			c-1.1,1.8-1.8,3.8-3,5.4c-0.2,0-0.3,0-0.5,0c1.1-2.1,2.3-4.1,3.1-6.3C72.1,2.7,72.2,3,72.3,3.3z M72.7,4.5
			c-0.9,1.4-1.6,3.1-2.7,4.3c-0.1,0-0.1,0-0.2,0c1.1-1.5,1.8-3.3,2.7-4.9C72.6,4,72.6,4.2,72.7,4.5z M73.1,6.1c-0.6,1-1.2,2-2,2.9
			c-0.2,0-0.4-0.1-0.6-0.1c0.9-1.1,1.6-2.5,2.4-3.8C72.9,5.4,73,5.7,73.1,6.1L73.1,6.1z M73.3,7.2c-0.5,0.7-0.9,1.3-1.4,1.9
			c-0.1,0-0.2,0-0.3-0.1c0.6-0.7,1.1-1.5,1.6-2.3C73.2,6.8,73.2,7,73.3,7.2z M73.4,8.1c-0.3,0.4-0.5,0.8-0.8,1.1
			c-0.1,0-0.2,0-0.3-0.1c0.4-0.5,0.7-0.9,1-1.4C73.4,7.9,73.4,8,73.4,8.1z M73.6,9.5c-0.2-0.1-0.4-0.1-0.6-0.1
			c0.2-0.2,0.3-0.4,0.5-0.6c0,0.1,0,0.3,0.1,0.4C73.5,9.3,73.5,9.4,73.6,9.5L73.6,9.5z M74.2,16.9c-1.3,0.3-2.7,0.6-4,0.8
			c-2.1,0.4-4.3,0.5-6.4,0.8c-0.4-1.9-0.8-3.8-1.2-5.8c2-3.5,8-2.4,11.2-1.4l0,0C73.9,13.2,74,15,74.2,16.9L74.2,16.9z M91.5,25.2
			c-0.3,0.1-0.6,0.1-0.9,0.2c0.2-0.3,0.3-0.7,0.3-1c0-0.3-0.4-0.3-0.4,0c0,0.3-0.1,0.6-0.2,0.9c0,0.1,0,0.2,0,0.2
			c-0.1,0-0.2,0-0.3,0.1c0.1-0.4,0.2-0.8,0.4-1.2c0.1-0.3-0.3-0.4-0.4-0.1c-0.2,0.5-0.3,0.9-0.4,1.4c0,0,0,0,0,0
			c-0.2,0-0.4,0.1-0.6,0.1c0.1-0.4,0.1-0.8,0.2-1.2c0.1-0.3-0.3-0.4-0.4-0.1c-0.1,0.5-0.1,0.9-0.2,1.4c-0.2,0-0.3,0.1-0.5,0.1
			c0.1-0.3,0.2-0.6,0.3-1c0.1-0.3-0.3-0.4-0.4-0.1c-0.1,0.4-0.2,0.8-0.3,1.2c-0.2,0-0.4,0.1-0.7,0.1c0.1-0.4,0.2-0.7,0.2-1
			c0.1-0.3-0.3-0.4-0.4-0.1c-0.1,0.4-0.2,0.8-0.3,1.3c-0.1,0-0.2,0-0.3,0.1c0.1-0.3,0.2-0.5,0.3-0.8c0.2-0.2-0.2-0.4-0.4-0.2
			c-0.2,0.3-0.3,0.7-0.4,1c-0.1,0-0.2,0-0.3,0.1c0.1-0.2,0.1-0.5,0.1-0.7c0-0.3-0.4-0.3-0.4,0c0,0.3-0.1,0.6-0.2,0.8
			c-0.2,0-0.4,0.1-0.5,0.1c0-0.1,0-0.2,0.1-0.2c0-0.1,0.1-0.4,0.2-0.5c0.2-0.2-0.1-0.5-0.3-0.3C84.1,25.7,84,26,84,26.2
			c0,0.2-0.1,0.4-0.1,0.5c-0.2,0-0.5,0.1-0.7,0.1c0-0.3,0.1-0.6,0.1-0.9c0-0.3-0.4-0.3-0.4,0c0,0.3,0,0.7-0.1,1
			c-0.2,0-0.4,0.1-0.6,0.1c0.1-0.3,0.1-0.6,0.2-0.9c0.1-0.3-0.3-0.4-0.4-0.1c-0.1,0.4-0.2,0.8-0.3,1.1c-0.2,0-0.5,0.1-0.7,0.2
			c0.1-0.2,0.1-0.5,0.2-0.8c0.1-0.3-0.3-0.4-0.4-0.1c-0.1,0.3-0.1,0.6-0.2,1c-0.2,0-0.4,0.1-0.6,0.1c0-0.4,0.1-0.7,0.1-1
			c0-0.3-0.4-0.3-0.4,0c0,0.4-0.1,0.8-0.1,1.1c-0.2,0-0.4,0.1-0.7,0.1c0.1-0.3,0.3-0.6,0.3-0.9c0.1-0.3-0.3-0.4-0.4-0.1
			c-0.1,0.4-0.3,0.8-0.4,1.1c-0.2,0-0.4,0.1-0.6,0.1c0.1-0.2,0.2-0.5,0.3-0.7c0.1-0.2-0.2-0.5-0.4-0.2c-0.2,0.3-0.3,0.7-0.4,1
			c-0.2,0-0.5,0.1-0.8,0.2c0.1-0.2,0.2-0.5,0.4-0.7c0.2-0.2-0.2-0.4-0.4-0.2c-0.2,0.3-0.4,0.6-0.5,1c-0.2,0-0.3,0.1-0.4,0.1
			c0.1-0.3,0.2-0.5,0.2-0.8s-0.3-0.4-0.4-0.1c-0.1,0.3-0.2,0.7-0.3,1c-0.2,0-0.4,0.1-0.6,0.1c0.1-0.3,0.3-0.7,0.5-1
			c0.2-0.2-0.2-0.4-0.4-0.2c-0.3,0.4-0.4,0.9-0.6,1.3c-0.2,0-0.5,0.1-0.7,0.2c0.2-0.3,0.4-0.7,0.5-1c0.1-0.3-0.3-0.4-0.4-0.1
			c-0.1,0.5-0.4,0.9-0.6,1.3c-0.1,0-0.2,0-0.3,0.1c0.1-0.2,0.2-0.5,0.3-0.8c0.1-0.2-0.2-0.5-0.4-0.2c-0.2,0.4-0.3,0.7-0.5,1.1
			c-0.2,0-0.5,0.1-0.7,0.2c0.1-0.2,0.2-0.3,0.3-0.5c0.2-0.2-0.2-0.4-0.4-0.2c-0.2,0.3-0.3,0.5-0.5,0.8c-0.2,0.1-0.5,0.1-0.8,0.2
			c0.1-0.2,0.2-0.4,0.2-0.7c0.1-0.3-0.3-0.4-0.4-0.1c-0.1,0.3-0.2,0.6-0.3,0.9c-0.3,0.1-0.6,0.1-0.9,0.2c0.1-0.3,0.2-0.5,0.3-0.8
			c0.1-0.2-0.2-0.5-0.4-0.2c-0.2,0.4-0.3,0.8-0.5,1.1c-0.3,0.1-0.6,0.1-0.9,0.2c0.1-0.2,0.2-0.5,0.2-0.8c0.1-0.3-0.3-0.4-0.4-0.1
			c-0.1,0.3-0.2,0.7-0.3,1c-0.4,0.1-0.8,0.2-1.2,0.3c0.1-0.2,0.1-0.5,0.2-0.7c0.1-0.3-0.3-0.4-0.4-0.1c-0.1,0.3-0.2,0.6-0.3,0.9
			c-0.3,0.1-0.6,0.1-0.9,0.2c0.1-0.4,0.2-0.7,0.2-1.1c0-0.3-0.4-0.3-0.4,0c0,0.4-0.1,0.8-0.2,1.2c-0.2,0-0.5,0.1-0.7,0.2
			c0.1-0.4,0.1-0.8,0.2-1.1c0-0.3-0.3-0.4-0.4-0.1c-0.1,0.5-0.2,0.9-0.3,1.4c-0.2,0-0.4,0.1-0.7,0.2c0-0.2,0.1-0.4,0.1-0.6
			c0-0.3-0.4-0.3-0.4,0c0,0.2,0,0.5-0.1,0.7c-0.2,0-0.3,0.1-0.5,0.1c0-0.1,0-0.3,0-0.4c0-0.3-0.4-0.3-0.4,0c0,0.2,0,0.4,0,0.5
			c-0.3,0.1-0.5,0.1-0.8,0.2c0-0.1,0.1-0.2,0.1-0.4c0.1-0.3-0.3-0.4-0.4-0.1c0,0.2-0.1,0.4-0.2,0.6c-0.2,0-0.4,0.1-0.6,0.1
			c0.1-0.3,0.1-0.5,0.1-0.8c0-0.3-0.4-0.3-0.4,0c0,0.3,0,0.6-0.1,0.9c-0.1,0-0.2,0-0.3,0.1c0-0.1,0-0.2,0.1-0.2
			c0.1-0.3-0.3-0.4-0.4-0.1c0,0.2-0.1,0.3-0.1,0.5c-0.3,0.1-0.6,0.1-0.9,0.2c0.1-0.1,0.2-0.2,0.2-0.4c0.2-0.2-0.2-0.4-0.4-0.2
			s-0.3,0.5-0.4,0.7c-0.2,0-0.4,0.1-0.6,0.1c0-0.1,0.1-0.1,0.1-0.2c0.1-0.2-0.2-0.5-0.4-0.2c-0.1,0.2-0.2,0.3-0.2,0.5
			c-0.4,0.1-0.7,0.2-1.1,0.3c0.1-0.2,0.3-0.5,0.4-0.7c0.2-0.2-0.2-0.4-0.4-0.2c-0.2,0.3-0.4,0.7-0.6,1c-0.3,0.1-0.6,0.1-0.9,0.2
			c0.1-0.3,0.3-0.5,0.5-0.8c0.2-0.2-0.2-0.4-0.4-0.2c-0.2,0.3-0.5,0.7-0.6,1.1c-0.4,0.1-0.8,0.2-1.2,0.3c0.2-0.3,0.3-0.6,0.5-0.9
			c0.1-0.3-0.3-0.4-0.4-0.1c-0.2,0.4-0.4,0.8-0.7,1.2c-0.2,0-0.5,0.1-0.7,0.2c0.1-0.2,0.1-0.3,0.2-0.5c0.1-0.3-0.3-0.4-0.4-0.1
			c-0.1,0.2-0.2,0.5-0.3,0.7c-0.4,0.1-0.7,0.2-1.1,0.2c0.1-0.3,0.2-0.6,0.5-0.8c0.2-0.2-0.1-0.5-0.3-0.3c-0.3,0.3-0.5,0.8-0.6,1.2
			c-0.2,0-0.5,0.1-0.7,0.2c0.1-0.2,0.2-0.4,0.3-0.5c0.2-0.2-0.2-0.4-0.4-0.2c-0.2,0.3-0.3,0.6-0.4,0.9c-0.3,0.1-0.5,0.1-0.8,0.2
			c0.1-0.1,0.2-0.3,0.3-0.4c0.2-0.2-0.1-0.5-0.3-0.3c-0.2,0.2-0.4,0.5-0.6,0.8c-0.2,0-0.4,0.1-0.7,0.2c0.1-0.2,0.3-0.5,0.5-0.7
			c0.2-0.2-0.2-0.4-0.4-0.2c-0.2,0.3-0.5,0.7-0.6,1c-0.1,0-0.2,0-0.4,0.1c0,0,0,0-0.1,0c0-0.1,0.1-0.3,0.2-0.4
			c0.1-0.3-0.3-0.4-0.4-0.1c-0.1,0.2-0.2,0.4-0.2,0.7c-0.2,0-0.4,0.1-0.6,0.1c0.1-0.2,0.2-0.3,0.3-0.5c0.2-0.2-0.2-0.4-0.4-0.2
			c-0.2,0.3-0.3,0.6-0.5,0.8c-0.3,0.1-0.7,0.2-1,0.2c0.1-0.3,0.3-0.6,0.5-0.8c0.2-0.2-0.2-0.4-0.4-0.2c-0.2,0.4-0.4,0.8-0.6,1.2
			c-0.2,0-0.4,0.1-0.6,0.1c0.1-0.4,0.2-0.7,0.4-1.1c0.1-0.2-0.2-0.5-0.4-0.2c-0.2,0.5-0.4,0.9-0.5,1.4c-0.4,0.1-0.8,0.2-1.1,0.2
			c0.2-0.5,0.5-1,0.9-1.4c0.2-0.2-0.1-0.5-0.3-0.3c-0.2,0.3-0.4,0.5-0.6,0.8c0.7-2.2,1.3-4.4,2-6.6c4.6-1.2,8.2-2.3,13.8-3.7
			c0.8-0.2,1.3-0.5,1.6-1.2c0.4-1.3,0.5-2,0.8-3.3c5-1.4,10.2-1.1,15.3-2.3c5.6-1.2,11.2-2.4,16.8-3.6C89.1,18.8,90.4,22,91.5,25.2
			L91.5,25.2z M115.9,30.4c0.2,0.2,0.3,0.4,0.4,0.7c-3.8,1.4-7.8,2.1-11.8,2.7c-4,0.6-8,1.2-12,2.1c-13.4,2.8-26.8,5.9-40.1,9.2
			c-13.4,3.3-26.8,6.3-40.3,8.7c-0.1,0-0.2,0.1-0.3,0.1c-0.1-0.2-0.2-0.5-0.4-0.7c-1.3-2.6-2.3-5.3-3.2-8.1c4.7-1.6,9.8-2,14.7-3
			c6.2-1.2,12.4-2.5,18.6-3.9c13.2-3,26.4-6.3,39.7-9.1c6.3-1.3,12.5-2.7,18.8-3.7c2.2-0.3,5-0.5,6.7-2.1c1.6-1.5,2.1-3.8,2.6-5.9
			c3.3-0.4,6.6-0.3,9.9-0.5c0,0.5,0,0.9-0.1,1.4c-0.2-0.2-0.5-0.4-0.8-0.5c-0.2-0.1-0.4,0.3-0.1,0.4c0.3,0.1,0.6,0.4,0.9,0.6
			c0,0.3-0.1,0.6-0.1,0.9c-0.4-0.3-0.7-0.6-1-0.9c-0.2-0.2-0.5,0.1-0.3,0.3c0.4,0.4,0.7,0.7,1.2,1c0,0,0.1,0,0.1,0
			c-0.1,0.5-0.1,1-0.2,1.5c-0.3-0.2-0.5-0.6-0.8-0.8c-0.2-0.2-0.5,0.1-0.3,0.3c0.3,0.4,0.6,0.7,1,1c-0.1,0.5-0.2,1.1-0.3,1.6
			c-0.3-0.2-0.6-0.5-0.8-0.9c-0.2-0.2-0.5,0-0.4,0.2c0.3,0.4,0.7,0.8,1.1,1.1c-0.1,0.6-0.2,1.2-0.4,1.8c-0.2-0.3-0.5-0.6-0.6-1
			c-0.1-0.2-0.5-0.1-0.4,0.1c0.2,0.4,0.5,0.8,0.7,1.2c0.1,0.1,0.1,0.1,0.2,0.1c-0.1,0.4-0.2,0.9-0.4,1.3c-0.2-0.4-0.4-0.7-0.6-1.1
			c-0.2-0.2-0.5,0-0.4,0.2c0.3,0.4,0.4,0.9,0.7,1.3c0,0,0.1,0.1,0.1,0.1c-0.1,0.4-0.2,0.8-0.4,1.2c-0.1-0.2-0.2-0.4-0.4-0.6
			c-0.2-0.2-0.5,0-0.4,0.2c0.2,0.3,0.3,0.7,0.5,1c-0.1,0.2-0.2,0.5-0.2,0.7c-0.1-0.2-0.2-0.4-0.4-0.6
			C116,29.9,115.7,30.2,115.9,30.4L115.9,30.4z M115.4,33.8c-0.1-0.1-0.2-0.3-0.2-0.4c0,0-0.1-0.1-0.1-0.1c0.2-0.1,0.4-0.1,0.6-0.2
			C115.6,33.3,115.5,33.5,115.4,33.8L115.4,33.8z M12.5,55.3L12.5,55.3c8.8-1.5,17.6-3.3,26.3-5.3c13.4-3.1,26.6-6.6,40-9.6
			c6.6-1.5,13.2-3,19.8-4.2c5.4-0.9,10.9-1.4,16.2-3c0,0.1-0.1,0.1,0,0.2c0.1,0.2,0.2,0.5,0.4,0.7c-0.1,0.3-0.2,0.5-0.3,0.8
			c-0.1-0.1-0.1-0.1-0.2-0.2c-0.2-0.2-0.5,0.1-0.3,0.3c0.1,0.1,0.2,0.2,0.3,0.3c-0.1,0.2-0.2,0.5-0.3,0.7c-0.2-0.2-0.3-0.5-0.4-0.7
			c-0.2-0.2-0.5,0-0.4,0.2c0.2,0.3,0.4,0.6,0.6,0.9c-0.1,0.2-0.2,0.3-0.2,0.5c-0.2-0.2-0.4-0.5-0.6-0.7c-0.2-0.2-0.5,0.1-0.3,0.3
			c0.2,0.2,0.4,0.5,0.7,0.8c-0.1,0.2-0.2,0.4-0.3,0.6c-0.1-0.2-0.3-0.4-0.5-0.6c-0.2-0.2-0.5,0.1-0.3,0.3c0.2,0.2,0.4,0.5,0.6,0.8
			c-0.1,0.2-0.2,0.5-0.4,0.7c-0.1-0.2-0.3-0.3-0.4-0.5c-0.2-0.2-0.5,0.1-0.3,0.3c0.2,0.2,0.4,0.4,0.5,0.6c-0.1,0.2-0.2,0.4-0.3,0.6
			c-0.1,0.1-0.1,0.2-0.2,0.3c-0.1-0.2-0.3-0.4-0.4-0.6c-0.2-0.2-0.5,0-0.4,0.2c0.2,0.3,0.4,0.6,0.5,0.8c-0.1,0.1-0.1,0.3-0.2,0.4
			c-0.2-0.2-0.3-0.5-0.6-0.7c-0.2-0.2-0.5,0.1-0.3,0.3c0.2,0.2,0.4,0.5,0.6,0.8c-0.2,0.3-0.3,0.5-0.4,0.8c-0.2-0.4-0.4-0.8-0.7-1.1
			c-0.2-0.2-0.5,0-0.4,0.2c0.3,0.5,0.6,0.9,0.8,1.4c-0.2,0.3-0.3,0.7-0.5,1c-0.2-0.3-0.3-0.5-0.5-0.8c-0.2-0.2-0.5,0.1-0.3,0.3
			c0.2,0.2,0.4,0.5,0.5,0.8c0,0,0.1,0.1,0.1,0.1c-0.2,0.4-0.4,0.7-0.6,1.1c0,0,0,0,0,0l-0.4-0.4c-0.2-0.2-0.5,0.1-0.3,0.3l0.4,0.4
			c0,0,0.1,0.1,0.1,0.1c-0.1,0.2-0.3,0.5-0.4,0.8c-0.3-0.3-0.5-0.7-0.9-0.9c-0.2-0.1-0.4,0.2-0.2,0.4c0.4,0.2,0.6,0.6,0.9,0.9
			c-0.2,0.3-0.3,0.6-0.5,0.9c-0.1-0.3-0.4-0.7-0.7-0.7c-0.3,0-0.3,0.4,0,0.4h0l0,0c0.1,0,0.1,0.1,0.1,0.1c0.1,0.1,0.2,0.2,0.2,0.4
			c0,0.1,0.1,0.1,0.2,0.1c-0.2,0.3-0.4,0.7-0.6,1c-0.1-0.2-0.2-0.4-0.3-0.5c-0.1-0.1-0.1-0.2-0.2-0.2c-0.2,0-0.3,0.1-0.3,0.2
			c0,0.1,0.1,0.2,0.1,0.2c0,0,0,0,0,0c0.1,0.1,0.1,0.2,0.2,0.2c0.1,0.2,0.2,0.3,0.3,0.5l0,0c-0.1,0.1-0.1,0.2-0.2,0.3
			c-0.2-0.2-0.5-0.5-0.9-0.5c-0.3,0-0.3,0.4,0,0.4c0.2,0,0.3,0.2,0.4,0.2c0.1,0.1,0.2,0.2,0.2,0.2c-0.2,0.3-0.3,0.5-0.5,0.8
			c-0.2-0.5-0.6-0.9-1.1-1.1c-0.2-0.1-0.4,0.3-0.1,0.4c0.5,0.2,0.8,0.7,1,1.1c-0.2,0.2-0.3,0.5-0.5,0.7c-0.3-0.3-0.6-0.7-0.8-1
			c-0.2-0.2-0.5,0-0.4,0.2c0.3,0.4,0.6,0.8,0.9,1.2c-0.2,0.2-0.3,0.4-0.4,0.7c-0.2-0.4-0.5-0.8-0.9-1c-0.2-0.2-0.4,0.2-0.2,0.4
			c0.3,0.2,0.6,0.5,0.8,0.8c0,0.1,0.1,0.1,0.1,0.1c-0.2,0.2-0.3,0.5-0.5,0.7c-0.2-0.3-0.5-0.6-0.6-1c-0.1-0.2-0.5-0.1-0.4,0.1
			c0.2,0.5,0.5,0.8,0.7,1.2c0,0,0,0,0,0c-0.1,0.1-0.2,0.2-0.3,0.3c0,0,0,0-0.1,0.1c-0.3-0.4-0.6-0.8-0.9-1.2c-0.2-0.2-0.5,0-0.4,0.2
			c0.3,0.4,0.7,0.9,1,1.3c-0.1,0.1-0.2,0.2-0.3,0.4c0,0,0-0.1-0.1-0.1c-0.4-0.4-0.9-0.9-1.5-1c-0.3-0.1-0.4,0.3-0.1,0.4
			c0.5,0.2,0.9,0.5,1.3,0.9c0,0,0.1,0.1,0.1,0.1c-0.2,0.3-0.4,0.5-0.7,0.8c-0.3-0.4-0.5-0.8-0.8-1.1c-0.2-0.2-0.5,0.1-0.3,0.3
			c0.3,0.3,0.6,0.7,0.8,1.1c0,0,0,0,0,0c-0.1,0.1-0.1,0.1-0.2,0.2c-0.6-0.4-1.1-0.9-1.5-1.6c-0.3-0.5-1.1-0.5-1.4,0
			c-3.4,6-13.4,5.6-18,1.3c-0.4-0.4-1.1-0.3-1.3,0.2c-1.6,2.9-5.3,2.3-8.1,1.9c-1.5-0.2-2.8-1-4.3-1.2c-1.7-0.3-3.1,0.9-4.4,1.8
			c-2.2,1.5-5.1,1.9-7.7,1.8c-2.3-0.1-5.4-0.7-6.5-3.1c-0.3-0.7-1.1-0.8-1.5-0.2c-2.7,3.5-8.5,1.8-11.9,0.7c-0.3-0.1-0.8,0.1-1,0.4
			c-1.9,3.2-6.7,2.8-9.8,2.3c-2.8-0.4-5.6-1.2-8.4-1.8C14.4,58.5,13.4,56.9,12.5,55.3L12.5,55.3z"/>
		<path class="st0" d="M44.8,43.1c0.3-1.5-0.8-3-1.8-4c-0.4-0.4-0.8-0.3-1.1,0c-1.2,0.1-2.2,0.9-2.4,2.1c-0.2,1.3,0.2,2.6,1.5,3.2
			C42.2,45.2,44.4,44.8,44.8,43.1L44.8,43.1z M41.1,42.1c0.5,0.3,1,0.6,1.6,1c-0.3,0.1-0.8,0-1-0.1C41.3,42.8,41.1,42.5,41.1,42.1
			L41.1,42.1z M43.1,42.2c-0.5-0.4-1-0.8-1.5-1.3c0.2-0.1,0.4-0.2,0.7-0.2C42.6,41.2,42.9,41.7,43.1,42.2z M43.1,42.8
			C43.1,42.8,43.1,42.8,43.1,42.8c-0.7-0.4-1.4-0.7-2-1.2c0,0,0,0,0,0c0-0.1,0.1-0.2,0.1-0.3C41.9,41.8,42.5,42.3,43.1,42.8
			L43.1,42.8z"/>
		<path class="st0" d="M53.6,41.2c0.5-1.4,0-3.1-1.4-3.8c-1.6-0.8-3.5-0.1-4.2,1.5c-1.2,3.1,3.7,6,5.5,2.9
			C53.6,41.6,53.7,41.4,53.6,41.2L53.6,41.2z M49.6,39.6c0.8,0.5,1.4,1.1,2.2,1.6c0,0,0,0.1,0,0.1C50.9,41.9,49.3,40.7,49.6,39.6
			C49.6,39.7,49.6,39.6,49.6,39.6L49.6,39.6z M52.1,39.8c-0.5-0.3-1.1-0.7-1.7-1c0.3-0.1,0.7-0.1,1.1,0.2
			C51.9,39.1,52,39.5,52.1,39.8z M52.1,40.3c0,0.2-0.1,0.4-0.2,0.5c-0.8-0.5-1.4-1.1-2.2-1.6c0.1-0.1,0.2-0.2,0.2-0.3
			C50.8,39.4,51.5,39.9,52.1,40.3z"/>
		<path class="st0" d="M62.6,36.2c-0.8-1.5-2.8-2.1-4.3-1c-1.4,1-1.5,2.9-0.5,4.3c0.7,0.9,1.7,1.6,2.7,1.3c0.2,0.2,0.5,0.2,0.9,0
			C62.9,39.8,63.4,37.8,62.6,36.2z M58.8,37.4c0.7,0.5,1.3,0.9,1.9,1.4c-0.2,0-0.3,0.1-0.5,0.2C59.9,39.5,58.9,38.4,58.8,37.4
			L58.8,37.4z M61.1,37.2c-0.4-0.3-0.7-0.5-1.1-0.8C60.5,36.3,60.9,36.7,61.1,37.2z M61.1,38.7c-0.7-0.6-1.5-1.2-2.2-1.7
			c0.1-0.2,0.2-0.3,0.4-0.4c0,0,0.1,0,0.2-0.1c0.6,0.4,1.2,0.9,1.8,1.3C61.3,38.1,61.3,38.4,61.1,38.7L61.1,38.7z"/>
		<path class="st0" d="M68.1,32.4c-4.1,1.5-0.9,7.6,2.8,6.3c0.1,0,0.2-0.1,0.3-0.2C75,36.9,71.8,31,68.1,32.4L68.1,32.4z M67.8,34.9
			c1,0.6,2,1.2,3.1,1.8c-0.1,0.1-0.3,0.2-0.5,0.2c-0.1,0-0.2,0.1-0.3,0.2C68.9,37.2,67.7,35.9,67.8,34.9L67.8,34.9z M71.2,36.1
			c0,0.1-0.1,0.2-0.1,0.3c-1.1-0.6-2.2-1.2-3.3-1.9c0.1-0.1,0.1-0.2,0.2-0.2C69.1,34.9,70.1,35.5,71.2,36.1z M71.3,35.7
			c-0.9-0.5-1.9-1.1-2.8-1.6c0,0,0,0,0.1,0c1-0.3,2.1,0.1,2.6,1.1C71.2,35.3,71.2,35.5,71.3,35.7L71.3,35.7z"/>
		<path class="st0" d="M82,32.4c-0.5-1.7-2.2-2.2-3.8-1.5c-1.7,0.9-2.9,3-1.6,4.7c0.9,1.2,2.8,2.2,4,0.8c0.1-0.1,0.1-0.2,0.2-0.3
			C81.8,35.2,82.4,33.7,82,32.4L82,32.4z M80.2,34.1c-0.2,0.5-0.6,0.9-1.1,1.2c-0.1,0-0.2,0.1-0.2,0.2c-0.4-0.1-0.9-0.6-1-0.9
			c-0.3-0.6-0.1-1.1,0.2-1.5C78.9,33.4,79.6,33.8,80.2,34.1L80.2,34.1z M80.4,32.9c-0.4-0.2-0.8-0.4-1.2-0.6c0.1,0,0.1,0,0.2,0
			C80,32.1,80.3,32.4,80.4,32.9L80.4,32.9z M80.4,33.3c0,0.1,0,0.2-0.1,0.4c-0.6-0.3-1.2-0.7-1.9-1c0.1-0.1,0.2-0.1,0.2-0.2
			C79.3,32.8,79.8,33.1,80.4,33.3C80.4,33.3,80.4,33.4,80.4,33.3z"/>
		<path class="st0" d="M91.8,29.6c-1-1.6-2.9-2.1-4.4-1c-3.2,2.2,0.7,8,3.8,5.4c0.1,0,0.1-0.1,0.2-0.2
			C92.6,32.9,92.6,30.9,91.8,29.6z M87.8,31.1c0.8,0.5,1.5,1,2.3,1.5c-0.2,0.1-0.2,0.2-0.3,0.3C89,33.4,87.9,32.2,87.8,31.1
			L87.8,31.1z M90.6,31c-0.7-0.3-1.3-0.8-1.9-1.1c0.7-0.3,1.4,0,1.8,0.8C90.5,30.7,90.5,30.8,90.6,31z M90.5,32.3
			c-0.9-0.5-1.7-1.1-2.6-1.7c0.1-0.2,0.2-0.4,0.3-0.5c0.8,0.4,1.6,1,2.5,1.4C90.7,31.8,90.6,32.1,90.5,32.3z"/>
		<path class="st0" d="M58.8,27.9c-0.6-1.2-0.7-2.6-0.8-3.9c-0.1-1.1,1.6-1.1,1.7,0c0.1,1,0.1,2.1,0.6,3.1
			C60.7,28,59.3,28.8,58.8,27.9L58.8,27.9z"/>
		<path class="st0" d="M62.9,27.5c0.2-1.2,0-2.4-0.2-3.6c-0.1-1.1,1.6-1.1,1.7,0c0.2,1.4,0.3,2.7,0.1,4C64.4,29,62.8,28.6,62.9,27.5
			z"/>
		<path class="st0" d="M67.4,26.5c-0.4-1.4-0.5-2.9-0.6-4.3c0-1.1,1.7-1.1,1.7,0c0,1.3,0.1,2.6,0.5,3.9
			C69.3,27.1,67.7,27.6,67.4,26.5L67.4,26.5z"/>
		<path class="st0" d="M71.8,25.9c-0.4-1.1-0.4-2.3-0.6-3.4c-0.2-1.1,1.4-1.5,1.6-0.5c0.2,1.1,0.2,2.3,0.6,3.4
			C73.8,26.4,72.1,26.9,71.8,25.9z"/>
		<path class="st0" d="M76.8,25.5c-0.4,0.1-1-0.1-1-0.6c-0.2-1.1-0.4-2.1-0.5-3.2c-0.1-1.1,1.6-1.1,1.7,0c0.1,0.9,0.3,1.9,0.4,2.8
			C77.4,25,77.2,25.4,76.8,25.5L76.8,25.5z"/>
		<path class="st0" d="M80.2,24.4c-0.4-1.1-0.4-2.3-0.7-3.5c-0.2-1.1,1.4-1.5,1.6-0.5c0.2,1.2,0.3,2.4,0.7,3.5
			C82.2,25,80.5,25.5,80.2,24.4z"/>
		<path class="st0" d="M84.2,22.7c-0.3-1.2-0.3-2.4-0.5-3.6c-0.2-1.1,1.4-1.5,1.6-0.5c0.2,1.2,0.2,2.4,0.5,3.6
			C86.1,23.3,84.5,23.8,84.2,22.7z"/>
	</g>
</g>
</svg>
