<?xml version="1.0" encoding="UTF-8"?>
<svg id="_Слой_2" data-name="Слой 2" xmlns="http://www.w3.org/2000/svg" viewBox="0 0 124.03 63.88">
  <defs>
    <style>
      .cls-1 {
        fill: #222221;
      }
    </style>
  </defs>
  <g id="Capa_1" data-name="Capa 1">
    <g>
      <path class="cls-1" d="M104.64,47.51c.42-.15,.81-.38,1.15-.66,1.28-.8,2.07-2.49,2.16-3.91,.02-.39,0-.77-.07-1.14-.11-1.6-1.01-2.65-2.35-2.94-.21-.36-.65-.57-1.09-.27-.11,.07-.21,.15-.31,.23-.12,.02-.24,.04-.37,.07-.32,.07-.5,.26-.57,.49-3.32,1.85-2.72,9.63,1.44,8.12Zm-.08-6.69c.04-.07,.09-.13,.13-.2,.02,0,.04-.02,.06-.03,.79,.08,1.27,.6,1.46,1.27,.06,.59-.07,1.28-.32,1.93-.41-1.02-.79-2.03-1.33-2.98Zm.9,3.86c-.53-.79-1-1.61-1.5-2.41,.09-.35,.2-.7,.36-1.02,.54,.98,.92,2.04,1.34,3.08-.06,.12-.13,.24-.2,.35Zm-1.66-1.65c0-.05,.02-.11,.03-.17,.45,.74,.88,1.48,1.37,2.19-.08,.11-.17,.21-.26,.3-.21,.16-.51,.36-.65,.28-.71-.41-.61-1.95-.5-2.61Z"/>
      <path class="cls-1" d="M105.74,29.12c-.35,0-.7,.07-1.04,.14-.4,.07-1.07,.22-1.31,.33-.98,.45-1.83-1-.85-1.45,.95-.44,2.16-.68,3.21-.7,1.08-.03,1.08,1.66,0,1.68Z"/>
      <path class="cls-1" d="M52.06,28.8c-.02-.1-.06-.18-.1-.25,0-.02-.02-.03-.03-.04-.01-.02-.02-.03-.03-.04-.13-.18-.35-.29-.65-.28-3.66,.24-7.4,.81-10.73,2.43-.4,.19-.49,.55-.4,.87,0,.03,0,.05,0,.08,.18,.97,.08,1.96,.18,2.93,.13,1.3,8.36-.8,11.58-2.13,1-.41,.33-2.83,.17-3.56Zm-9.78,2.86c-.12,.27-.23,.54-.35,.81-.02-.21-.04-.43-.06-.64,.14-.06,.28-.12,.42-.17Zm1.04-.39c-.26,.61-.49,1.22-.8,1.8-.16,.04-.31,.09-.46,.13,.27-.58,.53-1.17,.77-1.76,.17-.06,.33-.12,.49-.18Zm.86-.27c-.19,.63-.44,1.25-.75,1.83-.12,.03-.24,.07-.36,.1,.28-.6,.51-1.23,.8-1.83,.11-.03,.21-.07,.32-.1Zm.86-.23c-.31,.65-.65,1.29-1.01,1.91-.02,0-.04,0-.05,.02,.28-.58,.51-1.2,.68-1.82,.13-.04,.25-.07,.38-.1Zm.58-.14c-.26,.61-.55,1.21-.77,1.84-.08,.02-.16,.04-.25,.06,.33-.59,.64-1.19,.92-1.8,.01-.03,.02-.05,.02-.08,.03,0,.05-.01,.08-.02Zm.73-.15c-.19,.6-.35,1.21-.63,1.77-.13,.03-.25,.06-.38,.1,.24-.62,.53-1.21,.78-1.82,.08-.02,.16-.03,.23-.05Zm.82-.15c-.26,.62-.52,1.24-.91,1.79h-.02c.23-.55,.39-1.15,.57-1.73,.12-.02,.23-.04,.35-.06Zm.7-.11c-.26,.55-.46,1.13-.73,1.68-.1,.02-.2,.05-.3,.07,.32-.55,.56-1.14,.81-1.72,.07-.01,.15-.02,.22-.03Zm.65-.09c-.18,.53-.34,1.12-.62,1.58-.08,.02-.15,.04-.23,.06,.24-.54,.43-1.1,.71-1.62,.05,0,.1-.02,.15-.02Zm.59-.07c-.15,.51-.3,1.05-.58,1.49-.03,0-.07,.02-.1,.03,.22-.49,.37-1.03,.55-1.5,.04,0,.09,0,.13-.02Zm.7-.07c-.21,.47-.4,.96-.67,1.4-.02,0-.04,0-.05,.01,.21-.44,.34-.93,.48-1.39,.08,0,.16-.02,.24-.02Zm.6-.05c-.15,.43-.32,.88-.55,1.27-.05,.02-.11,.03-.16,.04,.21-.42,.39-.87,.6-1.3,.04,0,.08,0,.12,0Zm.22,1.05c-.07,.02-.14,.04-.22,.06,.07-.15,.14-.31,.2-.46,0,.13,.01,.27,.01,.4Z"/>
      <path class="cls-1" d="M114.36,27.11l.63-3.78c.18-1.07,1.8-.61,1.62,.45l-.63,3.78c-.18,1.07-1.8,.61-1.62-.45Z"/>
      <path class="cls-1" d="M107.37,47.52s-.03,0,0,0h0Z"/>
      <polygon class="cls-1" points="107.37 47.52 107.37 47.52 107.37 47.52 107.37 47.52"/>
      <path class="cls-1" d="M1.07,62c.2,.04,.39,.1,.58,.16,.52,.17,1.04,.35,1.57,.52,1.34,.45,2.71,.88,4.11,1.08,2.67,.39,5.37-.11,6.43-2.67,.36,.07,8.36,2.01,11.08,2.32,3.47,.39,7.9,.37,10.15-2.7,3.92,1.24,9.08,2.25,12.31-.65,2.97,4.28,10.58,3.73,14.77,1.8,1.77-.82,3.06-2.77,5.19-2.13,1.62,.49,3.12,1,4.81,1.2,2.87,.34,6.12,.3,7.97-2.06,5.31,4.12,14.96,4.33,19.19-1.26,.47,.53,.99,.95,1.55,1.28,.19,.35,.51,.45,.81,.39,2.98,1.18,6.73,0,9.1-2.42,2.87,3.92,10.21,5.23,13.2,.98,.62-.89-.83-1.73-1.45-.85-1.23,1.75-3.78,2-5.72,1.59-2.18-.46-4.28-1.6-5.23-3.7-.36-.79-1.35-.4-1.51,.28-1.55,2.02-4.4,3.28-6.83,2.83,.23-.25,.47-.49,.69-.75,.62-.71,1.2-1.44,1.76-2.19,1.13-1.54,2.15-3.16,3.1-4.81,1.9-3.29,3.62-6.67,5.46-10,4.03-7.32,6.75-15.55,6.79-23.96,0-.1-.02-.19-.04-.28,.05-.46-.21-.92-.79-.86-3.92,.43-7.88,.19-11.79,.76-.57,.08-.71,.59-.54,1.01-.41,1.8-.78,4.43-2.44,5.37-1.87,1.06-4.21,1.23-6.3,1.54-1.94,.29-3.88,.63-5.81,1.01-1.27-3.56-2.7-7.05-4.14-10.54-.26-.63-1.01-.68-1.42-.38-.01,0-.03,0-.04,0-3,.64-6,1.29-9.01,1.94-.93,.2-1.86,.42-2.8,.64-.23-2.75-.34-5.51-.7-8.26-.35-2.66-.88-5.43-2.28-7.76-.09-.29-.35-.52-.76-.47-4.16,.42-8.61,1.08-11.58,4.25-.36,.06-.66,.32-.61,.8,.43,4.57,1.16,9.11,2.18,13.58-2.45,.28-4.88,.65-7.24,1.38-.04,.01-.08,.03-.12,.05-.21,.08-.39,.25-.47,.54-.3,1.11-.42,2.22-.69,3.34-.28,.12-10.21,2.96-14.91,4.27-.17,.05-.3,.14-.4,.24,0,0-.02,.02-.03,.03-.02,.02-.03,.04-.04,.06-.05,.07-.09,.15-.12,.25-.85,2.98-1.66,5.97-2.69,8.9-2.99,.63-5.98,1.24-8.97,1.84-.22-2.3-.47-5.47-2.37-6.85-2.12-1.53-5.33,.35-7.46,.99-.41,.12-.58,.44-.59,.77-.01,.08-.01,.17,0,.26,.34,2.17,.23,4.5,1.13,6.53-3.39,.55-6.77,1.15-9.97,2.33-.48,.18-.63,.64-.55,1.04-.08,.16-.11,.36-.04,.59,.95,3.09,2.11,6.14,3.56,9.04,.87,1.74,1.84,3.5,3.02,5.08-.33,.04-.63,.23-.72,.6-.76,2.96-4.04,2.47-6.36,1.86-1.2-.32-2.37-.73-3.54-1.12-.57-.19-1.55-.62-2.12-.19-.81,.61-.1,1.95,.71,1.54Zm18.1-27.46c-.5,.57-.92,1.19-1.39,1.78-.03-.42-.07-.84-.11-1.25,.5-.17,1-.36,1.5-.53Zm1.62-.51c-.97,1.25-1.87,2.56-2.86,3.8-.04-.3-.06-.6-.09-.9,.65-.8,1.21-1.68,1.93-2.42,.05-.06,.07-.12,.05-.18,.1-.03,.19-.07,.29-.09,.19-.05,.42-.13,.68-.2Zm1.78-.19c-1.31,1.97-3.05,3.67-4.33,5.65-.1-.36-.17-.72-.23-1.1,1.21-1.46,2.25-3.05,3.44-4.53,.39-.07,.78-.1,1.12-.03Zm-1.99,6.83c-.43,.07-.86,.14-1.29,.21,.8-.99,1.55-2.02,2.28-3.07,.08,.3,.17,.59,.26,.88,.03,.11,.08,.19,.14,.26-.42,.61-.86,1.19-1.4,1.7Zm1.72-1.45c.18,.07,.37,.08,.56,.04-.11,.13-.21,.27-.32,.4-.15,.19-.26,.42-.37,.63-.02,.04-.04,.07-.05,.1-.28,.05-.56,.1-.84,.15,.37-.42,.71-.86,1.02-1.32Zm-3.54,1.64c-.14-.27-.26-.55-.36-.84,.8-1.3,1.81-2.48,2.79-3.68,0,.02,0,.03,0,.05,.07,.3,.15,.6,.23,.9-.85,1.22-1.71,2.43-2.67,3.57Zm4.63-6.39c-.26,.36-.52,.73-.78,1.1-.17-.17-.4-.24-.63-.22,.34-.44,.67-.89,.97-1.35,.05,.04,.1,.08,.15,.12,.1,.11,.2,.23,.29,.35Zm.7,1.43c-.34,.41-.65,.84-.95,1.29-.11-.4-.21-.8-.31-1.2,.26-.38,.53-.76,.8-1.14,.18,.32,.33,.68,.45,1.05Zm.3,1.25c-.3,.43-.6,.85-.91,1.27,0-.05-.02-.11-.04-.17-.06-.18-.11-.36-.17-.54,.3-.46,.6-.9,.94-1.32,.06,.25,.12,.5,.17,.76Zm.19,1.36c-.16,.65-.68,1.18-1.19,1.63-.11,.02-.22,.04-.33,.07-.13,.03-.26,.05-.4,.08,.03-.07,.06-.12,.08-.17,.49-.83,1.14-1.61,1.74-2.39,.04,.26,.07,.52,.1,.78Zm.13,1.37c-.19,.04-.37,.07-.56,.11,.19-.2,.36-.41,.51-.64,.02,.18,.03,.36,.05,.53ZM61.85,5.27s-.03,.06-.04,.1c-.06,.13-.12,.27-.18,.41-.01-.08-.02-.17-.03-.25,.08-.09,.16-.17,.25-.25Zm1.16-.98c-.34,1.1-.63,2.28-1.2,3.24-.04-.33-.08-.66-.11-.99,.03-.02,.05-.04,.07-.08,.17-.34,.3-.7,.47-1.04,.12-.24,.25-.48,.26-.74,.17-.13,.33-.27,.51-.39Zm1.32-.79c-.82,2.12-1.29,4.38-2.19,6.47-.08-.6-.17-1.2-.24-1.8,.86-1.22,1.18-2.83,1.68-4.25,.25-.15,.5-.29,.76-.42Zm.99-.45c-.72,2.25-1.11,4.69-2.24,6.77-.21,.13-.42,.28-.61,.44,1-2.26,1.48-4.73,2.41-7.02,.15-.06,.29-.13,.44-.19Zm1.07-.37c-.62,2.22-1.27,4.45-2.15,6.58-.18,.06-.35,.14-.52,.22,.98-2.07,1.36-4.42,2.09-6.58,0-.01,0-.02,0-.03,.19-.07,.38-.13,.57-.19Zm1.24-.33c-.35,1.12-.65,2.25-1,3.37-.33,1.04-.64,2.28-1.28,3.21-.2,.04-.4,.1-.59,.16,.85-2.13,1.49-4.34,2.1-6.55,.25-.07,.51-.13,.77-.19Zm1.42-.28c-1.03,2.15-1.8,4.41-2.57,6.67-.19,.02-.38,.05-.57,.08,.43-.77,.71-1.67,.96-2.46,.44-1.36,.79-2.75,1.23-4.11,.31-.07,.63-.12,.95-.18Zm1.33-.2c-.87,2.31-2.15,4.46-2.96,6.79-.16,0-.33,.02-.49,.03,.78-2.27,1.55-4.55,2.62-6.71,.28-.04,.55-.08,.83-.12Zm1.29,0c-.8,2.4-2.12,4.56-3.29,6.79-.17,0-.35,0-.52,0,.84-2.35,2.12-4.5,2.98-6.84,.25-.03,.5-.05,.75-.08,.02,.04,.05,.09,.07,.13Zm.65,1.48s-.06,.04-.08,.07c-1.02,1.71-1.74,3.68-2.93,5.29-.15-.01-.31-.02-.46-.03,1.09-2.07,2.29-4.08,3.08-6.28,.14,.31,.27,.63,.39,.95Zm.37,1.11c-.87,1.43-1.58,3.07-2.71,4.31-.06,0-.12-.01-.18-.02,1.07-1.52,1.77-3.32,2.7-4.92,.07,.21,.13,.42,.19,.63Zm.39,1.63c-.64,.97-1.22,1.97-1.98,2.85-.2-.04-.41-.07-.61-.1,.95-1.13,1.61-2.53,2.36-3.81,.09,.35,.17,.71,.24,1.06Zm.19,1.07c-.46,.65-.91,1.3-1.41,1.92-.1-.02-.19-.04-.29-.06,.6-.73,1.1-1.54,1.62-2.34,.03,.16,.06,.32,.08,.48Zm.13,.94c-.27,.38-.53,.78-.83,1.14-.09-.02-.17-.04-.26-.06,.36-.46,.7-.94,1.04-1.42,.02,.11,.03,.23,.05,.34Zm.17,1.41c-.18-.05-.36-.1-.55-.15,.16-.21,.31-.42,.46-.64,.02,.15,.04,.3,.05,.45,.01,.12,.02,.23,.04,.35Zm.58,7.36c-1.33,.31-2.66,.6-3.99,.81-2.12,.35-4.28,.54-6.43,.75-.44-1.91-.82-3.83-1.16-5.76,2.05-3.53,8.01-2.39,11.16-1.37,0,0,0,0,0,0,.15,1.85,.25,3.7,.41,5.55Zm17.39,8.28c-.3,.06-.6,.12-.9,.19,.15-.32,.27-.67,.28-1.02,0-.27-.41-.27-.42,0,0,.3-.12,.61-.25,.88-.04,.08-.02,.16,.02,.22-.1,.02-.19,.04-.29,.06,.11-.42,.24-.83,.38-1.24,.09-.26-.32-.37-.41-.11-.15,.46-.3,.93-.42,1.4,0,.02,0,.03,0,.04-.21,.04-.41,.09-.62,.13,.06-.4,.1-.8,.19-1.19,.06-.26-.34-.38-.41-.11-.11,.46-.14,.93-.22,1.39-.16,.03-.31,.07-.47,.1,.09-.32,.18-.64,.26-.96,.07-.26-.34-.37-.4-.11-.1,.39-.21,.78-.32,1.16-.22,.05-.43,.09-.65,.14,.08-.35,.16-.7,.25-1.05,.07-.26-.34-.37-.41-.11-.1,.42-.2,.84-.3,1.26-.11,.02-.23,.05-.34,.07,.06-.26,.17-.51,.32-.75,.15-.23-.22-.44-.36-.21-.21,.33-.35,.68-.41,1.05-.1,.02-.2,.04-.3,.06,.07-.24,.11-.48,.12-.73,0-.27-.41-.27-.42,0,0,.29-.07,.56-.17,.82-.18,.04-.36,.08-.54,.12,.02-.08,.04-.17,.06-.25,.04-.15,.06-.41,.16-.54,.17-.21-.12-.51-.3-.3-.15,.18-.2,.43-.26,.65-.04,.18-.09,.35-.13,.53-.24,.05-.48,.1-.73,.15,.03-.3,.07-.6,.07-.9,0-.27-.42-.27-.42,0,0,.33-.04,.66-.08,.99-.2,.04-.39,.08-.59,.12,.07-.31,.14-.62,.24-.92,.08-.26-.32-.37-.41-.11-.12,.37-.2,.75-.28,1.13-.25,.05-.49,.1-.74,.16,.06-.25,.11-.5,.16-.75,.05-.26-.35-.38-.41-.11-.07,.32-.14,.64-.21,.96-.2,.04-.4,.08-.59,.13,.04-.35,.08-.69,.09-1.03,0-.27-.42-.27-.42,0,0,.38-.06,.75-.1,1.12-.22,.05-.45,.1-.67,.14,.12-.3,.26-.61,.35-.93,.07-.26-.33-.37-.4-.11-.11,.4-.29,.76-.43,1.15-.19,.04-.39,.08-.58,.13,.08-.23,.16-.47,.27-.69,.12-.24-.24-.46-.36-.21-.16,.32-.27,.67-.39,1.01-.25,.05-.5,.11-.75,.16,.11-.23,.24-.46,.38-.68,.15-.23-.22-.44-.36-.21-.21,.31-.38,.65-.52,1-.15,.03-.29,.06-.44,.1,.08-.26,.15-.53,.22-.79,.07-.26-.34-.37-.41-.11-.08,.34-.18,.68-.29,1.01-.21,.05-.42,.09-.63,.14,.13-.34,.27-.68,.46-.99,.15-.23-.22-.44-.36-.21-.26,.41-.41,.87-.6,1.31-.25,.05-.49,.11-.74,.16,.19-.32,.36-.66,.46-1.03,.07-.26-.33-.37-.41-.11-.12,.47-.36,.87-.63,1.27-.1,.02-.21,.05-.31,.07,.12-.25,.22-.51,.34-.76,.12-.24-.24-.46-.36-.21-.17,.36-.31,.74-.51,1.09-.23,.05-.46,.11-.7,.16,.1-.16,.2-.32,.31-.47,.15-.22-.21-.44-.36-.21-.17,.26-.34,.53-.49,.8-.25,.06-.5,.12-.76,.17,.09-.22,.17-.44,.24-.68,.07-.26-.34-.37-.41-.11-.08,.31-.2,.62-.35,.9-.29,.06-.58,.13-.87,.2,.11-.27,.21-.54,.34-.8,.12-.24-.25-.46-.36-.21-.18,.37-.31,.76-.48,1.13-.3,.07-.59,.13-.89,.2,.08-.24,.15-.49,.21-.75,.06-.27-.35-.38-.41-.11-.07,.33-.17,.66-.29,.97-.39,.09-.79,.18-1.18,.27,.07-.23,.14-.47,.19-.71,.07-.27-.34-.38-.4-.11-.08,.31-.16,.63-.26,.93-.31,.07-.61,.14-.92,.21,.11-.35,.18-.71,.19-1.08,0-.27-.41-.27-.42,0-.01,.42-.11,.81-.25,1.19-.23,.05-.45,.1-.68,.16,.07-.39,.14-.77,.22-1.15,.05-.27-.35-.38-.41-.11-.09,.45-.17,.91-.26,1.36-.22,.05-.44,.1-.66,.16,.04-.21,.07-.43,.07-.62,0-.27-.41-.27-.42,0,0,.22-.04,.48-.1,.73-.16,.04-.32,.08-.49,.11,.02-.14,.03-.28,.03-.42,0-.27-.42-.27-.42,0,0,.18-.02,.35-.05,.52-.26,.06-.51,.12-.77,.18,.04-.12,.08-.24,.11-.37,.07-.26-.34-.37-.41-.11-.05,.2-.12,.39-.19,.59-.21,.05-.41,.09-.62,.14,.06-.27,.09-.54,.1-.81,0-.27-.42-.27-.42,0,0,.32-.05,.63-.14,.92-.12,.03-.23,.05-.35,.08,.02-.08,.04-.16,.06-.25,.07-.26-.34-.37-.41-.11-.04,.16-.08,.31-.11,.47-.29,.07-.57,.13-.86,.2,.08-.13,.16-.25,.24-.37,.15-.22-.21-.44-.36-.21-.15,.23-.3,.46-.41,.7-.19,.04-.38,.09-.57,.13,.03-.07,.06-.13,.09-.2,.12-.24-.25-.46-.36-.21-.08,.17-.15,.35-.23,.53-.37,.08-.73,.17-1.1,.26,.14-.24,.28-.48,.43-.71,.15-.22-.21-.44-.36-.21-.22,.34-.42,.7-.63,1.05-.29,.07-.57,.13-.86,.2,.13-.26,.28-.51,.45-.76,.15-.23-.21-.44-.36-.21-.23,.35-.45,.71-.6,1.1-.39,.09-.78,.18-1.16,.27,.18-.29,.35-.59,.47-.92,.09-.26-.32-.37-.41-.11-.15,.42-.41,.8-.65,1.17-.23,.05-.45,.11-.68,.16,.07-.17,.13-.34,.19-.52,.09-.26-.32-.37-.4-.11-.09,.25-.19,.49-.28,.74-.36,.08-.72,.17-1.09,.25,.1-.29,.24-.56,.46-.79,.19-.2-.11-.49-.3-.3-.33,.35-.5,.76-.63,1.2-.24,.05-.48,.11-.72,.17,.08-.19,.17-.38,.28-.55,.15-.23-.22-.44-.36-.21-.18,.28-.29,.58-.43,.88-.27,.06-.55,.13-.82,.19,.09-.14,.2-.27,.32-.4,.19-.19-.11-.49-.3-.29-.24,.24-.43,.52-.58,.82-.22,.05-.44,.1-.66,.15,.14-.25,.29-.48,.45-.72,.15-.23-.21-.44-.37-.21-.22,.34-.45,.68-.61,1.05-.12,.03-.24,.05-.36,.08-.02,0-.04,.01-.06,.02,.05-.14,.11-.29,.16-.43,.09-.26-.32-.37-.41-.11-.07,.22-.16,.44-.25,.65-.21,.05-.42,.1-.63,.14,.09-.17,.18-.33,.28-.49,.15-.23-.22-.44-.36-.21-.17,.27-.3,.57-.47,.83-.34,.08-.68,.15-1.02,.23,.12-.29,.27-.57,.45-.85,.15-.23-.21-.44-.36-.21-.24,.37-.44,.75-.58,1.17-.2,.04-.4,.09-.6,.13,.11-.38,.25-.73,.43-1.09,.12-.24-.24-.46-.36-.21-.22,.46-.39,.92-.53,1.4-.38,.08-.75,.17-1.13,.25,.25-.49,.53-.96,.87-1.39,.16-.21-.13-.51-.3-.3-.21,.27-.4,.54-.57,.83,.71-2.2,1.33-4.43,1.96-6.65,4.59-1.21,8.23-2.28,13.81-3.72,.8-.21,1.34-.49,1.56-1.19,.41-1.3,.51-1.99,.83-3.31,4.99-1.43,10.23-1.15,15.28-2.27,5.59-1.24,11.19-2.44,16.79-3.64,1.3,3.17,2.59,6.34,3.74,9.57Zm24.39,5.2c.18,.2,.3,.44,.39,.69-3.81,1.41-7.81,2.1-11.82,2.68-4.03,.59-8.01,1.24-12,2.07-13.44,2.8-26.78,5.93-40.11,9.21-13.36,3.29-26.75,6.32-40.31,8.68-.14,.03-.25,.07-.34,.14-.12-.24-.24-.48-.35-.71-1.27-2.63-2.32-5.35-3.18-8.14,4.73-1.63,9.82-2.05,14.7-3.02,6.2-1.23,12.4-2.45,18.57-3.87,13.25-3.04,26.43-6.31,39.74-9.07,6.26-1.29,12.53-2.74,18.85-3.66,2.15-.31,5.02-.52,6.7-2.07,1.63-1.5,2.08-3.77,2.59-5.85,3.28-.4,6.6-.26,9.89-.54,0,.47-.03,.94-.06,1.41-.24-.21-.5-.39-.81-.5-.25-.09-.36,.31-.11,.41,.35,.12,.62,.38,.88,.64-.02,.3-.05,.6-.08,.9-.37-.26-.7-.58-1.02-.9-.19-.19-.49,.11-.3,.3,.37,.37,.73,.72,1.16,1.01,.04,.03,.07,.04,.11,.04-.05,.49-.11,.97-.18,1.45-.3-.25-.53-.56-.8-.83-.19-.19-.49,.1-.3,.3,.34,.35,.62,.73,1.02,1.01-.08,.53-.17,1.06-.28,1.58-.32-.25-.61-.55-.84-.89-.15-.22-.52-.01-.36,.21,.3,.44,.68,.82,1.11,1.13-.12,.59-.25,1.19-.4,1.78-.22-.31-.48-.61-.61-.97-.09-.25-.5-.15-.41,.11,.16,.44,.46,.79,.72,1.17,.05,.07,.12,.1,.19,.09-.11,.44-.23,.88-.36,1.32-.2-.35-.37-.73-.59-1.07-.15-.23-.51-.02-.36,.21,.26,.4,.44,.86,.7,1.26,.03,.05,.06,.07,.1,.09-.12,.4-.24,.79-.37,1.18-.11-.22-.22-.43-.36-.64-.15-.23-.51-.01-.36,.21,.2,.31,.35,.66,.53,.98-.08,.25-.17,.49-.25,.74-.1-.21-.21-.4-.37-.57-.18-.2-.48,.1-.3,.3Zm-.55,3.4c-.09-.14-.17-.29-.24-.44-.02-.04-.05-.06-.08-.08,.21-.07,.41-.13,.62-.2-.1,.24-.2,.47-.3,.71ZM12.52,55.31h0c8.8-1.53,17.57-3.28,26.28-5.3,13.36-3.1,26.63-6.58,40.02-9.56,6.56-1.46,13.16-3.05,19.79-4.15,5.4-.89,10.92-1.37,16.17-2.96-.04,.06-.05,.13-.01,.21,.12,.24,.25,.47,.41,.68-.11,.26-.23,.53-.35,.79-.05-.06-.1-.12-.16-.18-.19-.2-.49,.1-.3,.3,.09,.1,.18,.2,.26,.31-.11,.23-.22,.46-.33,.69-.15-.23-.29-.47-.44-.7-.15-.22-.51-.01-.36,.21,.2,.31,.39,.63,.6,.93-.08,.17-.16,.33-.24,.49-.19-.23-.37-.48-.58-.69-.19-.19-.49,.1-.3,.3,.25,.25,.45,.54,.68,.8-.11,.22-.22,.43-.33,.64-.14-.22-.29-.44-.47-.62-.19-.2-.49,.1-.3,.3,.22,.23,.39,.49,.55,.76-.12,.24-.25,.47-.37,.71-.13-.18-.28-.34-.44-.5-.19-.19-.49,.11-.3,.3,.19,.19,.38,.38,.52,.61-.11,.21-.22,.42-.34,.62-.05,.09-.1,.18-.15,.27-.13-.21-.26-.43-.4-.64-.15-.22-.51-.02-.36,.21,.18,.28,.36,.57,.53,.85-.07,.13-.14,.26-.21,.39-.18-.22-.35-.45-.55-.65-.19-.2-.49,.11-.3,.3,.23,.23,.42,.5,.63,.75-.15,.28-.3,.55-.45,.83-.21-.39-.45-.77-.7-1.14-.15-.22-.51-.01-.36,.21,.3,.45,.58,.9,.83,1.37-.17,.33-.35,.65-.52,.98-.15-.28-.31-.55-.54-.78-.19-.2-.49,.1-.3,.3,.23,.23,.38,.51,.53,.8,.02,.04,.06,.07,.09,.09-.19,.37-.39,.73-.58,1.09,0,0-.01-.02-.02-.03l-.42-.42c-.19-.19-.49,.11-.3,.3l.42,.42s.09,.06,.14,.06c-.13,.25-.27,.5-.4,.76-.27-.31-.53-.67-.89-.86-.24-.13-.45,.23-.21,.36,.36,.2,.61,.59,.89,.89-.16,.29-.32,.58-.48,.87-.13-.32-.36-.72-.72-.74-.27-.02-.27,.4,0,.42,0,0-.01,0-.01,0,0,0,.04,.02,.04,.02,.05,.04,.09,.09,.13,.14,.09,.12,.16,.25,.2,.39,.03,.08,.09,.12,.16,.14-.19,.35-.39,.7-.59,1.04-.1-.18-.21-.36-.33-.53-.06-.08-.13-.19-.24-.22-.15-.04-.27,.08-.28,.22,0,.11,.06,.17,.14,.19,0,.01,.02,.03,.03,.05,.05,.08,.11,.16,.16,.24,.09,.15,.18,.3,.26,.46,0,0,0,0,0,0-.07,.11-.13,.22-.2,.34-.25-.25-.54-.5-.89-.52-.27-.02-.27,.4,0,.42,.15,0,.3,.15,.41,.24,.09,.07,.17,.15,.25,.23-.15,.26-.31,.51-.47,.77-.25-.48-.59-.9-1.12-1.09-.25-.09-.36,.31-.11,.4,.48,.18,.78,.66,.97,1.11-.15,.25-.31,.5-.48,.74-.27-.35-.57-.68-.82-1.04-.15-.22-.52-.01-.36,.21,.29,.42,.64,.79,.93,1.2-.15,.22-.3,.44-.45,.65-.18-.44-.51-.75-.9-1.02-.23-.15-.43,.21-.21,.36,.33,.22,.61,.48,.75,.85,.02,.07,.08,.12,.14,.13-.17,.24-.35,.48-.53,.72-.22-.31-.48-.61-.6-.97-.09-.25-.5-.14-.41,.11,.16,.45,.46,.79,.72,1.17,0,0,.01,.02,.02,.03-.08,.11-.17,.22-.26,.33-.02,.02-.03,.04-.05,.06-.3-.4-.6-.79-.89-1.19-.16-.21-.53,0-.36,.21,.33,.44,.66,.87,.98,1.31-.1,.13-.21,.24-.32,.37,0-.04-.02-.07-.05-.11-.44-.44-.89-.87-1.49-1.04-.26-.07-.37,.33-.11,.41,.54,.15,.93,.54,1.31,.93,.04,.04,.09,.06,.14,.06-.22,.26-.45,.51-.69,.75-.26-.38-.52-.78-.84-1.11-.19-.2-.49,.1-.3,.3,.31,.32,.56,.71,.81,1.08,0,.01,.02,.02,.02,.03-.07,.06-.14,.12-.21,.18-.58-.37-1.09-.89-1.5-1.58-.32-.54-1.14-.55-1.45,0-3.4,5.99-13.43,5.58-18.02,1.3-.38-.36-1.06-.32-1.32,.17-1.56,2.92-5.32,2.3-8.07,1.93-1.47-.2-2.82-.97-4.28-1.23-1.69-.31-3.1,.93-4.38,1.82-2.15,1.49-5.08,1.91-7.65,1.83-2.35-.08-5.44-.65-6.47-3.1-.29-.7-1.07-.81-1.54-.2-2.65,3.48-8.46,1.79-11.88,.66-.35-.12-.77,.07-.95,.39-1.87,3.24-6.7,2.81-9.84,2.34-2.84-.42-5.59-1.21-8.37-1.84-1.25-1.33-2.28-2.88-3.17-4.49Z"/>
      <path class="cls-1" d="M44.76,43.1c.28-1.45-.79-2.97-1.75-3.95-.36-.37-.82-.29-1.12-.02-1.16,.14-2.22,.9-2.43,2.14-.22,1.29,.24,2.63,1.46,3.24,1.33,.66,3.51,.24,3.83-1.41Zm-3.67-.96c.51,.35,1.05,.64,1.57,.96-.34,.09-.78,.03-1-.11-.31-.18-.51-.51-.57-.86Zm1.97,.1c-.51-.41-1.01-.84-1.51-1.26,.19-.13,.42-.18,.68-.2,.36,.43,.68,.93,.83,1.46Zm.03,.56s-.02,.04-.03,.05c-.64-.41-1.33-.76-1.95-1.21,0-.02,0-.04,.01-.05,.03-.12,.08-.21,.14-.3,.6,.51,1.21,1.02,1.83,1.52Z"/>
      <path class="cls-1" d="M53.62,41.23c.47-1.42,.05-3.1-1.38-3.85-1.59-.84-3.49-.14-4.16,1.55-1.22,3.07,3.72,5.99,5.45,2.92,.12-.21,.14-.43,.08-.61Zm-4-1.59c.75,.49,1.42,1.09,2.18,1.57-.02,.04-.03,.09-.04,.13-.87,.53-2.47-.65-2.15-1.69,0,0,0-.01,0-.02Zm2.5,.15c-.55-.35-1.1-.7-1.65-1.04,.33-.12,.72-.08,1.06,.16,.33,.23,.52,.54,.59,.88Zm.02,.51c-.02,.18-.08,.36-.15,.54-.76-.47-1.43-1.09-2.17-1.58,.07-.1,.15-.2,.24-.27,.7,.44,1.39,.87,2.08,1.31Z"/>
      <path class="cls-1" d="M62.6,36.22c-.79-1.53-2.85-2.12-4.28-1.02-1.37,1.05-1.5,2.9-.46,4.27,.67,.88,1.72,1.59,2.73,1.33,.23,.19,.55,.24,.87,0,1.42-1.04,1.96-2.98,1.14-4.58Zm-3.76,1.22c.65,.46,1.3,.92,1.9,1.44-.15,.02-.31,.09-.45,.23-.4,.37-1.4-.74-1.45-1.66Zm2.3-.29c-.37-.27-.74-.54-1.12-.81,.53-.01,.92,.33,1.12,.81Zm0,1.51c-.71-.61-1.46-1.15-2.23-1.69,.07-.17,.2-.32,.4-.42,.05-.03,.1-.05,.15-.07,.62,.39,1.2,.87,1.82,1.28,.02,.3-.02,.62-.14,.91Z"/>
      <path class="cls-1" d="M68.09,32.37c-4.09,1.53-.93,7.63,2.75,6.28,.14-.05,.25-.13,.33-.21,3.85-1.54,.67-7.46-3.08-6.06Zm-.33,2.55c1,.64,2.02,1.23,3.07,1.79-.14,.1-.31,.17-.51,.23-.12,.04-.22,.09-.3,.15-1.13,.08-2.28-1.21-2.25-2.18Zm3.49,1.21c-.03,.1-.06,.19-.12,.27-1.12-.59-2.21-1.23-3.27-1.91,.05-.09,.11-.17,.19-.23,1.04,.66,2.1,1.29,3.2,1.87Zm.02-.47c-.95-.51-1.89-1.06-2.8-1.64,.02,0,.04-.02,.07-.03,1.04-.31,2.06,.12,2.55,1.11,.1,.2,.16,.39,.19,.56Z"/>
      <path class="cls-1" d="M82.02,32.36c-.5-1.74-2.23-2.25-3.77-1.45-1.72,.9-2.88,2.95-1.61,4.74,.88,1.24,2.77,2.22,3.99,.82,.08-.09,.13-.19,.17-.29,1.03-.95,1.62-2.44,1.22-3.83Zm-1.77,1.76c-.21,.5-.59,.91-1.09,1.19-.08,.05-.15,.1-.21,.16-.42-.07-.86-.59-1.02-.92-.27-.56-.11-1.11,.25-1.53,.7,.36,1.38,.74,2.07,1.11Zm.17-1.23c-.39-.2-.79-.39-1.19-.58,.05-.02,.11-.04,.16-.05,.59-.16,.93,.14,1.02,.64Zm.01,.46c-.01,.12-.03,.24-.05,.36-.63-.33-1.24-.68-1.88-1.01,.08-.06,.16-.12,.24-.17,.54,.27,1.08,.52,1.61,.8,.03,.01,.05,.02,.08,.02Z"/>
      <path class="cls-1" d="M91.81,29.63c-.98-1.62-2.87-2.08-4.45-.99-3.22,2.2,.67,8.02,3.75,5.37,.06-.05,.11-.11,.15-.17,1.31-.92,1.34-2.9,.55-4.21Zm-3.99,1.45c.77,.5,1.52,1.02,2.31,1.49-.15,.09-.25,.21-.31,.33-.84,.54-1.93-.74-1.99-1.82Zm2.74-.12c-.66-.34-1.27-.77-1.93-1.11,.74-.3,1.42-.03,1.8,.77,.05,.11,.09,.22,.13,.34Zm-.09,1.32c-.89-.52-1.73-1.12-2.6-1.67,.06-.2,.17-.38,.34-.52,.84,.4,1.61,.97,2.46,1.38,.02,.3-.03,.59-.2,.81Z"/>
      <path class="cls-1" d="M58.81,27.85c-.58-1.25-.68-2.59-.79-3.94-.08-1.08,1.6-1.07,1.68,0,.08,1.03,.12,2.14,.56,3.09,.45,.98-1,1.83-1.46,.85Z"/>
      <path class="cls-1" d="M62.92,27.51c.19-1.19-.04-2.42-.18-3.59-.13-1.08,1.55-1.06,1.68,0,.16,1.36,.34,2.68,.12,4.04-.17,1.07-1.79,.61-1.62-.45Z"/>
      <path class="cls-1" d="M67.41,26.53c-.39-1.41-.54-2.88-.55-4.34,0-1.08,1.67-1.08,1.68,0,0,1.32,.14,2.62,.5,3.89,.29,1.05-1.33,1.49-1.62,.45Z"/>
      <path class="cls-1" d="M71.75,25.86c-.43-1.1-.39-2.29-.6-3.44-.19-1.06,1.43-1.51,1.62-.45,.21,1.15,.17,2.34,.6,3.44,.4,1.01-1.23,1.45-1.62,.45Z"/>
      <path class="cls-1" d="M76.75,25.55c-.4,.11-.97-.13-1.04-.59-.16-1.07-.38-2.13-.48-3.22-.09-1.08,1.59-1.07,1.68,0,.08,.93,.28,1.85,.42,2.77,.07,.45-.11,.9-.59,1.04Z"/>
      <path class="cls-1" d="M80.2,24.44c-.36-1.14-.45-2.34-.67-3.52-.2-1.06,1.42-1.51,1.62-.45,.22,1.17,.31,2.37,.67,3.52,.33,1.04-1.3,1.48-1.62,.45Z"/>
      <path class="cls-1" d="M84.24,22.71c-.27-1.18-.32-2.4-.52-3.59-.18-1.06,1.44-1.52,1.62-.45,.21,1.19,.25,2.41,.52,3.59,.25,1.06-1.38,1.51-1.62,.45Z"/>
    </g>
  </g>
</svg>